SplineFontDB: 3.2
FontName: Swainson-Italic
FullName: Swainson Italic
FamilyName: Swainson
Weight: Regular
Copyright: Copyright 2023 Robert Allgeyer. Derived from Libertinus Serif, Copyright 2018-2022 The Libertinus Project Authors.
Version: 0.0.1
ItalicAngle: -7.8
UnderlinePosition: -100
UnderlineWidth: 40
Ascent: 800
Descent: 200
InvalidEm: 0
sfntRevision: 0x00000000
LayerCount: 2
Layer: 0 0 "Back" 1
Layer: 1 0 "Fore" 0
XUID: [1021 70 -1426477356 11750078]
StyleMap: 0x0001
FSType: 0
OS2Version: 4
OS2_WeightWidthSlopeOnly: 0
OS2_UseTypoMetrics: 1
CreationTime: 1156455862
ModificationTime: 1677367790
PfmFamily: 17
TTFWeight: 400
TTFWidth: 5
LineGap: 0
VLineGap: 0
Panose: 2 0 5 3 0 0 0 0 0 0
OS2TypoAscent: 925
OS2TypoAOffset: 0
OS2TypoDescent: -275
OS2TypoDOffset: 0
OS2TypoLinegap: 0
OS2WinAscent: 925
OS2WinAOffset: 0
OS2WinDescent: 275
OS2WinDOffset: 0
HheadAscent: 925
HheadAOffset: 0
HheadDescent: -275
HheadDOffset: 0
OS2SubXSize: 650
OS2SubYSize: 700
OS2SubXOff: 19
OS2SubYOff: 140
OS2SupXSize: 650
OS2SupYSize: 700
OS2SupXOff: -65
OS2SupYOff: 480
OS2StrikeYSize: 49
OS2StrikeYPos: 258
OS2CapHeight: 650
OS2XHeight: 400
OS2FamilyClass: 261
OS2Vendor: 'user'
OS2CodePages: 00000001.00000000
OS2UnicodeRanges: a000002f.0000e04b.00000020.00000000
Lookup: 1 0 0 "'subs' Subscript in Latin lookup 13" { "'subs' Subscript in Latin lookup 13-1" ("inferior") } ['subs' ('DFLT' <'dflt' > 'latn' <'dflt' > ) ]
Lookup: 1 0 0 "'lnum' Lining Figures in Latin lookup 0" { "'lnum' Lining Figures in Latin lookup 0 subtable"  } ['lnum' ('DFLT' <'dflt' > 'latn' <'dflt' > ) ]
Lookup: 1 0 0 "'smcp' Lowercase to Small Capitals in Latin lookup 1" { "'smcp' Lowercase to Small Capitals in Latin lookup 1 subtable"  } ['smcp' ('DFLT' <'dflt' > 'latn' <'dflt' > ) ]
Lookup: 1 0 0 "'c2sc' Capitals to Small Capitals in Latin lookup 2" { "'c2sc' Capitals to Small Capitals in Latin lookup 2 subtable"  } ['c2sc' ('DFLT' <'dflt' > 'latn' <'dflt' > ) ]

StartChar: .notdef
Encoding: 65536 -1 0
Width: 600
GlyphClass: 2
Flags: W
LayerCount: 2
Fore
SplineSet
265 445 m 0
 265 461 258 458 258 473 c 0
 258 517 315 536 356 536 c 0
 397 536 431 498 431 438 c 0
 431 414 423 370 355 315 c 0
 287 261 278 207 271 167 c 2
 265 125 l 2
 265 119 269 114 275 114 c 0
 282 114 289 119 290 125 c 2
 296 165 l 2
 307 231 350 259 372 272 c 0
 449 316 503 375 503 451 c 0
 503 525 450 566 369 566 c 0
 251 566 186 485 186 437 c 0
 186 411 207 403 220 403 c 0
 241 403 265 418 265 445 c 0
302 2 m 0
 302 23 286 39 263 39 c 0
 236 39 209 15 209 -12 c 0
 209 -34 225 -50 248 -50 c 0
 276 -50 302 -24 302 2 c 0
246 -128 m 0
 121 -128 36 7 36 196 c 0
 36 462 206 730 384 730 c 0
 509 730 594 595 594 406 c 0
 594 140 424 -128 246 -128 c 0
EndSplineSet
Validated: 1
EndChar

StartChar: exclam
Encoding: 33 33 3
Width: 270
GlyphClass: 2
Flags: W
HStem: -10 106<97.875 176.649> 640 20G<211 239.5>
VStem: 84 108<4.98447 82.25> 144 30<190.178 283.936> 156 112<501.854 633.89>
LayerCount: 2
Fore
SplineSet
144 203 m 0xd0
 145 229 156 360 156 435 c 0
 156 465 155 489 155 512 c 0
 155 535 156 557 160 585 c 0
 167 639 199 660 223 660 c 0
 256 660 268 628 268 601 c 0xc8
 268 595 267 590 266 585 c 0
 256 520 236 478 214 392 c 0
 186 284 178 224 174 210 c 0
 172 199 167 190 157 190 c 0
 147 190 144 197 144 203 c 0xd0
144 96 m 0xd0
 171 96 192 75 192 49 c 0
 192 18 163 -10 132 -10 c 0
 105 -10 84 10 84 37 c 0xe0
 84 64 105 96 144 96 c 0xd0
EndSplineSet
Validated: 1
EndChar

StartChar: quotedbl
Encoding: 34 34 4
Width: 362
GlyphClass: 2
Flags: W
HStem: 442 218
VStem: 89 89<558.398 646.769> 215 89<558.398 646.769>
LayerCount: 2
Fore
SplineSet
91 442 m 1
 91 457 89 601 89 610 c 0
 89 632 116 660 146 660 c 0
 168 660 178 648 178 635 c 0
 178 623 157 557 119 446 c 1
 91 442 l 1
217 442 m 1
 217 457 215 601 215 610 c 0
 215 632 242 660 272 660 c 0
 294 660 304 648 304 635 c 0
 304 623 283 557 245 446 c 1
 217 442 l 1
EndSplineSet
Validated: 1
EndChar

StartChar: numbersign
Encoding: 35 35 5
Width: 456
GlyphClass: 2
Flags: W
HStem: 192 53<29 104 160 257 313 390> 360 53<79 155 211 307 363 441>
LayerCount: 2
Fore
SplineSet
456 413 m 1
 441 360 l 1
 347 360 l 1
 313 245 l 1
 406 245 l 1
 390 192 l 1
 297 192 l 1
 249 30 l 1
 209 30 l 1
 257 192 l 1
 144 192 l 1
 95 30 l 1
 56 30 l 1
 104 192 l 1
 12 192 l 1
 29 245 l 1
 120 245 l 1
 155 360 l 1
 64 360 l 1
 79 413 l 1
 171 413 l 1
 215 560 l 1
 255 560 l 1
 211 413 l 1
 323 413 l 1
 367 560 l 1
 407 560 l 1
 363 413 l 1
 456 413 l 1
194 360 m 1
 160 245 l 1
 273 245 l 1
 307 360 l 1
 194 360 l 1
EndSplineSet
Validated: 1
Substitution2: "'sups' Superscript in Latin lookup 11 subtable" numbersign.sups
Substitution2: "'smcp' Lowercase to Small Capitals in Latin lookup 1 subtable" numbersign.smcp
EndChar

StartChar: dollar
Encoding: 36 36 6
Width: 413
GlyphClass: 2
Flags: W
HStem: -10 21G<135.922 139> 41 34<102.277 142 186 253.547> 589 31<205.165 252 297 316.38>
VStem: 18 30<137.278 191.815> 74 66<427.01 524.074> 308 78<150.996 257.623> 366 29<482.244 532.81>
LayerCount: 2
Fore
SplineSet
197 313 m 1xfc
 133 341 74 367 74 445 c 0
 74 540 160 616 259 620 c 1
 269 666 l 1
 281 670 296 670 307 670 c 1
 297 619 l 1
 351 616 353 603 395 597 c 1
 394 580 394 565 394 552 c 0
 394 530 395 511 395 485 c 1
 386 480 375 480 366 480 c 1xfa
 358 528 344 572 290 585 c 1
 247 376 l 1
 319 344 386 315 386 232 c 0
 386 140 301 44 180 40 c 1
 170 -5 l 1
 158 -9 146 -10 132 -10 c 1
 142 41 l 1
 87 45 65 60 18 60 c 1
 19 80 20 98 20 117 c 0
 20 138 19 160 18 190 c 1
 28 193 38 195 48 195 c 1
 54 123 89 85 149 75 c 1
 197 313 l 1xfc
186 73 m 1
 287 75 308 156 308 197 c 0xfc
 308 248 277 275 232 297 c 1
 186 73 l 1
252 589 m 1
 203 588 140 537 140 478 c 0
 140 435 172 412 212 392 c 1
 252 589 l 1
EndSplineSet
Validated: 1
Substitution2: "'smcp' Lowercase to Small Capitals in Latin lookup 1 subtable" dollar.smcp
EndChar

StartChar: percent
Encoding: 37 37 7
Width: 542
GlyphClass: 2
Flags: W
HStem: -19 29<387.157 452.488> -14 21G<44 107.05> 218 32<417.282 484.76> 297 29<119.989 186.227> 478 37<266.165 442.93> 533 32<152.214 219.826>
VStem: 51 52<339.1 482.081> 235 31<390.203 498.175> 316 52<22.8957 166.807> 500 30<74.7227 201.139>
LayerCount: 2
Fore
SplineSet
368 83 m 0xbfc0
 368 34 393 10 417 10 c 0
 471 10 500 95 500 150 c 0
 500 158 499 218 452 218 c 0
 405 218 368 140 368 83 c 0xbfc0
412 -19 m 0
 349 -19 316 42 316 99 c 0
 316 173 369 250 440 250 c 0
 468 250 530 240 530 150 c 0
 530 82 491 -19 412 -19 c 0
148 297 m 0
 83 297 51 359 51 414 c 0
 51 488 105 565 175 565 c 0
 203 565 231 552 242 540 c 1
 297 515 332 515 350 515 c 0
 392 515 459 525 498 569 c 1
 542 548 l 1
 91 -14 l 1x7fc0
 44 -5 l 1
 445 497 l 1
 407 481 372 478 343 478 c 0
 319 478 281 488 261 499 c 1
 264 488 266 478 266 466 c 0
 266 400 228 297 148 297 c 0
103 399 m 0
 103 393 103 326 152 326 c 0
 204 326 235 407 235 465 c 0
 235 481 231 533 186 533 c 0
 140 533 103 456 103 399 c 0
EndSplineSet
Validated: 1
Substitution2: "'smcp' Lowercase to Small Capitals in Latin lookup 1 subtable" percent.smcp
EndChar

StartChar: ampersand
Encoding: 38 38 8
Width: 653
GlyphClass: 2
Flags: W
HStem: -10 46<433.857 507.533> -10 38<123.645 238.803> 368 32<470.703 492.993 551.005 650.846> 538 32<281.076 357.891>
VStem: 12 85<52.0874 184.845> 182 64<365.121 511.397> 374 65<438.043 527.47>
LayerCount: 2
Fore
SplineSet
321 538 m 0x3e
 320 538 246 534 246 445 c 0
 246 428 249 400 261 364 c 1
 292 383 374 436 374 488 c 0
 374 520 343 538 321 538 c 0x3e
97 118 m 0
 97 63 127 28 174 28 c 0x7e
 210 28 258 49 312 103 c 1
 273 160 239 231 215 295 c 1
 191 280 97 215 97 118 c 0
201 338 m 1
 196 352 182 395 182 440 c 0
 182 508 215 570 331 570 c 0
 381 570 439 541 439 490 c 0
 439 444 391 385 276 323 c 1
 298 267 328 210 360 157 c 1
 439 248 493 321 493 352 c 0
 493 366 483 367 474 368 c 0
 471 368 470 372 470 377 c 0
 470 386 474 400 479 400 c 0
 518 400 515 396 558 396 c 0
 602 396 611 400 647 400 c 0
 650 400 651 394 651 387 c 0
 651 379 648 369 640 368 c 0
 592 364 569 364 551 352 c 0
 522 332 461 212 387 120 c 1
 422 68 448 36 466 36 c 0
 495 36 517 50 540 85 c 1
 549 85 553 82 557 77 c 1
 527 15 485 -10 454 -10 c 0xbe
 414 -10 377 18 338 68 c 1
 282 13 219 -10 162 -10 c 0
 78 -10 12 40 12 112 c 0
 12 173 61 256 201 338 c 1
EndSplineSet
Validated: 1
Substitution2: "'smcp' Lowercase to Small Capitals in Latin lookup 1 subtable" ampersand.smcp
EndChar

StartChar: quotesingle
Encoding: 39 39 9
Width: 236
GlyphClass: 2
Flags: W
HStem: 442 218
VStem: 89 89<558.398 646.769>
LayerCount: 2
Fore
SplineSet
91 442 m 1
 91 457 89 601 89 610 c 0
 89 632 116 660 146 660 c 0
 168 660 178 648 178 635 c 0
 178 623 157 557 119 446 c 1
 91 442 l 1
EndSplineSet
Validated: 1
EndChar

StartChar: parenleft
Encoding: 40 40 10
Width: 322
GlyphClass: 2
Flags: W
VStem: 39 76<37.1367 353.46>
LayerCount: 2
Fore
SplineSet
306 693 m 1
 315 688 317 679 320 670 c 1
 183 558 115 363 115 168 c 0
 115 35 147 -99 209 -206 c 1
 204 -215 197 -220 186 -218 c 1
 69 -62 39 91 39 208 c 0
 39 511 223 648 306 693 c 1
EndSplineSet
Validated: 1
Substitution2: "'smcp' Lowercase to Small Capitals in Latin lookup 1 subtable" parenleft.smcp
EndChar

StartChar: parenright
Encoding: 41 41 11
Width: 322
GlyphClass: 2
Flags: W
VStem: 209 74<190.562 491.327>
LayerCount: 2
Fore
SplineSet
131 710 m 1
 183 659 283 537 283 343 c 0
 283 252 258 -4 2 -200 c 1
 -9 -199 -15 -192 -17 -182 c 1
 129 -39 209 170 209 365 c 0
 209 487 178 602 112 693 c 1
 117 701 121 708 131 710 c 1
EndSplineSet
Validated: 1
Substitution2: "'smcp' Lowercase to Small Capitals in Latin lookup 1 subtable" parenright.smcp
EndChar

StartChar: asterisk
Encoding: 42 42 12
Width: 354
GlyphClass: 2
Flags: W
HStem: 498 57<85.8219 158.609> 577 54<264.884 338.129> 602 57<101.618 160.694>
VStem: 170 56<431.917 522.157> 197 56<600.234 698.029>
LayerCount: 2
Fore
SplineSet
225 699 m 0xa8
 229 699 253 698 253 669 c 0xa8
 253 642 232 608 223 576 c 1
 252 594 268 617 290 626 c 0
 298 629 306 631 312 631 c 0
 329 631 339 621 339 605 c 0
 339 597 335 585 315 577 c 0
 294 569 259 568 232 562 c 1
 257 549 289 539 307 525 c 0
 318 516 324 507 324 498 c 0
 324 489 316 472 299 472 c 0
 294 472 283 474 270 484 c 0
 251 499 242 526 219 551 c 1
 219 527 226 497 226 474 c 0xd0
 226 467 226 431 197 431 c 0xc8
 187 431 170 435 170 463 c 0xd0
 170 494 192 514 204 552 c 1
 179 537 152 511 129 502 c 0
 122 499 116 498 111 498 c 0
 88 498 84 523 84 525 c 0
 84 535 92 547 112 555 c 0
 135 564 165 557 201 566 c 1
 169 585 139 587 119 602 c 0
 107 611 100 622 100 633 c 0
 100 645 112 659 126 659 c 0
 129 659 137 658 150 648 c 0
 169 633 188 601 208 580 c 1
 207 610 197 634 197 655 c 0
 197 673 205 699 225 699 c 0xa8
EndSplineSet
Validated: 1
Substitution2: "'sups' Superscript in Latin lookup 11 subtable" asterisk.sups
EndChar

StartChar: plus
Encoding: 43 43 13
Width: 380
GlyphClass: 2
Flags: W
HStem: 196 50<35 189 247 399.63> 390 20G<246 255>
LayerCount: 2
Fore
SplineSet
216 384 m 2
 218 397 241 410 251 410 c 0
 259 410 265 406 268 396 c 1
 247 246 l 1
 392 246 l 2
 397 246 404 244 404 229 c 0
 404 219 385 196 372 196 c 2
 239 196 l 1
 220 56 l 2
 219 44 199 32 184 32 c 0
 176 32 170 38 168 47 c 2
 189 196 l 1
 45 196 l 2
 34 196 32 209 32 213 c 0
 32 228 50 246 62 246 c 2
 197 246 l 1
 216 384 l 2
EndSplineSet
Validated: 1
EndChar

StartChar: comma
Encoding: 44 44 14
Width: 230
GlyphClass: 2
Flags: W
HStem: -133 24<33.5165 60.885>
VStem: 131 45<-53.6161 55.5>
LayerCount: 2
Fore
SplineSet
131 -23 m 0
 131 16 61 -13 61 39 c 0
 61 70 87 95 121 95 c 0
 133 95 176 90 176 21 c 0
 176 -59 111 -119 37 -133 c 1
 32 -126 32 -119 32 -109 c 1
 85 -96 131 -50 131 -23 c 0
EndSplineSet
Validated: 1
EndChar

StartChar: hyphen
Encoding: 45 45 15
Width: 262
GlyphClass: 2
Flags: W
HStem: 196 50<38.7964 282.63>
VStem: 36 250<199.709 243.532>
LayerCount: 2
Fore
SplineSet
253 196 m 2
 49 196 l 2
 42 196 36 200 36 213 c 0
 36 230 55 246 67 246 c 2
 274 246 l 2
 278 246 286 246 286 228 c 0
 286 216 266 196 253 196 c 2
EndSplineSet
Validated: 1
Substitution2: "'case' Case-Sensitive Forms in Latin lookup 7 subtable" hyphen.cap
EndChar

StartChar: period
Encoding: 46 46 16
Width: 230
GlyphClass: 2
Flags: W
HStem: -10 106<74.875 153.649>
VStem: 61 108<4.98447 82.25>
LayerCount: 2
Fore
SplineSet
121 96 m 0
 148 96 169 75 169 49 c 0
 169 18 140 -10 109 -10 c 0
 82 -10 61 10 61 37 c 0
 61 64 82 96 121 96 c 0
EndSplineSet
Validated: 1
EndChar

StartChar: slash
Encoding: 47 47 17
Width: 392
GlyphClass: 2
Flags: W
LayerCount: 2
Fore
SplineSet
390 646 m 1
 54 -59 l 1
 0 -59 l 1
 338 646 l 1
 390 646 l 1
EndSplineSet
Validated: 1
EndChar

StartChar: zero
Encoding: 48 48 18
Width: 442
GlyphClass: 2
Flags: HMW
HStem: -10 31<154 210.5 154 228.5> 377 33<189 249.5>
VStem: 18 83 306 82
LayerCount: 2
Fore
SplineSet
228 377 m 0
 150 377 96 252 96 144 c 0
 96 61 133 21 175 21 c 0
 246 21 309 124 309 247 c 0
 309 333 271 377 228 377 c 0
14 156 m 0
 14 297 112 410 234 410 c 0
 317 410 391 353 391 241 c 0
 391 98 288 -10 169 -10 c 0
 87 -10 14 44 14 156 c 0
EndSplineSet
Validated: 1
Substitution2: "'subs' Subscript in Latin lookup 13-1" uni2080
Substitution2: "'sups' Superscript in Latin lookup 11 subtable" uni2070
Substitution2: "'onum' Oldstyle Figures in Latin lookup 10 subtable" zero.onum
Substitution2: "'lnum' Lining Figures in Latin lookup 0 subtable" zero.lnum
EndChar

StartChar: one
Encoding: 49 49 19
Width: 324
GlyphClass: 2
Flags: HMW
HStem: 0 32<20 23 20 37.5> 310 31
VStem: 134 76
LayerCount: 2
Fore
SplineSet
125 326 m 0
 111 326 89 320 56 310 c 1
 48 315 47 332 46 341 c 1
 136 366 180 385 238 415 c 0
 242 415 244 415 244 411 c 0
 244 401 231 360 225 315 c 2
 209 200 l 2
 201 144 192 79 192 64 c 0
 192 37 206 36 247 32 c 0
 250 32 252 28 252 22 c 0
 252 13 249 0 243 0 c 0
 208 0 180 4 142 4 c 0
 101 4 56 0 19 0 c 0
 16 0 14 4 14 10 c 0
 14 19 17 32 23 32 c 0
 87 37 104 37 113 80 c 0
 123 130 125 141 133 199 c 2
 146 296 l 2
 146 315 135 326 125 326 c 0
EndSplineSet
Validated: 1
Substitution2: "'subs' Subscript in Latin lookup 13-1" uni2081
Substitution2: "'sups' Superscript in Latin lookup 11 subtable" uni00B9
Substitution2: "'onum' Oldstyle Figures in Latin lookup 10 subtable" one.onum
Substitution2: "'lnum' Lining Figures in Latin lookup 0 subtable" one.lnum
EndChar

StartChar: two
Encoding: 50 50 20
Width: 406
GlyphClass: 2
Flags: W
HStem: -10 21G<25 47> 0 57<127 315> 378 32<159.333 250.515>
VStem: 78 59<306.303 361.287> 274 81<240.119 360.474>
LayerCount: 2
Fore
SplineSet
355 313 m 0xb8
 355 226 289 179 127 61 c 1
 179 61 214 57 255 57 c 0
 295 57 313 75 338 129 c 1
 351 129 358 128 365 124 c 1
 348 87 327 38 324 16 c 0
 323 9 319 0 315 0 c 0x78
 276 0 187 4 117 4 c 0
 78 4 61 -10 33 -10 c 0
 17 -10 14 -5 14 2 c 0
 14 56 274 154 274 309 c 0
 274 356 238 378 205 378 c 0
 176 378 149 362 137 331 c 0
 131 316 123 305 106 305 c 0
 89 305 78 316 78 331 c 0
 78 374 154 410 225 410 c 0
 294 410 355 380 355 313 c 0xb8
EndSplineSet
Validated: 1
Substitution2: "'subs' Subscript in Latin lookup 13-1" uni2082
Substitution2: "'sups' Superscript in Latin lookup 11 subtable" uni00B2
Substitution2: "'onum' Oldstyle Figures in Latin lookup 10 subtable" two.onum
Substitution2: "'lnum' Lining Figures in Latin lookup 0 subtable" two.lnum
EndChar

StartChar: three
Encoding: 51 51 21
Width: 371
GlyphClass: 2
Flags: W
HStem: -115 23<-1.03101 26.6668> 180 19<158 187.751> 378 32<158.2 243.319>
VStem: 75 60<306.506 361.484> 247 83<81.3395 161.938> 260 77<254.592 366.951>
LayerCount: 2
Fore
SplineSet
148 199 m 1xf8
 228 206 260 262 260 315 c 0
 260 350 244 378 202 378 c 0
 173 378 147 362 135 331 c 0
 129 316 120 305 103 305 c 0
 86 305 75 316 75 331 c 0
 75 374 151 410 222 410 c 0
 299 410 337 366 337 319 c 0xf4
 337 278 306 215 238 205 c 1
 301 202 330 178 330 143 c 0
 330 73 220 -51 7 -115 c 1
 1 -112 -2 -104 -2 -96 c 2
 -2 -92 l 1
 170 -35 247 68 247 122 c 0
 247 156 216 179 158 180 c 1
 148 199 l 1xf8
EndSplineSet
Validated: 1
Substitution2: "'subs' Subscript in Latin lookup 13-1" uni2083
Substitution2: "'sups' Superscript in Latin lookup 11 subtable" uni00B3
Substitution2: "'onum' Oldstyle Figures in Latin lookup 10 subtable" three.onum
Substitution2: "'lnum' Lining Figures in Latin lookup 0 subtable" three.lnum
EndChar

StartChar: four
Encoding: 52 52 22
Width: 406
GlyphClass: 2
Flags: HMW
HStem: 0 32<159 162 159 175.5> 132 38<70.5 231 109 226 305 348>
VStem: 28 54 211 74
LayerCount: 2
Fore
SplineSet
109 170 m 2
 231 170 l 1
 234 189 l 1
 310 264 l 1
 317 255 l 1
 305 170 l 1
 367 170 l 2
 376 170 380 165 380 159 c 0
 380 148 367 132 348 132 c 2
 300 132 l 1
 294 90 l 2
 292 79 291 70 291 63 c 0
 291 38 303 36 336 32 c 0
 339 32 340 28 340 22 c 0
 340 13 337 0 331 0 c 0
 296 0 271 4 245 4 c 0
 216 4 194 0 157 0 c 0
 154 0 152 4 152 10 c 0
 152 19 156 32 162 32 c 0
 206 37 213 39 220 90 c 2
 226 132 l 1
 83 132 l 2
 58 132 46 141 46 154 c 0
 46 221 156 195 269 438 c 0
 295 493 317 512 331 512 c 0
 342 512 348 500 348 484 c 0
 348 479 348 469 342 455 c 0
 268 290 103 181 103 176 c 0
 103 171 103 170 109 170 c 2
EndSplineSet
Validated: 1
Substitution2: "'subs' Subscript in Latin lookup 13-1" uni2084
Substitution2: "'sups' Superscript in Latin lookup 11 subtable" uni2074
Substitution2: "'onum' Oldstyle Figures in Latin lookup 10 subtable" four.onum
Substitution2: "'lnum' Lining Figures in Latin lookup 0 subtable" four.lnum
EndChar

StartChar: five
Encoding: 53 53 23
Width: 368
GlyphClass: 2
Flags: HMW
HStem: -120 34 175 45 346 50
VStem: 267 80
LayerCount: 2
Fore
SplineSet
60 202 m 1
 85 269 115 376 118 394 c 0
 119 401 123 410 127 410 c 0
 162 410 193 406 231 406 c 0
 272 406 305 410 342 410 c 0
 344 410 347 406 347 398 c 0
 347 390 344 378 334 360 c 1
 293 356 282 356 253 356 c 0
 206 356 204 356 169 360 c 1
 129 234 l 1
 250 234 301 191 301 132 c 0
 301 43 183 -53 -9 -115 c 1
 -15 -112 -18 -104 -18 -96 c 2
 -18 -92 l 2
 -15 -91 220 -12 220 113 c 0
 220 164 170 202 60 202 c 1
EndSplineSet
Validated: 1
Substitution2: "'subs' Subscript in Latin lookup 13-1" uni2085
Substitution2: "'sups' Superscript in Latin lookup 11 subtable" uni2075
Substitution2: "'onum' Oldstyle Figures in Latin lookup 10 subtable" five.onum
Substitution2: "'lnum' Lining Figures in Latin lookup 0 subtable" five.lnum
EndChar

StartChar: six
Encoding: 54 54 24
Width: 420
GlyphClass: 2
Flags: W
HStem: -10 32<135.568 220.148> 229 32<182 236.859> 492 23<365.472 385.031>
VStem: 14 80<62.9128 245.512> 282 80<84.2122 198.154>
LayerCount: 2
Fore
SplineSet
362 152 m 0
 362 77 276 -10 171 -10 c 0
 71 -10 14 57 14 146 c 0
 14 271 129 440 377 515 c 1
 383 512 386 504 386 496 c 2
 386 492 l 1
 354 482 94 392 94 153 c 0
 94 79 127 22 177 22 c 0
 228 22 282 88 282 146 c 0
 282 191 250 229 156 229 c 1
 182 261 l 1
 311 261 362 209 362 152 c 0
EndSplineSet
Validated: 1
Substitution2: "'subs' Subscript in Latin lookup 13-1" uni2086
Substitution2: "'sups' Superscript in Latin lookup 11 subtable" uni2076
Substitution2: "'onum' Oldstyle Figures in Latin lookup 10 subtable" six.onum
Substitution2: "'lnum' Lining Figures in Latin lookup 0 subtable" six.lnum
EndChar

StartChar: seven
Encoding: 55 55 25
Width: 406
GlyphClass: 2
Flags: HMW
HStem: 338 58<129.5 272 181.5 272 181.5 299>
VStem: 71 74
LayerCount: 2
Fore
SplineSet
30 276 m 1
 64 358 61 400 72 400 c 0
 107 400 137 396 226 396 c 0
 318 396 337 400 374 400 c 0
 378 400 379 391 379 384 c 0
 379 363 238 233 126 -109 c 1
 59 -115 l 1
 53 -99 l 1
 128 85 190 208 299 338 c 1
 145 338 l 2
 114 338 91 334 60 273 c 1
 49 273 41 274 30 276 c 1
EndSplineSet
Validated: 1
Substitution2: "'subs' Subscript in Latin lookup 13-1" uni2087
Substitution2: "'sups' Superscript in Latin lookup 11 subtable" uni2077
Substitution2: "'onum' Oldstyle Figures in Latin lookup 10 subtable" seven.onum
Substitution2: "'lnum' Lining Figures in Latin lookup 0 subtable" seven.lnum
EndChar

StartChar: eight
Encoding: 56 56 26
Width: 408
GlyphClass: 2
Flags: HMW
HStem: -10 34<140 195.5 140 210> 476 34<206 256>
VStem: 40 77 67 66 262 66 286 78
LayerCount: 2
Fore
SplineSet
206 289 m 1xc0
 249 310 292 376 292 424 c 0
 292 454 276 476 236 476 c 0
 176 476 147 432 147 384 c 0
 147 344 167 303 206 289 c 1xc0
357 424 m 0
 357 368 311 303 235 274 c 1
 320 246 355 198 355 150 c 0
 355 71 263 -10 157 -10 c 0
 64 -10 14 42 14 103 c 0
 14 116 19 217 165 265 c 1
 104 294 79 334 79 373 c 0
 79 442 157 510 246 510 c 0
 324 510 357 471 357 424 c 0
190 252 m 1
 125 223 92 159 92 107 c 0
 92 62 116 24 164 24 c 0
 227 24 276 81 276 141 c 0
 276 184 251 227 190 252 c 1
EndSplineSet
Validated: 1
Substitution2: "'subs' Subscript in Latin lookup 13-1" uni2088
Substitution2: "'sups' Superscript in Latin lookup 11 subtable" uni2078
Substitution2: "'onum' Oldstyle Figures in Latin lookup 10 subtable" eight.onum
Substitution2: "'lnum' Lining Figures in Latin lookup 0 subtable" eight.lnum
EndChar

StartChar: nine
Encoding: 57 57 27
Width: 422
GlyphClass: 2
Flags: HMW
HStem: -115 23 139 32<195 216> 378 32<195.5 245.5>
VStem: 21 78 297 76
LayerCount: 2
Fore
SplineSet
36 248 m 0
 36 323 122 410 227 410 c 0
 328 410 385 340 385 250 c 0
 385 127 278 -37 21 -115 c 1
 15 -112 12 -104 12 -96 c 2
 12 -92 l 1
 65 -75 307 15 307 240 c 0
 307 318 270 378 221 378 c 0
 170 378 115 314 115 256 c 0
 115 211 148 171 242 171 c 1
 216 139 l 1
 87 139 36 190 36 248 c 0
EndSplineSet
Validated: 1
Substitution2: "'subs' Subscript in Latin lookup 13-1" uni2089
Substitution2: "'sups' Superscript in Latin lookup 11 subtable" uni2079
Substitution2: "'onum' Oldstyle Figures in Latin lookup 10 subtable" nine.onum
Substitution2: "'lnum' Lining Figures in Latin lookup 0 subtable" nine.lnum
EndChar

StartChar: colon
Encoding: 58 58 28
Width: 230
GlyphClass: 2
Flags: W
HStem: 7 106<74.875 153.649> 257 106<110.875 189.649>
VStem: 61 108<21.9845 99.25> 97 108<271.984 349.25>
LayerCount: 2
Fore
SplineSet
157 363 m 0xd0
 184 363 205 342 205 316 c 0
 205 285 176 257 145 257 c 0
 118 257 97 277 97 304 c 0
 97 331 118 363 157 363 c 0xd0
121 113 m 0
 148 113 169 92 169 66 c 0
 169 35 140 7 109 7 c 0
 82 7 61 27 61 54 c 0xe0
 61 81 82 113 121 113 c 0
EndSplineSet
Validated: 1
Substitution2: "'case' Case-Sensitive Forms in Latin lookup 7 subtable" colon.cap
EndChar

StartChar: semicolon
Encoding: 59 59 29
Width: 230
GlyphClass: 2
Flags: W
HStem: -133 24<33.5165 60.885> 257 106<110.875 189.649>
VStem: 97 108<271.984 349.25> 131 45<-53.6161 55.5>
LayerCount: 2
Fore
SplineSet
131 -23 m 0xd0
 131 16 61 -13 61 39 c 0
 61 70 87 95 121 95 c 0
 133 95 176 90 176 21 c 0
 176 -59 111 -119 37 -133 c 1
 32 -126 32 -119 32 -109 c 1
 85 -96 131 -50 131 -23 c 0xd0
157 363 m 0
 184 363 205 342 205 316 c 0
 205 285 176 257 145 257 c 0
 118 257 97 277 97 304 c 0xe0
 97 331 118 363 157 363 c 0
EndSplineSet
Validated: 1
EndChar

StartChar: less
Encoding: 60 60 30
Width: 416
GlyphClass: 2
Flags: W
LayerCount: 2
Fore
SplineSet
107 220 m 1
 360 104 l 2
 362 102 367 95 367 82 c 0
 367 70 362 56 353 52 c 1
 30 194 l 2
 29 196 26 201 26 210 c 0
 26 219 30 235 38 246 c 1
 400 387 l 1
 405 384 408 377 408 370 c 0
 408 358 401 343 393 335 c 1
 107 220 l 1
EndSplineSet
Validated: 1
EndChar

StartChar: equal
Encoding: 61 61 31
Width: 440
GlyphClass: 2
Flags: W
HStem: 113 50<29 403.843> 279 50<52 427.63>
LayerCount: 2
Fore
SplineSet
400 279 m 2
 62 279 l 2
 50 279 49 294 49 296 c 0
 49 311 67 329 79 329 c 2
 420 329 l 2
 426 329 432 326 432 312 c 0
 432 302 413 279 400 279 c 2
377 113 m 2
 39 113 l 2
 27 113 26 128 26 130 c 0
 26 145 44 163 56 163 c 2
 397 163 l 2
 400 163 408 163 408 146 c 0
 408 136 390 113 377 113 c 2
EndSplineSet
Validated: 1
EndChar

StartChar: greater
Encoding: 62 62 32
Width: 416
GlyphClass: 2
Flags: W
LayerCount: 2
Fore
SplineSet
327 220 m 1
 73 335 l 2
 70 338 67 344 67 355 c 0
 67 364 69 383 80 387 c 1
 404 246 l 2
 405 243 408 234 408 226 c 0
 408 213 401 200 396 194 c 2
 33 52 l 2
 31 53 26 57 26 68 c 0
 26 79 31 96 40 104 c 1
 327 220 l 1
EndSplineSet
Validated: 1
EndChar

StartChar: question
Encoding: 63 63 33
Width: 406
GlyphClass: 2
Flags: W
HStem: -10 106<97.875 176.649> 627 33<157.437 271.758>
VStem: 49 72<505.161 579.87> 84 108<4.98447 82.25> 306 84<451.753 598.871>
LayerCount: 2
Fore
SplineSet
121 561 m 0xe8
 121 543 129 548 129 532 c 0
 129 512 116 487 85 487 c 0
 76 487 49 490 49 521 c 0
 49 574 116 660 241 660 c 0
 272 660 390 652 390 531 c 0
 390 438 318 391 257 351 c 0
 202 314 188 297 179 228 c 2
 173 184 l 2
 172 177 163 174 155 174 c 0
 147 174 139 177 140 184 c 2
 147 230 l 2
 153 273 161 332 234 391 c 0
 259 412 306 450 306 525 c 3
 306 533 304 627 227 627 c 0
 226 627 121 626 121 561 c 0xe8
144 96 m 0
 171 96 192 75 192 49 c 0
 192 18 163 -10 132 -10 c 0
 105 -10 84 10 84 37 c 0xd8
 84 64 105 96 144 96 c 0
EndSplineSet
Validated: 1
EndChar

StartChar: at
Encoding: 64 64 34
Width: 822
GlyphClass: 2
Flags: W
HStem: -160 35<297.433 479.405> 27 35<483 614.889> 29 41<316.817 395.396> 379 31<436.57 535.692> 580 30<341.419 539.661>
VStem: 21 76<81.1816 330.641> 229 74<83.7667 218.966> 460 69<47.5 132.478> 739 83<198.335 398.813>
LayerCount: 2
Fore
SplineSet
303 140 m 0xbf80
 303 114 307 70 370 70 c 0
 441 70 551 265 551 327 c 0
 551 355 530 379 494 379 c 0
 396 379 303 248 303 140 c 0xbf80
335 29 m 0
 313 29 229 35 229 134 c 0
 229 250 366 410 500 410 c 0
 533 410 565 393 571 367 c 1
 579 391 l 1
 635 404 l 1
 649 399 l 1
 551 141 l 2
 542 114 529 81 529 74 c 0
 529 69 531 62 539 62 c 0
 672 62 739 169 739 286 c 0
 739 426 642 580 443 580 c 0
 211 580 97 394 97 213 c 0
 97 41 200 -125 399 -125 c 0
 469 -125 543 -103 602 -61 c 1
 612 -79 l 1
 531 -135 444 -160 368 -160 c 0
 142 -160 21 16 21 200 c 0
 21 401 165 610 472 610 c 0
 699 610 822 453 822 302 c 0
 822 162 716 27 490 27 c 0
 476 27 460 33 460 62 c 0xdf80
 460 71 462 84 483 128 c 1
 479 129 l 1
 428 55 370 29 335 29 c 0
EndSplineSet
Validated: 1
Substitution2: "'smcp' Lowercase to Small Capitals in Latin lookup 1 subtable" at.smcp
EndChar

StartChar: A
Encoding: 65 65 35
Width: 686
GlyphClass: 2
Flags: W
HStem: 0 32<-9.78027 51.503 138.428 190.78 428.22 497.763 614.591 673.78> 244 40<253.808 456> 555 111<383.522 428>
LayerCount: 2
Fore
SplineSet
155 102 m 2
 143 80 137 65 137 55 c 0
 137 39 153 36 187 32 c 0
 190 32 191 27 191 20 c 0
 191 11 188 0 182 0 c 0
 137 0 135 4 89 4 c 0
 43 4 39 0 -6 0 c 0
 -9 0 -10 5 -10 12 c 0
 -10 21 -7 32 -1 32 c 0
 53 38 58 47 89 102 c 0
 165 233 165 233 382 642 c 0
 389 657 405 666 421 666 c 0
 435 666 448 659 452 642 c 0
 506 413 552 233 591 102 c 0
 607 46 609 38 670 32 c 0
 673 32 674 27 674 20 c 0
 674 11 671 0 665 0 c 0
 620 0 596 4 550 4 c 0
 504 4 477 0 432 0 c 0
 429 0 428 5 428 12 c 0
 428 21 431 32 437 32 c 0
 487 37 503 41 503 65 c 0
 503 75 500 88 497 102 c 2
 466 244 l 1
 256 244 l 2
 232 244 228 242 220 226 c 2
 155 102 l 2
276 284 m 2
 456 284 l 1
 399 542 l 2
 397 551 395 555 393 555 c 0
 391 555 389 551 384 542 c 2
 257 298 l 2
 255 294 253 290 253 288 c 0
 253 284 259 284 276 284 c 2
EndSplineSet
Validated: 1
Substitution2: "'c2sc' Capitals to Small Capitals in Latin lookup 2 subtable" A.c2sc
EndChar

StartChar: B
Encoding: 66 66 36
Width: 608
GlyphClass: 2
Flags: W
HStem: -11 39<212.777 395.845> 0 32<2.21973 78.2768> 332 38<225 352.036> 618 32<89.1426 158.645> 621 39<273.417 409.548>
VStem: 463 82<434.976 569.875> 473 96<102.946 246.377>
LayerCount: 2
Fore
SplineSet
377 349 m 1x2c
 422 341 569 305 569 175 c 0
 569 82 483 -11 354 -11 c 0xaa
 234 -11 183 4 132 4 c 0
 86 4 52 0 7 0 c 0
 4 0 2 5 2 12 c 0
 2 21 5 32 11 32 c 0
 82 38 85 39 98 102 c 0
 99 107 163 485 163 581 c 0
 163 610 154 613 95 618 c 0
 91 618 89 624 89 631 c 0
 89 640 92 650 99 650 c 0x72
 144 650 176 646 222 646 c 0
 268 646 280 660 350 660 c 0
 474 660 545 577 545 497 c 0
 545 428 492 361 378 351 c 1
 377 349 l 1x2c
329 28 m 0
 407 28 473 102 473 178 c 0
 473 214 455 330 220 332 c 1
 220 330 192 116 192 87 c 0
 192 42 233 28 329 28 c 0
463 494 m 0x2c
 463 563 418 621 346 621 c 0
 275 621 267 611 255 548 c 0
 244 490 235 437 225 370 c 1
 404 371 463 432 463 494 c 0x2c
EndSplineSet
Validated: 1
Substitution2: "'c2sc' Capitals to Small Capitals in Latin lookup 2 subtable" B.c2sc
EndChar

StartChar: C
Encoding: 67 67 37
Width: 624
GlyphClass: 2
Flags: W
HStem: -10 35<254.412 422.576> 624 36<306.884 477.106>
VStem: 39 96<172.96 428.313> 587 35<457.59 513.083>
LayerCount: 2
Fore
SplineSet
333 -10 m 0
 195 -10 39 76 39 300 c 0
 39 536 213 660 378 660 c 0
 575 660 541 622 620 614 c 1
 619 599 619 584 619 570 c 0
 619 533 621 498 622 460 c 1
 610 455 599 454 587 454 c 1
 573 540 522 624 384 624 c 0
 264 624 135 507 135 292 c 0
 135 253 143 27 329 25 c 0
 401 25 465 54 528 108 c 1
 544 101 548 89 552 71 c 1
 484 15 412 -10 333 -10 c 0
EndSplineSet
Validated: 1
Substitution2: "'c2sc' Capitals to Small Capitals in Latin lookup 2 subtable" C.c2sc
EndChar

StartChar: D
Encoding: 68 68 38
Width: 670
GlyphClass: 2
Flags: W
HStem: -10 40<189.331 400.867> 0 32<2.2219 64.3216> 620 40<258.445 422.625> 620 26<89.0554 139.467 265.25 311.42>
VStem: 564 92<223.188 463.976>
LayerCount: 2
Fore
SplineSet
564 339 m 0xa8
 564 482 489 620 330 620 c 0
 268 620 250 611 238 548 c 0
 237 543 174 174 174 90 c 0
 174 33 218 30 307 30 c 0
 480 30 564 188 564 339 c 0xa8
82 102 m 0
 83 107 147 500 147 580 c 0
 147 611 139 613 95 618 c 0
 91.025390625 618.451171875 89 624 89 631 c 0
 89 640 92 650 99 650 c 0
 144 650 160 646 206 646 c 0x58
 252 646 289 660 334 660 c 0
 537 660 656 530 656 348 c 0
 656 173 536 -10 312 -10 c 0xa8
 240 -10 221 4 116 4 c 0
 70 4 52 0 7 0 c 0
 4 0 2 5 2 12 c 0
 2 21 5.03515625 31.349609375 11 32 c 0x48
 66 38 70 39 82 102 c 0
EndSplineSet
Validated: 1
Substitution2: "'c2sc' Capitals to Small Capitals in Latin lookup 2 subtable" D.c2sc
EndChar

StartChar: E
Encoding: 69 69 39
Width: 550
GlyphClass: 2
Flags: W
HStem: 0 44<175.372 405.316> 0 32<2.2219 65.2653> 331 39<210 370.53> 608 38<250.937 439.595> 618 32<89.1426 140.903>
VStem: 375 33<262.039 323.749> 398 33<389.38 437.994> 470 34<503.53 566.467>
LayerCount: 2
Fore
SplineSet
375 267 m 0x35
 375 322 375 331 300 331 c 0
 273 331 255 330 204 328 c 1
 188 210 175 94 175 72 c 0
 175 46 189 44 220 44 c 2
 333 44 l 2xb5
 409 44 451 98 481 170 c 1
 496 170 499 170 515 164 c 1
 495 120 460 26 460 16 c 0
 460 6 454 0 451 0 c 0
 406 0 367 4 237 4 c 0
 32 4 9 0 7 0 c 0
 4 0 2 5 2 12 c 0
 2 21 5.03515625 31.349609375 11 32 c 0
 66 38 72 39 83 102 c 0
 84 107 146 491 146 577 c 0
 146 610 135 614 95 618 c 0
 91.01953125 618.3984375 89 624 89 631 c 0
 89 640 92 650 99 650 c 0x6d
 101 650 145 646 294 646 c 0x35
 423 646 447 650 492 650 c 0x2d
 496 650 502 640 502 633 c 0
 502 628 500 598 500 567 c 0
 500 556 501 521 504 506 c 1
 493 501 482 501 470 501 c 1
 457 570 451 608 382 608 c 2
 309 608 l 2
 259 608 249 604 239 548 c 0
 228 490 220 438 210 372 c 1
 261 370 278 370 305 370 c 0
 377 370 388 381 398 433 c 0
 402 436 408 438 415 438 c 0
 422 438 429 436 431 433 c 0x33
 421 381 421 381 408 267 c 0
 404 264 397 262 390 262 c 0
 383 262 375 263 375 267 c 0x35
EndSplineSet
Validated: 1
Substitution2: "'c2sc' Capitals to Small Capitals in Latin lookup 2 subtable" E.c2sc
EndChar

StartChar: F
Encoding: 70 70 40
Width: 504
GlyphClass: 2
Flags: W
HStem: 0 32<2.2219 64.4716 180.088 248.857> 331 39<210 368.444> 608 38<250.937 439.595> 618 32<89.1426 140.206>
VStem: 375 33<262.039 320.96> 399 33<390.35 437.994> 470 34<503.53 567.251>
LayerCount: 2
Fore
SplineSet
175 73 m 0xea
 175 38 185 37 243 32 c 0
 247 32 249 26 249 19 c 0
 249 10 246 0 239 0 c 0
 194 0 162 4 116 4 c 0
 70 4 52 0 7 0 c 0
 4 0 2 5 2 12 c 0
 2 21 5.03515625 31.349609375 11 32 c 0
 66 38 70 39 83 102 c 0
 84 107 146 485 146 575 c 0
 146 612 130 614 95 618 c 0
 91.025390625 618.454101562 89 624 89 631 c 0
 89 640 92 650 99 650 c 0xda
 101 650 145 646 294 646 c 0xea
 423 646 447 650 492 650 c 0xda
 496 650 502 641 502 633 c 0
 502 628 501 605 501 579 c 0
 501 578 502 515 504 506 c 1
 493 501 482 501 470 501 c 1
 457 570 451 608 382 608 c 2
 309 608 l 2
 259 608 249 604 239 548 c 0
 228 490 220 438 210 372 c 1
 261 370 278 370 305 370 c 0
 377 370 389 381 399 433 c 0
 402 436 408 438 415 438 c 0
 422 438 429 436 432 433 c 0xe6
 423 384 416 343 408 267 c 0
 405 264 397 262 390 262 c 0
 383 262 375 263 375 267 c 0
 375 317 373 331 300 331 c 0
 273 331 254 330 203 328 c 0
 203 325 175 107 175 73 c 0xea
EndSplineSet
Validated: 1
Substitution2: "'c2sc' Capitals to Small Capitals in Latin lookup 2 subtable" F.c2sc
EndChar

StartChar: G
Encoding: 71 71 41
Width: 645
GlyphClass: 2
Flags: W
HStem: -10 34<253.491 420.331> 264 36<395.037 517.162 608.785 644.963> 624 36<301.027 481.361>
VStem: 39 96<171.282 432.424> 522 51<121.875 201.904> 588 35<457.59 513.614>
LayerCount: 2
Back
SplineSet
332 -10 m 0
 194 -10 39 76 39 300 c 0
 39 536 212 660 377 660 c 0
 574 660 542 622 621 614 c 1
 620 599 620 584 620 570 c 0
 620 533 622 498 623 460 c 1
 611 455 600 454 588 454 c 1
 559 616 441 624 380 624 c 0
 261 624 135 507 135 293 c 0
 135 261 142 24 328 24 c 0
 483 24 503 121 511 159 c 0
 518 192 522 214 522 229 c 0
 522 260 500 261 438 264 c 0
 434 264 432 272 432 280 c 0
 432 290 434 300 439 300 c 0
 484 300 535 296 571 296 c 0
 607 296 607 300 652 300 c 0
 656 300 658 292 658 284 c 0
 658 275 656.026367188 264.858398438 651 264 c 0
 610 257 605 249 586 164 c 0
 577 123 573 103 573 92 c 0
 573 82 576 79 582 72 c 1
 537 35 430 -10 332 -10 c 0
EndSplineSet
Fore
SplineSet
332 -10 m 0
 194 -10 39 76 39 300 c 0
 39 536 212 660 377 660 c 0
 574 660 542 622 621 614 c 1
 620 599 620 584 620 570 c 0
 620 533 622 498 623 460 c 1
 611 455 600 454 588 454 c 1
 559 616 441 624 380 624 c 0
 261 624 135 507 135 293 c 0
 135 261 142 24 328 24 c 0
 483 24 503 121 511 159 c 0
 518 192 522 214 522 229 c 0
 522 260 496 261 401 264 c 0
 397.001992969 264.126252854 395 272 395 280 c 0
 395 290 397 300 402 300 c 0
 447 300 498 296 534 296 c 0
 570 296 594 300 639 300 c 0
 643 300 645 292 645 284 c 0
 645 275 643.099609375 264 638 264 c 3
 608.67578125 264 605 249 586 164 c 0
 577 123 573 103 573 92 c 0
 573 82 576 79 582 72 c 1
 537 35 430 -10 332 -10 c 0
EndSplineSet
Validated: 1
Substitution2: "'c2sc' Capitals to Small Capitals in Latin lookup 2 subtable" G.c2sc
EndChar

StartChar: H
Encoding: 72 72 42
Width: 724
GlyphClass: 2
Flags: W
HStem: 0 32<18.2875 81.7185 195.712 248.859 403.288 466.322 581.061 633.859> 321 42<225 520> 618 32<106.143 160.427 274.132 336.778 491.143 544.561 658.982 721.778>
LayerCount: 2
Fore
SplineSet
549 577 m 0
 549 612 539 613 497 618 c 0
 493.028320312 618.47265625 491 624 491 631 c 0
 491 640 494 650 501 650 c 0
 546 650 562 646 608 646 c 0
 654 646 672 650 717 650 c 0
 720 650 722 645 722 638 c 0
 722 629 718.96484375 618.650390625 713 618 c 0
 658 612 653 611 640 548 c 0
 639 543 577 183 577 78 c 0
 577 39 582 37 629 32 c 0
 631.983398438 31.6826171875 634 26 634 19 c 0
 634 10 631 0 625 0 c 0
 580 0 564 4 518 4 c 0
 472 4 454 0 409 0 c 0
 405 0 403 6 403 12 c 0
 403 21 407.03515625 31.349609375 413 32 c 0
 468 38 472 39 484 102 c 0
 497 171 508 234 520 321 c 1
 219 321 l 1
 219 319 191 106 191 73 c 0
 191 39 202 37 244 32 c 0
 246.978515625 31.6455078125 249 26 249 19 c 0
 249 10 246 0 240 0 c 0
 195 0 179 4 133 4 c 0
 87 4 69 0 24 0 c 0
 20 0 18 6 18 12 c 0
 18 21 22.03515625 31.349609375 28 32 c 0
 83 38 88 39 99 102 c 0
 100 107 164 468 164 578 c 0
 164 612 156 613 112 618 c 0
 108.025390625 618.451171875 106 624 106 631 c 0
 106 640 109 650 116 650 c 0
 161 650 177 646 223 646 c 0
 269 646 287 650 332 650 c 0
 335 650 337 645 337 638 c 0
 337 629 333.96484375 618.650390625 328 618 c 0
 273 612 268 611 256 548 c 0
 245 488 235 433 225 363 c 1
 526 363 l 1
 526 365 549 549 549 577 c 0
EndSplineSet
Validated: 1
Substitution2: "'c2sc' Capitals to Small Capitals in Latin lookup 2 subtable" H.c2sc
EndChar

StartChar: I
Encoding: 73 73 43
Width: 354
GlyphClass: 2
Flags: W
HStem: 0 32<2.21973 79.2205 196.088 264.857> 618 32<89.1426 157.912 274.78 351.78>
LayerCount: 2
Fore
SplineSet
163 577 m 0
 163 612 153 613 95 618 c 0
 91 618 89 624 89 631 c 0
 89 640 92 650 99 650 c 0
 144 650 176 646 222 646 c 0
 268 646 302 650 347 650 c 0
 350 650 352 645 352 638 c 0
 352 629 349 618 343 618 c 0
 272 612 267 611 255 548 c 0
 254 543 191 168 191 73 c 0
 191 38 201 37 259 32 c 0
 263 32 265 26 265 19 c 0
 265 10 262 0 255 0 c 0
 210 0 178 4 132 4 c 0
 86 4 52 0 7 0 c 0
 4 0 2 5 2 12 c 0
 2 21 5 32 11 32 c 0
 82 38 87 39 99 102 c 0
 100 107 163 477 163 577 c 0
EndSplineSet
Validated: 1
Substitution2: "'c2sc' Capitals to Small Capitals in Latin lookup 2 subtable" I.c2sc
EndChar

StartChar: J
Encoding: 74 74 44
Width: 408
GlyphClass: 2
Flags: W
HStem: -183 45<21.5 112.913> 618 32<143.143 238.232 355.432 405.78>
LayerCount: 2
Fore
SplineSet
340 548 m 0
 295 268 255 -32 224 -69 c 0
 167 -136 108 -183 30 -183 c 0
 13 -183 -36 -168 -36 -132 c 0
 -36 -106 -15 -90 8 -90 c 0
 59 -90 48 -138 85 -138 c 0
 185 -138 247 566 247 573 c 0
 247 612 230 614 149 618 c 0
 145 618 143 624 143 631 c 0
 143 640 146 650 153 650 c 0
 198 650 230 646 276 646 c 0
 322 646 356 650 401 650 c 0
 404 650 406 645 406 638 c 0
 406 629 403 619 397 618 c 0
 358 614 350 611 340 548 c 0
EndSplineSet
Validated: 1
Substitution2: "'salt' Stylistic Alternatives in Latin lookup 5 subtable" J.salt
Substitution2: "'c2sc' Capitals to Small Capitals in Latin lookup 2 subtable" J.c2sc
EndChar

StartChar: K
Encoding: 75 75 45
Width: 671
GlyphClass: 2
Flags: W
HStem: 0 32<2.28534 79.2768 195.391 264.859 543.25 615.859> 618 32<90.1426 157.905 275.78 352.78 474.143 503.996 594.756 670.78>
LayerCount: 2
Fore
SplineSet
217 309 m 1
 208 241 191 98 191 70 c 0
 191 39 200 37 260 32 c 0
 263 32 265 26 265 19 c 0
 265 10 262 0 256 0 c 0
 211 0 179 4 133 4 c 0
 87 4 53 0 8 0 c 0
 4 0 2 6 2 12 c 0
 2 21 6 32 12 32 c 0
 83 38 86 39 99 102 c 0
 100 107 163 463 163 576 c 0
 163 611 155 613 96 618 c 0
 92 618 90 624 90 631 c 0
 90 640 93 650 100 650 c 0
 145 650 177 646 223 646 c 0
 269 646 303 650 348 650 c 0
 351 650 353 645 353 638 c 0
 353 629 350 618 344 618 c 0
 273 612 268 611 256 548 c 0
 244 484 233 425 222 348 c 1
 265 353 324 410 459 548 c 0
 490 580 504 596 504 605 c 0
 504 612 499 615 480 618 c 0
 476 618 474 624 474 631 c 0
 474 640 477 650 484 650 c 0
 529 650 530 646 576 646 c 0
 622 646 621 650 666 650 c 0
 669 650 671 645 671 638 c 0
 671 629 668 619 662 618 c 0
 595 612 590 603 528 546 c 0
 475 497 427 447 382 399 c 0
 353 368 344 353 344 342 c 0
 344 335 347 330 353 320 c 0
 405 235 442 177 495 102 c 0
 536 44 544 38 611 32 c 0
 614 32 616 26 616 19 c 0
 616 10 613 0 607 0 c 0
 562 0 557 4 517 4 c 0
 475 4 462 0 417 0 c 0
 413 0 411 6 411 12 c 0
 411 42 435 27 435 40 c 0
 435 48 425 65 403 102 c 0
 367 163 329 221 293 271 c 0
 277 294 247 307 217 309 c 1
EndSplineSet
Validated: 1
Substitution2: "'c2sc' Capitals to Small Capitals in Latin lookup 2 subtable" K.c2sc
EndChar

StartChar: L
Encoding: 76 76 46
Width: 544
GlyphClass: 2
Flags: W
HStem: 0 48<190.007 393.342> 0 32<2.21973 78.8236> 618 32<89.1426 158.355 275.75 351.78>
LayerCount: 2
Fore
SplineSet
163 575 m 0x60
 163 611 157 612 95 618 c 0
 91 618 89 624 89 631 c 0
 89 640 92 650 99 650 c 0
 144 650 176 646 222 646 c 0
 268 646 302 650 347 650 c 0
 350 650 352 645 352 638 c 0
 352 629 349 618 343 618 c 0
 270 612 266 606 255 548 c 0
 254 543 190 154 190 71 c 0
 190 49 200 48 222 48 c 2
 326 48 l 2xa0
 399 48 441 109 466 170 c 1
 476 170 488 167 494 161 c 1
 473 105 450 34 450 17 c 0
 450 5 442 0 440 0 c 0
 395 0 322 4 226 4 c 0
 130 4 52 0 7 0 c 0
 4 0 2 5 2 12 c 0
 2 21 5 32 11 32 c 0
 82 38 86 39 99 102 c 0
 100 107 163 464 163 575 c 0x60
EndSplineSet
Validated: 1
Substitution2: "'c2sc' Capitals to Small Capitals in Latin lookup 2 subtable" L.c2sc
EndChar

StartChar: M
Encoding: 77 77 47
Width: 860
GlyphClass: 2
Flags: W
HStem: -16 21G<388 393> 0 32<16.2227 65.4296 152.211 192.9 593.22 655.613 759.328 821.78> 618 32<157.141 202.625 779.792 831.814>
VStem: 667 86<40.1738 342.451>
LayerCount: 2
Fore
SplineSet
684 485 m 0x70
 684 491 685 496 683 496 c 0
 682 496 680 494 678 491 c 0
 605 361 602 351 411 6 c 0
 405 -5 396 -16 390 -16 c 0xb0
 386 -16 379 -10 375 6 c 0
 289 348 286 360 250 477 c 0
 249 480 248 481 247 481 c 0
 243 481 150 100 150 65 c 0
 150 44 154 35 188 32 c 0
 191.9845194 31.6484247588 193 26 193 19 c 0
 193 10 191 0 184 0 c 0
 139 0 143 4 97 4 c 0
 51 4 66 0 21 0 c 0
 18 0 16 5 16 12 c 0
 16 21 19.0487197831 31.2402621 25 32 c 0
 72 38 76 58 89 102 c 0
 90 107 204 527 204 588 c 0
 204 613 199 614 161 618 c 0
 158.016601562 618.314453125 157 624 157 631 c 0
 157 640 160 650 166 650 c 0
 211 650 226 646 272 646 c 0
 284 646 287 638 289 630 c 0
 342 434 362 375 423 158 c 0
 424 154 425 151 426 151 c 0
 428 151 491 260 696 632 c 0
 702 641 710 646 726 646 c 0
 772 646 782 650 827 650 c 0
 830 650 832 644 832 637 c 0
 832 628 827.947265625 618.79296875 822 618 c 0
 777 612 775 611 770 548 c 0
 758 416 753 264 753 95 c 0
 753 38 756 37 817 32 c 0
 820 32 822 27 822 20 c 0
 822 11 819 0 813 0 c 0
 768 0 748 4 702 4 c 0
 656 4 643 0 598 0 c 0
 595 0 593 5 593 12 c 0
 593 21 596 32 602 32 c 0
 657 38 664 39 667 102 c 0
 678 250 684 479 684 485 c 0x70
EndSplineSet
Validated: 1
Substitution2: "'c2sc' Capitals to Small Capitals in Latin lookup 2 subtable" M.c2sc
EndChar

StartChar: N
Encoding: 78 78 48
Width: 734
GlyphClass: 2
Flags: W
HStem: -16 21G<552.5 570.5> 0 32<18.2197 86.4715 166.955 217.78> 618 32<120.22 160.049 561.22 601.654 686.371 731.781>
LayerCount: 2
Fore
SplineSet
605 576 m 0x60
 605 611 599 613 565 618 c 0
 562.032226562 618.436523438 561 623 561 630 c 0
 561 639 564 650 570 650 c 0
 615 650 604 646 650 646 c 0
 696 646 683 650 728 650 c 0
 731 650 732 645 732 638 c 0
 732 629 729.00390625 618.973632812 723 618 c 0
 686 612 683 611 671 548 c 0
 664 513 633 342 608 102 c 0
 603 58 584 -16 557 -16 c 0xa0
 548 -16 536 -7 524 14 c 0
 521 19 244 495 223 495 c 0
 218 495 217 485 214 464 c 0
 175 183 164 93 164 67 c 0
 164 38 173 37 213 32 c 0
 215.9765625 31.6279296875 218 27 218 20 c 0
 218 11 215 0 209 0 c 0
 164 0 161 4 115 4 c 0
 69 4 68 0 23 0 c 0
 20 0 18 5 18 12 c 0
 18 21 21 32 27 32 c 0
 98 38 87 39 99 102 c 0
 131 277 164 540 164 576 c 0
 164 612 154 612 124 618 c 0
 121.05848538 618.588302924 120 623 120 630 c 0
 120 639 123 650 129 650 c 0
 174 650 173 646 223 646 c 0
 240 646 248 637 256 624 c 0
 438 318 532 160 545 160 c 0
 549 160 551 168 554 185 c 0
 555 189 605 516 605 576 c 0x60
EndSplineSet
Validated: 1
Substitution2: "'c2sc' Capitals to Small Capitals in Latin lookup 2 subtable" N.c2sc
EndChar

StartChar: O
Encoding: 79 79 49
Width: 710
GlyphClass: 2
Flags: W
HStem: -10 36<252.923 403.098> 624 36<305.734 458.092>
VStem: 39 96<170.762 432.213> 576 95<219.333 473.35>
LayerCount: 2
Fore
SplineSet
327 26 m 0
 446 26 576 143 576 356 c 0
 576 384 570 624 382 624 c 0
 263 624 135 507 135 292 c 0
 135 256 142 26 327 26 c 0
331 -10 m 0
 194 -10 39 77 39 300 c 0
 39 536 212 660 377 660 c 0
 524 660 671 562 671 344 c 0
 671 112 497 -10 331 -10 c 0
EndSplineSet
Validated: 1
Substitution2: "'c2sc' Capitals to Small Capitals in Latin lookup 2 subtable" O.c2sc
EndChar

StartChar: P
Encoding: 80 80 50
Width: 592
GlyphClass: 2
Flags: W
HStem: 0 32<2.21973 78.2768 194.391 263.857> 269 45<223.677 397.032> 622 38<287.481 417.273> 622 24<88.1426 146.16 222 344>
VStem: 485 90<395.86 560.892>
LayerCount: 2
Fore
SplineSet
215 295 m 1xe8
 215 293 190 103 190 70 c 0
 190 39 199 37 259 32 c 0
 263 32 264 26 264 19 c 0
 264 10 261 0 254 0 c 0
 209 0 177 4 131 4 c 0
 85 4 51 0 6 0 c 0
 3 0 2 5 2 12 c 0
 2 21 5 32 11 32 c 0
 82 38 85 39 98 102 c 0
 99 107 162 463 162 576 c 0
 162 611 153 613 94 618 c 0
 90 618 88 624 88 631 c 0
 88 640 91 650 98 650 c 0
 143 650 176 646 222 646 c 0xd8
 270 646 286 660 344 660 c 0
 446 660 575 612 575 483 c 0
 575 356 452 269 326 269 c 0
 288 269 250 277 215 295 c 1xe8
485 482 m 0
 485 594 394 622 344 622 c 0xe8
 302 622 265 599 255 548 c 0
 242 483 230 410 219 330 c 1
 246 319 276 314 305 314 c 0
 396 314 485 367 485 482 c 0
EndSplineSet
Validated: 1
Substitution2: "'c2sc' Capitals to Small Capitals in Latin lookup 2 subtable" P.c2sc
EndChar

StartChar: Q
Encoding: 81 81 51
Width: 710
GlyphClass: 2
Flags: W
HStem: -200 56<429.816 550.934> -105 45<172.5 272.028> 624 36<305.734 458.092>
VStem: 39 96<170.609 432.213> 576 95<221.572 473.35>
LayerCount: 2
Fore
SplineSet
327 26 m 0
 446 26 576 143 576 356 c 0
 576 384 570 624 382 624 c 0
 263 624 135 507 135 292 c 0
 135 256 142 26 327 26 c 0
259 -2 m 1
 145 24 39 116 39 300 c 0
 39 536 212 660 377 660 c 0
 524 660 671 562 671 344 c 0
 671 121 510 0 350 -9 c 1
 313 -19 264 -39 226 -62 c 1
 236 -60 242 -60 254 -60 c 0
 358 -60 422 -144 513 -144 c 0
 542 -144 579 -133 605 -106 c 1
 620 -118 l 1
 573 -174 528 -200 465 -200 c 0
 332 -200 289 -105 201 -105 c 0
 172 -105 158 -109 107 -160 c 1
 75 -144 l 1
 116 -91 171 -40 259 -2 c 1
EndSplineSet
Validated: 1
Substitution2: "'salt' Stylistic Alternatives in Latin lookup 5 subtable" Q.salt
Substitution2: "'c2sc' Capitals to Small Capitals in Latin lookup 2 subtable" Q.c2sc
EndChar

StartChar: R
Encoding: 82 82 52
Width: 579
GlyphClass: 2
Flags: W
HStem: -3 24<544.087 558.788> 0 32<18.2197 85.9247 194.712 247.857> 300 35<222.217 269.875> 622 38<287.025 403.747> 622 24<105.141 148.999 222 342>
VStem: 461 87<422.55 569.806>
LayerCount: 2
Fore
SplineSet
461 505 m 0x34
 461 576 398 622 342 622 c 0
 302 622 265 598 255 548 c 0
 242 483 232 423 221 343 c 1
 247 338 270 335 291 335 c 0
 452 335 461 473 461 505 c 0x34
190 73 m 0
 190 38 201 37 243 32 c 0
 246.971679688 31.52734375 248 26 248 19 c 0
 248 10 245 0 238 0 c 0
 193 0 177 4 131 4 c 0
 85 4 67 0 22 0 c 0
 19 0 18 5 18 12 c 0
 18 21 21 32 27 32 c 0
 98 38 86 39 98 102 c 0
 99 107 163 502 163 577 c 0
 163 611 152 613 110 618 c 0
 107.021484375 618.354492188 105 624 105 631 c 0
 105 640 108 650 114 650 c 0
 159 650 176 646 222 646 c 0x6c
 267 646 291 660 354 660 c 0
 408 660 548 646 548 508 c 0
 548 417 473 316 362 296 c 1
 451 222 456 64 563 21 c 1
 563 12 558 -3 551 -3 c 0xb4
 326 -3 372 300 214 300 c 1
 214 298 190 101 190 73 c 0
EndSplineSet
Validated: 1
Substitution2: "'c2sc' Capitals to Small Capitals in Latin lookup 2 subtable" R.c2sc
EndChar

StartChar: S
Encoding: 83 83 53
Width: 494
GlyphClass: 2
Flags: W
HStem: -10 36<154.89 302.482> 623 37<259.626 382.827>
VStem: 36 33<109.256 163.696> 114 76<450.45 550.044> 378 88<108.466 220.116> 442 33<500.218 552.851>
LayerCount: 2
Fore
SplineSet
324 660 m 0xf8
 417 660 443 637 476 632 c 1
 475 593 474 567 474 537 c 0
 474 527 475 515 475 503 c 1
 465 497 452 497 442 497 c 1xf4
 427 590 379 623 312 623 c 0
 272 623 190 573 190 508 c 0
 190 372.059570312 466 371.7421875 466 187 c 0
 466 84 355 -10 226 -10 c 0
 130 -10 86 12 34 12 c 1
 36 39 37 62 37 88 c 0
 37 109 37 132 36 162 c 1
 47 165 57 167 69 167 c 1
 77 66 166 26 233 26 c 0
 309 26 378 82 378 152 c 0
 378 310.591796875 114 301.2265625 114 476 c 0
 114 572 219 660 324 660 c 0xf8
EndSplineSet
Validated: 1
Substitution2: "'c2sc' Capitals to Small Capitals in Latin lookup 2 subtable" S.c2sc
EndChar

StartChar: T
Encoding: 84 84 54
Width: 608
GlyphClass: 2
Flags: W
HStem: 0 32<109.22 186.071 302.594 371.857> 604 46<99.8123 267.534 371.97 549.177>
VStem: 571 35<508.929 576.403>
LayerCount: 2
Fore
SplineSet
606 512 m 1
 595 506 583 505 571 505 c 1
 562 588 548 604 472 604 c 2
 422 604 l 2
 374 604 369 583 362 548 c 0
 361 543 297 169 297 71 c 0
 297 39 309 37 366 32 c 0
 370 32 372 26 372 19 c 0
 372 10 369 0 362 0 c 0
 317 0 285 4 239 4 c 0
 193 4 159 0 114 0 c 0
 111 0 109 5 109 12 c 0
 109 21 112 32 118 32 c 0
 189 38 194 39 205 102 c 0
 206 107 269 477 269 569 c 0
 269 601 252 604 226 604 c 2
 178 604 l 2
 104 604 92 588 57 505 c 1
 45 505 33 506 24 512 c 1
 40 554 58 622 59 634 c 0
 60 641 64 650 68 650 c 0
 113 650 149 646 330 646 c 0
 512 646 548 650 593 650 c 0
 594 650 601 649 601 627 c 0
 601 567 601 544 606 512 c 1
EndSplineSet
Validated: 1
Substitution2: "'c2sc' Capitals to Small Capitals in Latin lookup 2 subtable" T.c2sc
EndChar

StartChar: U
Encoding: 85 85 55
Width: 737
GlyphClass: 2
Flags: W
HStem: -10 46<251.953 422.587> 618 32<86.1426 142.195 259.491 323.778 540.143 581.776 671.424 718.776>
VStem: 102 90<96.781 362.374>
LayerCount: 2
Fore
SplineSet
586 577 m 0
 586 612 575 613 545 618 c 0
 541.0546875 618.657226562 540 624 540 631 c 0
 540 640 543 650 550 650 c 0
 595 650 572 646 618 646 c 0
 664 646 670 650 715 650 c 0
 718 650 719 645 719 638 c 0
 719 629 715.936523438 618.869140625 710 618 c 0
 669 612 669 611 657 548 c 0
 645 485 635 426 624 350 c 0
 601 185 558 -10 303 -10 c 0
 140 -10 102 71 102 170 c 0
 102 238 148 506 148 577 c 0
 148 612 133 613 91 618 c 0
 87.0283203125 618.47265625 86 624 86 631 c 0
 86 640 89 650 96 650 c 0
 141 650 161 646 207 646 c 0
 253 646 275 650 320 650 c 0
 323 650 324 645 324 638 c 0
 324 629 320.96484375 618.650390625 315 618 c 0
 260 612 252 611 240 548 c 0
 237 530 192 291 192 204 c 0
 192 112 221 36 331 36 c 0
 517 36 544 234 560 344 c 0
 568 397 586 561 586 577 c 0
EndSplineSet
Validated: 1
Substitution2: "'c2sc' Capitals to Small Capitals in Latin lookup 2 subtable" U.c2sc
EndChar

StartChar: V
Encoding: 86 86 56
Width: 645
GlyphClass: 2
Flags: W
HStem: -16 21G<237 248> 618 32<18.1406 68.7706 176.801 241.846 471.22 519.965 601.447 660.78>
LayerCount: 2
Fore
SplineSet
500 552 m 0
 513 576 520 592 520 601 c 0
 520 615 508 616 475 618 c 0
 472 618 471 623 471 630 c 0
 471 639 474 650 480 650 c 0
 521 650 550 646 573 646 c 0
 596 646 627 650 657 650 c 0
 660 650 661 644 661 638 c 0
 661 629 658 618 652 618 c 0
 595 611 600 605 567 546 c 0
 479 390 468 369 278 11 c 0
 274 5 255 -16 241 -16 c 0
 233 -16 223 -9 219 11 c 0
 145 342 140 362 90 548 c 0
 73 613 66 613 23 618 c 0
 19 618 18 624 18 631 c 0
 18 640 21 650 27 650 c 0
 60 650 91 646 127 646 c 0
 163 646 198 650 238 650 c 0
 241 650 242 644 242 637 c 0
 242 629 239 620 233 618 c 0
 185 611 173 609 173 588 c 0
 173 584 174 542 274 154 c 0
 275 150 277 147 279 147 c 0
 281 147 283 149 285 153 c 0
 402 363 410 378 500 552 c 0
EndSplineSet
Validated: 1
Substitution2: "'c2sc' Capitals to Small Capitals in Latin lookup 2 subtable" V.c2sc
EndChar

StartChar: W
Encoding: 87 87 57
Width: 920
GlyphClass: 2
Flags: W
HStem: -16 21G<214 225.5 542 554.5> 618 32<18.1406 68.0352 174.461 233.846 358.182 398.978 499.953 561.846 754.22 794.994 875.358 935.78>
LayerCount: 2
Fore
SplineSet
596 153 m 0
 621 205 795 573 795 602 c 0
 795 615 787 616 758 618 c 0
 755 618 754 623 754 630 c 0
 754 639 757 650 763 650 c 0
 804 650 825 646 848 646 c 0
 871 646 902 650 932 650 c 0
 935 650 936 645 936 638 c 0
 936 629 933 618 927 618 c 0
 870 611 872 606 842 546 c 0
 765 390 765 384 588 11 c 0
 582 -1 562 -16 547 -16 c 0
 537 -16 524 -9 521 11 c 0
 480 241 467 313 446 408 c 1
 410 333 372 254 256 11 c 0
 249 -4 232 -16 219 -16 c 0
 209 -16 196 -8 193 11 c 0
 135 333 129 362 86 548 c 0
 71 614 66 613 23 618 c 0
 19 618 18 624 18 631 c 0
 18 640 21 650 27 650 c 0
 60 650 91 646 127 646 c 0
 163 646 190 650 230 650 c 0
 233 650 234 644 234 637 c 0
 234 629 231 620 225 618 c 0
 180 611 171 609 171 587 c 0
 171 580 173 571 175 558 c 0
 201 396 204 374 253 154 c 1
 253 154 255 146 259 146 c 0
 261 146 263 148 266 153 c 0
 355 340 370 372 425 500 c 1
 421 515 418 531 414 548 c 0
 399 614 400 613 363 618 c 0
 359 619 358 625 358 631 c 0
 358 640 362 650 367 650 c 0
 400 650 419 646 455 646 c 0
 491 646 518 650 558 650 c 0
 561 650 562 644 562 637 c 0
 562 629 559 620 553 618 c 0
 505 611 497 609 497 588 c 0
 497 581 499 570 501 558 c 0
 527 396 530 374 579 154 c 0
 581 145 583 142 586 142 c 0
 589 142 593 147 596 153 c 0
EndSplineSet
Validated: 1
Substitution2: "'c2sc' Capitals to Small Capitals in Latin lookup 2 subtable" W.c2sc
EndChar

StartChar: X
Encoding: 88 88 58
Width: 668
GlyphClass: 2
Flags: W
HStem: 0 32<-15.6833 48.7367 138.007 180.859 390.317 434.993 548.919 605.78> 618 32<70.2197 125.736 238.272 286.78 496.141 538.995 614.355 683.776>
VStem: 293 86<292.901 357.996>
LayerCount: 2
Fore
SplineSet
349 390 m 0
 359 390 539 597 539 607 c 0
 539 613 532 615 501 618 c 0
 498 618 496 624 496 631 c 0
 496 640 499 650 505 650 c 0
 545 650 579 646 602 646 c 0
 625 646 649 650 679 650 c 0
 682 650 684 645 684 638 c 0
 684 629 680.931640625 618.905273438 675 618 c 0
 616 609 616 609 579 567 c 0
 499 475 494 469 397 358 c 0
 384 343 379 337 379 332 c 0
 379 321 508 104 509 102 c 0
 546 40 554 38 601 32 c 0
 604 32 606 26 606 20 c 0
 606 11 603 0 597 0 c 0
 567 0 542 4 503 4 c 0
 463 4 432 0 395 0 c 0
 392 0 390 5 390 11 c 0
 390 20 393 31 399 32 c 0
 426 35 435 36 435 47 c 0
 435 65 334 250 333 252 c 0
 329 259 327 262 324 262 c 0
 321 262 318 259 314 254 c 0
 154 71 138 53 138 44 c 0
 138 36 147 34 176 32 c 0
 179 32 181 26 181 19 c 0
 181 10 178 0 172 0 c 0
 132 0 97 4 74 4 c 0
 51 4 19 0 -11 0 c 0
 -14 0 -16 5 -16 11 c 0
 -16 20 -13 31 -7 32 c 0
 44 38 46 40 97 95 c 0
 184 188 188 192 284 303 c 0
 287 307 293 313 293 321 c 0
 293 325 292 329 289 334 c 0
 223 448 219 453 160 552 c 0
 125 611 124 613 75 618 c 0
 72 618 70 623 70 630 c 0
 70 639 73 650 79 650 c 0
 109 650 134 646 173 646 c 0
 213 646 245 650 282 650 c 0
 285 650 287 645 287 638 c 0
 287 629 284 618 278 618 c 0
 248 614 238 612 238 599 c 0
 238 582 275 513 341 398 c 0
 344 393 346 390 349 390 c 0
EndSplineSet
Validated: 524289
Substitution2: "'c2sc' Capitals to Small Capitals in Latin lookup 2 subtable" X.c2sc
EndChar

StartChar: Y
Encoding: 89 89 59
Width: 571
GlyphClass: 2
Flags: W
HStem: 0 32<91.2853 168.674 285.088 353.857> 618 32<18.1426 70.1067 173.431 233.78 405.143 450.994 530.17 586.78>
VStem: 213 67<118.509 270.223>
LayerCount: 2
Fore
SplineSet
280 73 m 0
 280 38 290 37 348 32 c 0
 352 32 354 26 354 19 c 0
 354 10 351 0 344 0 c 0
 299 0 267 4 221 4 c 0
 175 4 141 0 96 0 c 0
 93 0 91 6 91 12 c 0
 91 21 95 32 101 32 c 0
 172 38 176 39 188 102 c 0
 205 193 213 236 213 266 c 0
 213 289 208 304 199 328 c 0
 156 437 155 442 102 548 c 0
 71 611 69 612 24 618 c 0
 20 618 18 624 18 631 c 0
 18 640 21 650 28 650 c 0
 73 650 82 646 128 646 c 0
 174 646 184 650 229 650 c 0
 232 650 234 645 234 638 c 0
 234 629 231 619 225 618 c 0
 182 614 172 609 172 595 c 0
 172 573 236 437 272 364 c 0
 274 361 276 359 278 359 c 0
 281 359 286 363 292 371 c 0
 367 472 451 588 451 602 c 0
 451 611 443 615 411 618 c 0
 407 618 405 624 405 631 c 0
 405 640 408 650 415 650 c 0
 460 650 457 646 499 646 c 0
 541 646 537 650 582 650 c 0
 585 650 587 645 587 638 c 0
 587 629 584 619 578 618 c 0
 537 613 532 611 491 555 c 0
 415 453 411 446 341 347 c 0
 322 321 305 297 298 251 c 0
 294 218 280 90 280 73 c 0
EndSplineSet
Validated: 1
Substitution2: "'c2sc' Capitals to Small Capitals in Latin lookup 2 subtable" Y.c2sc
EndChar

StartChar: Z
Encoding: 90 90 60
Width: 601
GlyphClass: 2
Flags: W
HStem: 0 44<115.004 339.947> 606 40<176.367 469.997>
LayerCount: 2
Fore
SplineSet
540 165 m 1
 496 48 495 0 485 0 c 0
 440 0 403 4 242 4 c 0
 70 4 27 0 -18 0 c 1
 -18 0 -24 4 -24 13 c 0
 -24 20 -20 29 -8 42 c 0
 199 272 236 318 460 588 c 0
 467 596 470 601 470 603 c 0
 470 606 466 606 460 606 c 0
 387 606 318 605 249 602 c 0
 173 599 130 570 100 501 c 1
 89 501 80 503 71 506 c 1
 115 613 107 650 119 650 c 0
 164 650 205 646 356 646 c 0
 509 646 550 650 595 650 c 0
 597 650 601 649 601 642 c 0
 601 633 593 614 574 592 c 0
 319 301 320 298 128 68 c 0
 119 56 115 50 115 47 c 0
 115 44 120 44 131 44 c 0
 406 44 438 46 510 170 c 1
 523 170 533 167 540 165 c 1
EndSplineSet
Validated: 1
Substitution2: "'c2sc' Capitals to Small Capitals in Latin lookup 2 subtable" Z.c2sc
EndChar

StartChar: bracketleft
Encoding: 91 91 61
Width: 372
GlyphClass: 2
Flags: W
HStem: -200 30<157.519 242> 680 30<274.412 366>
VStem: 56 310
LayerCount: 2
Fore
SplineSet
56 -200 m 1
 57 -191 155 448 185 710 c 1
 366 710 l 1
 366 710 368 703 368 696 c 3
 368 690 367 681 360 680 c 0
 249 670 246 663 232 568 c 0
 205 384 141 -59 141 -100 c 0
 141 -156 141 -161 242 -170 c 1
 242 -170 245 -177 245 -184 c 0
 245 -190 243 -196 237 -200 c 1
 56 -200 l 1
EndSplineSet
Validated: 1
Substitution2: "'smcp' Lowercase to Small Capitals in Latin lookup 1 subtable" bracketleft.smcp
EndChar

StartChar: backslash
Encoding: 92 92 62
Width: 380
GlyphClass: 2
Flags: W
VStem: 84 181
LayerCount: 2
Fore
SplineSet
140 698 m 1
 265 -48 l 1
 209 -48 l 1
 84 698 l 1
 140 698 l 1
EndSplineSet
Validated: 1
EndChar

StartChar: bracketright
Encoding: 93 93 63
Width: 372
GlyphClass: 2
Flags: W
HStem: -200 30<-32 59.5879> 680 30<92 176.481>
VStem: -32 310
LayerCount: 2
Fore
SplineSet
278 710 m 1
 277 701 179 62 149 -200 c 1
 -32 -200 l 1
 -32 -200 -34 -193 -34 -186 c 3
 -34 -180 -33 -171 -26 -170 c 0
 85 -160 88 -153 102 -58 c 0
 129 126 193 569 193 610 c 0
 193 666 193 671 92 680 c 1
 92 680 89 687 89 694 c 0
 89 700 91 706 97 710 c 1
 278 710 l 1
EndSplineSet
Validated: 1
Substitution2: "'smcp' Lowercase to Small Capitals in Latin lookup 1 subtable" bracketright.smcp
EndChar

StartChar: asciicircum
Encoding: 94 94 64
Width: 336
GlyphClass: 2
Flags: W
HStem: 364 296
VStem: 36 300
LayerCount: 2
Fore
SplineSet
219 603 m 1
 84 364 l 1
 36 364 l 1
 205 660 l 1
 251 660 l 1
 336 364 l 1
 288 364 l 1
 219 603 l 1
EndSplineSet
Validated: 1
EndChar

StartChar: underscore
Encoding: 95 95 65
Width: 456
GlyphClass: 2
Flags: W
HStem: -140 40<-11 467>
LayerCount: 2
Fore
SplineSet
467 -100 m 1
 467 -100 472 -108 472 -118 c 0
 472 -125 470 -133 461 -140 c 1
 -11 -140 l 1
 -11 -140 -16 -132 -16 -122 c 0
 -16 -115 -14 -107 -5 -100 c 1
 467 -100 l 1
EndSplineSet
Validated: 1
EndChar

StartChar: grave
Encoding: 96 96 66
Width: 380
GlyphClass: 2
Flags: W
HStem: 480 170
VStem: 130 149
LayerCount: 2
Fore
SplineSet
201 650 m 1
 250 561 279 504 279 495 c 0
 279 486 270 480 264 480 c 0
 258 480 208 528 130 609 c 1
 148 640 184 650 201 650 c 1
EndSplineSet
Validated: 1
EndChar

StartChar: a
Encoding: 97 97 67
Width: 490
GlyphClass: 2
Flags: W
HStem: -10 53<110.01 178.235 307.528 361.345> 376 34<198.689 291.167>
VStem: 14 79<58.4138 233.185> 261 79<8.31573 156.134>
LayerCount: 2
Fore
SplineSet
120 -10 m 0
 89 -10 14 4 14 132 c 0
 14 273 144 410 247 410 c 0
 282 410 296 407 317 405 c 1
 338 411 358 416 374 416 c 0
 378 416 396 415 396 393 c 0
 396 371 340 99 340 68 c 0
 340 54 343 48 351 48 c 0
 361 48 389 66 414 94 c 1
 428 94 434 84 437 76 c 1
 397 21 351 -10 303 -10 c 0
 275 -10 261 -5 261 25 c 0
 261 43 267 77 273 115 c 1
 221 39 170 -10 120 -10 c 0
304 312 m 0
 304 338 298 376 251 376 c 0
 163 376 93 242 93 144 c 0
 93 123 96 43 144 43 c 0
 203 43 304 208 304 312 c 0
EndSplineSet
Validated: 1
Substitution2: "'smcp' Lowercase to Small Capitals in Latin lookup 1 subtable" a.smcp
EndChar

StartChar: b
Encoding: 98 98 68
Width: 491
GlyphClass: 2
Flags: W
HStem: -10 34<159.221 247.049> 366 44<247.394 326.094> 611 55<84.3781 124.608>
VStem: 126 72<392.982 647.601> 351 82<150.61 338.374>
LayerCount: 2
Fore
SplineSet
351 236 m 0
 351 249 350 366 288 366 c 0
 224 366 137 238 137 119 c 0
 137 90 143 24 198 24 c 0
 261 24 351 120 351 236 c 0
172 315 m 0
 176 315 227 410 318 410 c 0
 351 410 433 385 433 265 c 0
 433 99 317 -10 203 -10 c 0
 169 -10 135 1 108 25 c 1
 100 16 75 -16 63 -16 c 0
 59 -16 41 -15 41 7 c 0
 41 38 126 456 126 573 c 0
 126 597 125 608 60 611 c 0
 56 611 53 620 53 627 c 0
 53 633 55 638 59 639 c 0
 99 645 149 666 181 666 c 0
 194 666 198 666 198 634 c 0
 198 597 196 490 170 330 c 0
 171 320 170 315 172 315 c 0
EndSplineSet
Validated: 1
Substitution2: "'smcp' Lowercase to Small Capitals in Latin lookup 1 subtable" b.smcp
EndChar

StartChar: c
Encoding: 99 99 69
Width: 402
GlyphClass: 2
Flags: W
HStem: -10 56<129.515 231.814> 376 34<175.511 265.968>
VStem: 15 77<90.897 266.711> 271 70<294.858 371.778>
LayerCount: 2
Fore
SplineSet
236 410 m 0
 314 410 341 353 341 313 c 0
 341 291 318 274 292 274 c 0
 272 274 262 292 262 308 c 0
 262 322 271 325 271 340 c 0
 271 349 268 376 228 376 c 0
 175 376 92 317 92 187 c 0
 92 164 96 46 183 46 c 0
 219 46 263 69 306 119 c 1
 315 119 325 110 328 101 c 1
 276 25 211 -10 153 -10 c 0
 91 -10 15 33 15 158 c 0
 15 322 140 410 236 410 c 0
EndSplineSet
Validated: 1
Substitution2: "'smcp' Lowercase to Small Capitals in Latin lookup 1 subtable" c.smcp
EndChar

StartChar: d
Encoding: 100 100 70
Width: 499
GlyphClass: 2
Flags: W
HStem: -10 58<304.5 370.153> -10 45<109.258 184.792> 373 37<193.763 291.399> 611 55<307.378 347.608>
VStem: 15 79<45.7675 237.739> 276 73<48.0087 97.0872> 349 73<392.403 647.601>
LayerCount: 2
Fore
SplineSet
307 303 m 0x78
 307 321 303 373 249 373 c 0
 186 373 94 292 94 141 c 0
 94 109 97 35 140 35 c 0
 202 35 307 200 307 303 c 0x78
422 634 m 0x7a
 422 413 349 108 349 64 c 0x7c
 349 60 349 48 360 48 c 0
 370 48 397 66 422 94 c 1xba
 436 94 442 84 445 76 c 1
 405 21 360 -10 312 -10 c 0
 297 -10 269 -9 269 18 c 0
 269 30 276 65 276 87 c 0xbc
 276 95 275 100 272 100 c 0
 264 100 209 -10 122 -10 c 0
 72 -10 15 33 15 130 c 0
 15 287 144 410 239 410 c 0
 301 410 319 358 322 358 c 0
 324 358 349 514 349 573 c 0x7a
 349 597 348 608 283 611 c 0
 279 611 276 620 276 627 c 0x7c
 276 633 278 638 282 639 c 0
 322 645 372 666 404 666 c 0
 417 666 422 666 422 634 c 0x7a
EndSplineSet
Validated: 1
Substitution2: "'smcp' Lowercase to Small Capitals in Latin lookup 1 subtable" d.smcp
EndChar

StartChar: e
Encoding: 101 101 71
Width: 406
GlyphClass: 2
Flags: W
HStem: -10 56<131.852 235.097> 187 32<96 194.627> 376 34<177.483 266.617>
VStem: 15 79<91.098 187 219 266.984> 280 63<271.53 367.445>
LayerCount: 2
Fore
SplineSet
96 219 m 1
 221 219 280 273 280 318 c 0
 280 331 275 376 230 376 c 0
 195 376 114 346 96 219 c 1
154 -10 m 0
 80 -10 15 48 15 162 c 0
 15 319 142 410 240 410 c 0
 308 410 343 360 343 316 c 0
 343 253 269 187 94 187 c 1
 100 67 146 46 184 46 c 0
 242 46 292 99 307 119 c 1
 319 119 325 111 330 101 c 1
 279 30 223 -10 154 -10 c 0
EndSplineSet
Validated: 1
Substitution2: "'smcp' Lowercase to Small Capitals in Latin lookup 1 subtable" e.smcp
EndChar

StartChar: f
Encoding: 102 102 72
Width: 301
GlyphClass: 2
Flags: W
HStem: -260 39<3.80313 43.0057> 362 38<13.5417 90 171 284.612> 631 29<196.129 236.91>
VStem: 90 78<122.285 362 400 536.404>
LayerCount: 2
Fore
SplineSet
16 -260 m 0
 -17 -260 -46 -249 -46 -211 c 0
 -46 -196 -42 -179 -18 -179 c 0
 4 -179 0 -221 28 -221 c 0
 62 -221 64 -58 90 362 c 1
 19 362 l 2
 14 362 12 362 12 370 c 0
 12 389 18 399 95 399 c 1
 107 560 126 660 226 660 c 0
 241 660 315 657 315 597 c 0
 315 587 308 563 277 563 c 0
 227 563 253 631 219 631 c 0
 190 631 185 612 171 400 c 1
 280 400 l 2
 285 400 286 398 286 391 c 0
 286 378 280 362 253 362 c 2
 168 362 l 1
 147 -49 114 -260 16 -260 c 0
EndSplineSet
Validated: 1
Substitution2: "'smcp' Lowercase to Small Capitals in Latin lookup 1 subtable" f.smcp
EndChar

StartChar: g
Encoding: 103 103 73
Width: 432
GlyphClass: 2
Flags: W
HStem: -260 36<72.8552 207.014> -24 54<56.212 195.362> -17 54<106.185 265.432> 119 32<139.6 237.347> 378 32<168.039 263.898> 389 41<347.506 420.374>
VStem: -45 73<-184.301 -78.7354> -4 45<37.1491 111.764> 32 77<176.548 324.336> 289 62<-150.212 -41.6661> 296 77<205.399 350.49>
LayerCount: 2
Fore
SplineSet
109 247 m 0x98a0
 109 230 113 151 186 151 c 0
 238 151 296 200 296 283 c 0
 296 298 289 378 219 378 c 0
 167 378 109 331 109 247 c 0x98a0
28 -113 m 0xd240
 28 -195 86 -224 130 -224 c 0
 238 -224 289 -168 289 -112 c 0
 289 -36 251 -17 189 -17 c 0xb240
 175 -17 136 -24 105 -24 c 0
 92 -24 75 -22 65 -19 c 1
 35 -47 28 -81 28 -113 c 0xd240
67 156 m 1
 41 184 32 227 32 254 c 0
 32 344 127 410 228 410 c 0xb880
 261 410 289 402 320 383 c 1
 347 416 378 430 403 430 c 0
 413 430 439 427 439 400 c 0
 439 379 420 371 404 371 c 0
 386 371 393 389 378 389 c 0
 365 389 345 375 339 366 c 0
 341 364 373 334 373 278 c 0
 373 175 265 119 171 119 c 0
 141 119 114 125 91 139 c 1
 80 128 41 105 41 82 c 0
 41 43 58 30 105 30 c 0xd520
 124 30 170 37 204 37 c 0
 280 37 351 -2 351 -77 c 0
 351 -163 264 -260 95 -260 c 0
 58 -260 -45 -252 -45 -156 c 0xb240
 -45 -104 -16 -45 48 -13 c 1
 13 -1 -4 36 -4 64 c 3xb1
 -4 99 38 137 67 156 c 1
EndSplineSet
Validated: 1
Substitution2: "'smcp' Lowercase to Small Capitals in Latin lookup 1 subtable" g.smcp
EndChar

StartChar: h
Encoding: 104 104 74
Width: 519
GlyphClass: 2
Flags: W
HStem: -10 58<317 394.665> 350 60<269.272 366> 611 55<84.3781 124.608>
VStem: 47 78<1.93457 173.657> 126 73<392.291 647.601> 294 80<9.36601 162.595> 338 79<195.833 347.904>
LayerCount: 2
Fore
SplineSet
338 309 m 0xfa
 338 329 332 350 305 350 c 0
 274 350 220 317 153 231 c 1
 138 145 136 129 125 67 c 0
 119 32 110 -10 80 -10 c 0
 61 -10 47 -8 47 24 c 0
 47 85 126 455 126 573 c 0
 126 597 125 608 60 611 c 0
 56 611 53 620 53 627 c 0
 53 633 55 638 59 639 c 0
 99 645 149 666 181 666 c 0
 194 666 199 666 199 634 c 0
 199 542 187 432 165 298 c 1
 238 381 297 410 339 410 c 0
 393 410 417 366 417 330 c 0xfa
 417 281 374 107 374 67 c 0
 374 60 375 48 385 48 c 0
 395 48 422 67 447 95 c 1
 461 95 467 85 470 77 c 1
 428 22 385 -10 337 -10 c 0
 297 -10 294 11 294 26 c 0xfc
 294 86 338 244 338 309 c 0xfa
EndSplineSet
Validated: 1
Substitution2: "'smcp' Lowercase to Small Capitals in Latin lookup 1 subtable" h.smcp
EndChar

StartChar: i
Encoding: 105 105 75
Width: 276
GlyphClass: 2
Flags: W
HStem: -10 58<75 147.345> 361 55<39 160> 517 96<122.659 197.92>
VStem: 47 79<8.31573 175.444> 96 83<251.829 401.85> 112 98<529.08 602.371>
LayerCount: 2
Fore
SplineSet
166 613 m 0xe4
 189 613 210 595 210 571 c 0
 210 543 184 517 156 517 c 0
 133 517 112 535 112 559 c 0
 112 584 131 613 166 613 c 0xe4
89 -10 m 0
 61 -10 47 -5 47 25 c 0xf0
 47 82 96 309 96 339 c 0
 96 358 80 359 39 361 c 0
 35 361 31 370 31 377 c 0
 31 383 33 388 37 389 c 0
 77 395 128 416 160 416 c 0
 172 416 179 416 179 395 c 0xe8
 179 367 126 69 126 66 c 0xf0
 126 53 129 48 137 48 c 0
 147 48 175 66 200 94 c 1
 214 94 220 84 223 76 c 1
 183 21 137 -10 89 -10 c 0
EndSplineSet
Validated: 1
Substitution2: "'smcp' Lowercase to Small Capitals in Latin lookup 1 subtable" i.smcp
EndChar

StartChar: j
Encoding: 106 106 76
Width: 276
GlyphClass: 2
Flags: W
HStem: 361 55<37 158> 517 96<123.659 198.92>
VStem: 94 83<252.714 401.85> 113 98<529.08 602.371>
LayerCount: 2
Fore
SplineSet
167 613 m 0xd0
 190 613 211 595 211 571 c 0
 211 543 185 517 157 517 c 0
 134 517 113 535 113 559 c 0
 113 584 132 613 167 613 c 0xd0
-11 -260 m 0
 -25 -260 -46 -257 -46 -243 c 0
 -46 -236 -11 -250 11 -165 c 0
 25 -110 94 333 94 340 c 0
 94 358 76 359 37 361 c 0
 33 361 30 370 30 377 c 0
 30 383 32 388 36 389 c 0
 76 395 126 416 158 416 c 0
 170 416 177 416 177 395 c 0xe0
 177 379 172 351 164 299 c 0
 114 -6 72 -260 -11 -260 c 0
EndSplineSet
Validated: 1
Substitution2: "'cv11' Character Variants 11 in Latin lookup 6 subtable" j.cv11
Substitution2: "'smcp' Lowercase to Small Capitals in Latin lookup 1 subtable" j.smcp
EndChar

StartChar: k
Encoding: 107 107 77
Width: 482
GlyphClass: 2
Flags: W
HStem: -10 50<327.398 382.96> 341 69<325.058 413.632> 611 55<84.3781 124.608>
VStem: 47 78<2.05186 173.657> 126 73<392.118 647.601>
LayerCount: 2
Fore
SplineSet
181 666 m 0
 194 666 199 666 199 634 c 0
 199 527 184 411 159 264 c 1
 170 270 181 278 190 286 c 2
 228 318 l 2
 296 378 355 410 387 410 c 0
 405 410 437 408 437 375 c 0
 437 347 408 328 394 328 c 0
 360 328 363 341 337 341 c 0
 317 341 292 326 246 285 c 2
 198 244 l 2
 195 241 196 239 199 238 c 0
 230 231 238 216 255 188 c 0
 270 162 286 126 318 75 c 0
 330 56 338 40 357 40 c 0
 368 40 388 59 407 86 c 1
 418 86 421 79 428 72 c 1
 400 20 367 -10 333 -10 c 0
 232 -10 194 206 152 220 c 1
 137 139 135 125 125 67 c 0
 119 33 110 -10 80 -10 c 0
 61 -10 47 -8 47 24 c 0
 47 85 126 455 126 573 c 0
 126 597 125 608 60 611 c 0
 56 611 53 620 53 627 c 0
 53 633 55 638 59 639 c 0
 99 645 149 666 181 666 c 0
EndSplineSet
Validated: 1
Substitution2: "'smcp' Lowercase to Small Capitals in Latin lookup 1 subtable" k.smcp
EndChar

StartChar: l
Encoding: 108 108 78
Width: 276
GlyphClass: 2
Flags: W
HStem: -10 58<76.5 147.153> 611 55<84.3781 124.608>
VStem: 47 79<7.92163 172.422> 126 73<393.139 647.601>
LayerCount: 2
Fore
SplineSet
199 634 m 0xd0
 199 413 126 108 126 64 c 0xe0
 126 60 126 48 137 48 c 0
 147 48 174 66 199 94 c 1xd0
 213 94 219 84 222 76 c 1
 182 21 137 -10 89 -10 c 0
 64 -10 47 -6 47 24 c 0xe0
 47 85 126 455 126 573 c 0
 126 597 125 608 60 611 c 0
 56 611 53 620 53 627 c 0
 53 633 55 638 59 639 c 0
 99 645 149 666 181 666 c 0
 194 666 199 666 199 634 c 0xd0
EndSplineSet
Validated: 1
Substitution2: "'smcp' Lowercase to Small Capitals in Latin lookup 1 subtable" l.smcp
EndChar

StartChar: m
Encoding: 109 109 79
Width: 720
GlyphClass: 2
Flags: W
HStem: -10 58<541.002 604.069> 352 58<267.091 345.932 490.138 569.432>
VStem: 47 78<1.61784 173.054> 96 70<299.41 357.469> 274 75<0.78006 171.526> 318 71<297 350.999> 497 75<8.31573 173.168> 541 75<206.645 350.986>
LayerCount: 2
Fore
SplineSet
541 316 m 0xc1
 541 333 532 352 514 352 c 0
 477 352 406 269 377 226 c 1
 368 176 358 123 349 67 c 0
 343 31 335 -10 305 -10 c 0
 284 -10 274 -8 274 25 c 0xc9
 274 81 318 278 318 316 c 0
 318 333 309 352 291 352 c 0
 254 352 182 269 153 226 c 1
 144 176 134 123 125 67 c 0
 119 31 110 -10 80 -10 c 0
 59 -10 47 -7 47 25 c 0xe4
 47 82 96 309 96 339 c 0
 96 358 84 359 39 361 c 0
 35 361 31 370 31 377 c 0
 31 383 33 388 37 389 c 0
 77 395 128 416 160 416 c 0
 164 416 182 415 182 393 c 0
 182 376 172 334 166 299 c 1
 166 297 l 1
 170 301 l 1
 242 383 292 410 327 410 c 0
 376 410 393 358 393 336 c 0
 393 329 392 316 389 299 c 2
 389 297 l 1
 393 301 l 1
 465 383 515 410 550 410 c 0
 600 410 616 357 616 336 c 0xd5
 616 302 572 104 572 64 c 0
 572 49 578 48 583 48 c 0
 593 48 621 66 646 94 c 1
 660 94 666 84 669 76 c 1
 629 21 583 -10 539 -10 c 0
 510 -10 497 -5 497 25 c 0xc2
 497 81 541 278 541 316 c 0xc1
EndSplineSet
Validated: 1
Substitution2: "'smcp' Lowercase to Small Capitals in Latin lookup 1 subtable" m.smcp
EndChar

StartChar: n
Encoding: 110 110 80
Width: 513
GlyphClass: 2
Flags: W
HStem: -10 58<313.5 386.345> 352 64<273.277 340.157> 361 55<39 160>
VStem: 47 78<1.61784 173.054> 96 70<299.41 357.469> 286 79<8.31573 173.168> 330 79<206.645 349.37>
LayerCount: 2
Fore
SplineSet
125 67 m 0xd2
 119 31 110 -10 80 -10 c 0
 59 -10 47 -7 47 25 c 0xd2
 47 82 96 309 96 339 c 0
 96 358 84 359 39 361 c 0
 35 361 31 370 31 377 c 0
 31 383 33 388 37 389 c 0
 77 395 128 416 160 416 c 0
 164 416 182 415 182 393 c 0
 182 376 172 334 166 299 c 1
 166 297 l 1
 170 301 l 1
 244 389 288 410 338 410 c 0
 352 410 409 405 409 336 c 0xaa
 409 302 365 104 365 64 c 0
 365 49 371 48 376 48 c 0
 386 48 414 66 439 94 c 1
 453 94 459 84 462 76 c 1
 422 21 376 -10 328 -10 c 0
 299 -10 286 -5 286 25 c 0xa4
 286 81 330 278 330 316 c 0
 330 352 305 352 293 352 c 0
 258 352 209 299 153 226 c 1
 143 176 134 123 125 67 c 0xd2
EndSplineSet
Validated: 1
Substitution2: "'smcp' Lowercase to Small Capitals in Latin lookup 1 subtable" n.smcp
EndChar

StartChar: o
Encoding: 111 111 81
Width: 458
GlyphClass: 2
Flags: W
HStem: -10 34<153.968 243.477> 376 34<166.942 260.993>
VStem: 14 83<91.4074 293.269> 317 83<117.131 316.449>
LayerCount: 2
Fore
SplineSet
317 210 m 0
 317 315 270 376 216 376 c 0
 161 376 97 311 97 203 c 0
 97 109 135 24 197 24 c 0
 253 24 317 96 317 210 c 0
191 -10 m 0
 106 -10 14 52 14 191 c 0
 14 337 120 410 218 410 c 0
 288 410 400 367 400 224 c 0
 400 72 290 -10 191 -10 c 0
EndSplineSet
Validated: 1
Substitution2: "'smcp' Lowercase to Small Capitals in Latin lookup 1 subtable" o.smcp
EndChar

StartChar: p
Encoding: 112 112 82
Width: 488
GlyphClass: 2
Flags: W
HStem: -250 32<-45.8613 1.51044 79.8343 127.784> -10 34<200 254.551> 365 45<201.171 314.166>
VStem: 103 74<376 411.149> 347 83<153.4 329.155>
LayerCount: 2
Fore
SplineSet
76 -186 m 0
 76 -213 95 -215 123 -218 c 0
 127 -219 128 -224 128 -230 c 0
 128 -239 125 -250 120 -250 c 0
 79 -250 69 -246 40 -246 c 0
 8 -246 -2 -250 -40 -250 c 0
 -44 -250 -46 -244 -46 -237 c 0
 -46 -228 -43 -219 -38 -218 c 0
 -4 -213 5 -211 12 -169 c 2
 87 277 l 1
 60 256 38 238 17 211 c 1
 -1 211 -10 219 -15 232 c 1
 10 265 48 296 95 330 c 1
 103 381 l 2
 107 403 125 416 143 416 c 0
 160 416 176 404 177 376 c 1
 217 399 259 410 295 410 c 0
 392 410 430 333 430 257 c 0
 430 136 336 -10 200 -10 c 1
 200 -10 141 -4 116 31 c 1
 103 -41 76 -163 76 -186 c 0
347 238 m 0
 347 293 329 365 265 365 c 0
 241 365 208 356 170 332 c 1
 156 241 138 150 123 64 c 1
 146 36 176 24 201 24 c 0
 290 24 347 140 347 238 c 0
EndSplineSet
Validated: 1
Substitution2: "'smcp' Lowercase to Small Capitals in Latin lookup 1 subtable" p.smcp
EndChar

StartChar: q
Encoding: 113 113 83
Width: 517
GlyphClass: 2
Flags: W
HStem: -250 32<197.139 244.51 322.834 370.784> -10 45<123.83 220.813> 374 36<190.441 301.005>
VStem: 14 84<63.0031 252.239> 325 102<268.168 404>
LayerCount: 2
Fore
SplineSet
319 -186 m 1
 319 -213 338 -215 366 -218 c 0
 370 -219 371 -224 371 -230 c 0
 371 -239 368 -250 363 -250 c 0
 322 -250 312 -246 283 -246 c 0
 251 -246 241 -250 203 -250 c 0
 199 -250 197 -244 197 -237 c 0
 197 -228 200 -219 205 -218 c 0
 239 -213 248 -211 255 -169 c 2
 294 57 l 2
 293 70 292 75 290 75 c 0
 282 75 241 -10 139 -10 c 0
 74 -10 14 47 14 149 c 0
 14 299 136 410 247 410 c 0
 287 410 325 396 354 360 c 1
 381 398 l 2
 391 413 398 416 405 416 c 0
 410 416 427 415 427 393 c 0
 427 376 418 334 411 299 c 2
 319 -186 l 1
325 282 m 0
 325 311 319 374 254 374 c 0
 187 374 98 312 98 169 c 0
 98 151 99 35 162 35 c 0
 250 35 325 182 325 282 c 0
EndSplineSet
Validated: 1
Substitution2: "'smcp' Lowercase to Small Capitals in Latin lookup 1 subtable" q.smcp
EndChar

StartChar: r
Encoding: 114 114 84
Width: 349
GlyphClass: 2
Flags: W
HStem: -10 21G<67 92> 343 73<250.49 318.696>
VStem: 48 82<6.40134 179.01> 96 71<302.818 358.387>
LayerCount: 2
Fore
SplineSet
48 24 m 0xe0
 48 84 96 306 96 339 c 0
 96 358 84 359 39 361 c 0
 35 361 31 370 31 377 c 0
 31 383 33 388 37 389 c 0
 77 395 128 416 160 416 c 0
 173 416 182 407 182 393 c 0
 182 372 167 308 167 302 c 2
 167 302 166 300 167 300 c 0xd0
 168 300 169 302 172 306 c 0
 229 397 268 410 307 410 c 0
 338 410 359 388 359 361 c 0
 359 337 342 310 316 310 c 0
 290 310 282 343 261 343 c 0
 228 343 152 221 145 184 c 0
 137 136 133 114 130 96 c 0
 115 2 108 -10 76 -10 c 0
 58 -10 48 -8 48 24 c 0xe0
EndSplineSet
Validated: 1
Substitution2: "'smcp' Lowercase to Small Capitals in Latin lookup 1 subtable" r.smcp
EndChar

StartChar: s
Encoding: 115 115 85
Width: 353
GlyphClass: 2
Flags: W
HStem: -10 31<93.8065 184.819> 377 33<131.242 213.859>
VStem: 2 86<25.8528 85.9459> 47 62<279.548 360.214> 217 73<42.9461 129.256> 218 84<312.223 373.299>
LayerCount: 2
Fore
SplineSet
180 410 m 0xd8
 249 410 302 377 302 332 c 0
 302 317 294 301 267 301 c 0
 241 301 222 328 218 350 c 0
 214 369 198 377 179 377 c 0
 148 377 109 355 109 324 c 0xd4
 109 303 126 273 186 234 c 0
 242 198 290 151 290 98 c 0
 290 25 207 -10 131 -10 c 0
 54 -10 2 23 2 65 c 0
 2 75 9 96 37 96 c 0
 67 96 84 70 88 49 c 0xe8
 92 30 110 21 132 21 c 0
 169 21 217 45 217 82 c 0
 217 112 187 145 138 179 c 0
 90 212 47 256 47 307 c 0
 47 378 114 410 180 410 c 0xd8
EndSplineSet
Validated: 1
Substitution2: "'smcp' Lowercase to Small Capitals in Latin lookup 1 subtable" s.smcp
EndChar

StartChar: t
Encoding: 116 116 86
Width: 317
GlyphClass: 2
Flags: W
HStem: -10 58<78 150.345> 362 38<28.6846 102 186 287.344>
VStem: 50 79<8.31573 184.339>
LayerCount: 2
Fore
SplineSet
179 362 m 1
 140 148 129 82 129 64 c 0
 129 48 137 48 140 48 c 0
 150 48 178 66 203 94 c 1
 217 94 222 84 225 76 c 1
 185 21 140 -10 92 -10 c 0
 64 -10 50 -5 50 25 c 0
 50 83 100 336 102 362 c 1
 31 362 l 2
 27 362 26 362 26 369 c 0
 26 377 29 395 57 397 c 2
 110 400 l 1
 119 447 l 2
 131 513 137 523 170 523 c 0
 190 523 200 523 200 494 c 0
 200 482 198 466 194 443 c 2
 186 400 l 1
 282 400 l 2
 284 399 288 396 288 387 c 0
 288 377 282 362 273 362 c 2
 179 362 l 1
EndSplineSet
Validated: 1
Substitution2: "'smcp' Lowercase to Small Capitals in Latin lookup 1 subtable" t.smcp
EndChar

StartChar: u
Encoding: 117 117 87
Width: 530
GlyphClass: 2
Flags: W
HStem: -10 57<139.436 205.328 349.501 403.345> 361 55<38 159 295 416> 361 28<30.1187 92.3042 287.078 349.304>
VStem: 61 80<49.4435 258.715> 95 86<269.604 401.028> 303 79<8.31573 165.378> 352 86<267.544 401.028>
LayerCount: 2
Fore
SplineSet
141 118 m 0xd0
 141 51 161 47 171 47 c 0
 220 47 313 186 335 235 c 1
 344 288 352 338 352 340 c 0
 351 359 337 359 295 361 c 0xd2
 290 361 287 369 287 377 c 0
 287 383 289 388 293 389 c 0xb2
 333 395 384 416 416 416 c 0
 420 416 438 415 438 393 c 0xd2
 438 371 382 99 382 68 c 0
 382 54 385 48 393 48 c 0
 403 48 431 66 456 94 c 1
 470 94 476 84 479 76 c 1
 439 21 393 -10 345 -10 c 0
 317 -10 303 -5 303 25 c 0
 303 46 310 85 318 134 c 1
 246 25 185 -10 141 -10 c 0
 132 -10 61 -7 61 89 c 0xd4
 61 182 95 301 95 337 c 0
 95 358 84 359 38 361 c 0xc8
 34 361 30 370 30 377 c 0
 30 383 32 388 36 389 c 0xa8
 76 395 127 416 159 416 c 0
 164 416 181 415 181 393 c 0xc8
 181 357 141 214 141 118 c 0xd0
EndSplineSet
Validated: 1
Substitution2: "'smcp' Lowercase to Small Capitals in Latin lookup 1 subtable" u.smcp
EndChar

StartChar: v
Encoding: 118 118 88
Width: 472
GlyphClass: 2
Flags: W
HStem: -10 85<158 218.375> 332 78<45.2932 105>
VStem: 338 69<259.88 365>
LayerCount: 2
Fore
SplineSet
338 294 m 0
 338 337 307 353 307 379 c 0
 307 400 323 410 351 410 c 0
 406 410 407 374 407 356 c 0
 407 211 220 -10 182 -10 c 0
 134 -10 94 332 61 332 c 0
 42 332 21 311 -6 286 c 1
 -17 287 -24 295 -28 305 c 1
 3 355 58 410 92 410 c 0
 118 410 127 410 149 338 c 0
 163 293 208 75 214 75 c 0
 217 75 338 205 338 294 c 0
EndSplineSet
Validated: 1
Substitution2: "'smcp' Lowercase to Small Capitals in Latin lookup 1 subtable" v.smcp
EndChar

StartChar: w
Encoding: 119 119 89
Width: 656
GlyphClass: 2
Flags: W
HStem: -10 85<138 195.468 372 421.715> 332 78<45.2932 105>
VStem: 522 69<252.546 364>
LayerCount: 2
Fore
SplineSet
298 293 m 2
 298 306 l 2
 298 346 318 358 337 358 c 0
 375 358 380 299 391 223 c 0
 403 141 412 75 418 75 c 0
 424 75 522 202 522 293 c 0
 522 339 491 352 491 379 c 0
 491 400 507 410 535 410 c 0
 590 410 591 373 591 355 c 0
 591 210 424 -10 386 -10 c 0
 358 -10 340 103 323 199 c 1
 271 90 188 -10 162 -10 c 0
 114 -10 94 332 61 332 c 0
 42 332 21 311 -6 286 c 1
 -17 287 -24 295 -28 305 c 1
 3 355 58 410 92 410 c 0
 118 410 127 410 149 338 c 0
 163 291 173 140 191 81 c 0
 192 77 193 75 194 75 c 0
 200 75 298 202 298 293 c 2
EndSplineSet
Validated: 1
Substitution2: "'smcp' Lowercase to Small Capitals in Latin lookup 1 subtable" w.smcp
EndChar

StartChar: x
Encoding: 120 120 90
Width: 487
GlyphClass: 2
Flags: W
HStem: -10 60<8.88374 101.569 288.5 371.426> 332 78<83.2932 148.099 363.206 449.749> 349 61<326.383 437.276>
LayerCount: 2
Fore
SplineSet
99 332 m 0xc0
 80 332 59 311 32 286 c 1
 21 287 14 295 10 305 c 1
 41 355 96 410 130 410 c 0
 166 410 199 346 232 272 c 1
 312 389 330 410 404 410 c 0xc0
 427 410 456 395 456 369 c 0
 456 349 440 330 426 330 c 0
 397 330 388 349 362 349 c 0xa0
 343 349 336 349 254 227 c 1
 290 138 319 50 335 50 c 0
 354 50 375 66 398 94 c 1
 412 92 415 87 420 76 c 1
 394 28 365 -10 310 -10 c 0
 267 -10 236 65 206 144 c 1
 107 -2 99 -10 47 -10 c 0
 27 -10 -13 1 -13 29 c 0
 -13 48 2 64 23 64 c 0
 49 64 56 52 80 52 c 0
 92 52 127 103 185 194 c 1
 157 267 131 332 99 332 c 0xc0
EndSplineSet
Validated: 1
Substitution2: "'smcp' Lowercase to Small Capitals in Latin lookup 1 subtable" x.smcp
EndChar

StartChar: y
Encoding: 121 121 91
Width: 472
GlyphClass: 2
Flags: W
HStem: -260 61<-25.8592 46.4256> 332 78<38.4846 98>
VStem: 331 69<260.6 373>
LayerCount: 2
Fore
SplineSet
8 -260 m 0
 -27 -260 -46 -250 -46 -222 c 0
 -46 -203 -31 -187 -10 -187 c 0
 16 -187 1 -199 25 -199 c 0
 37 -199 110 -113 168 -22 c 1
 116 73 83 332 55 332 c 0
 36 332 15 311 -12 286 c 1
 -23 287 -30 295 -34 305 c 1
 -3 355 51 410 85 410 c 0
 111 410 120 410 142 338 c 0
 155 296 209 48 216 48 c 0
 219 48 331 228 331 296 c 0
 331 336 300 354 300 379 c 0
 300 400 316 410 344 410 c 0
 397 410 400 388 400 358 c 0
 400 185 78 -260 8 -260 c 0
EndSplineSet
Validated: 1
Substitution2: "'smcp' Lowercase to Small Capitals in Latin lookup 1 subtable" y.smcp
EndChar

StartChar: z
Encoding: 122 122 92
Width: 424
GlyphClass: 2
Flags: W
HStem: -10 74<192.725 307.135> 38 59<123 158.948> 328 56<165.381 321.118> 337 73<73.655 254.45>
VStem: 23 28<288.797 309.572>
LayerCount: 2
Fore
SplineSet
113 410 m 0x18
 178 410 270 384 300 384 c 0
 316 384 330 392 352 416 c 1
 382 400 l 1
 377 385 365 365 340 338 c 2
 123 97 l 1x68
 215 97 200 64 251 64 c 0
 279 64 308 69 342 126 c 1
 354 126 362 122 367 115 c 1
 327 14 295 -10 252 -10 c 0x88
 180 -10 144 38 87 38 c 0x48
 77 38 52 24 33 -10 c 1
 7 -10 1 -6 -5 6 c 1
 0 27 27 64 46 85 c 2
 268 330 l 1
 258 329 253 328 243 328 c 0xa8
 214 328 176 337 131 337 c 0
 85 337 69 327 51 284 c 1
 40 284 30 287 23 294 c 1
 36 349 78 410 113 410 c 0x18
EndSplineSet
Validated: 1
Substitution2: "'smcp' Lowercase to Small Capitals in Latin lookup 1 subtable" z.smcp
EndChar

StartChar: braceleft
Encoding: 123 123 93
Width: 348
GlyphClass: 2
Flags: W
HStem: -200 24<184.804 216.963> 235 24<25.0022 72.6589> 686 24<302.397 343.963>
VStem: 79 70<-142.918 41.5242> 114 74<23.6502 209.894>
LayerCount: 2
Fore
SplineSet
188 150 m 0xe8
 188 104 149 -38 149 -89 c 0
 149 -150 179 -166 214 -176 c 0
 215 -177 217 -182 217 -187 c 0
 217 -192 215 -197 211 -200 c 0
 109 -200 79 -122 79 -57 c 3xf0
 79 -55 114 124 114 148 c 0
 114 185 102 228 31 235 c 1
 27 240 25 244 25 247 c 0
 25 252 28 255 33 259 c 0
 106 268 139 309 147 367 c 0
 148 377 167 548 169 563 c 0
 186 680 244 710 341 710 c 0
 342 709 344 704 344 699 c 0
 344 694 342 689 338 686 c 0
 296 686 252 641 241 565 c 0
 239 550 226 402 224 387 c 0
 214 313 168 276 99 249 c 1
 99 245 l 1
 135 235 188 216 188 150 c 0xe8
EndSplineSet
Validated: 1
Substitution2: "'smcp' Lowercase to Small Capitals in Latin lookup 1 subtable" braceleft.smcp
EndChar

StartChar: bar
Encoding: 124 124 94
Width: 236
GlyphClass: 2
Flags: W
VStem: 68 188
LayerCount: 2
Fore
SplineSet
122 -240 m 1
 68 -240 l 1
 202 698 l 1
 256 698 l 1
 122 -240 l 1
EndSplineSet
Validated: 1
EndChar

StartChar: braceright
Encoding: 125 125 95
Width: 348
GlyphClass: 2
Flags: W
HStem: -200 24<-9.96338 31.6026> 251 24<261.341 308.998> 686 24<117.037 149.196>
VStem: 146 74<300.106 486.35> 185 70<468.476 652.918>
LayerCount: 2
Fore
SplineSet
146 360 m 0xf0
 146 406 185 548 185 599 c 0
 185 660 155 676 120 686 c 0
 119 687 117 692 117 697 c 0
 117 702 119 707 123 710 c 0
 225 710 255 632 255 567 c 3xe8
 255 565 220 386 220 362 c 0
 220 325 232 282 303 275 c 1
 307 270 309 266 309 263 c 0
 309 258 306 255 301 251 c 0
 228 242 195 201 187 143 c 0
 186 133 167 -38 165 -53 c 0
 148 -170 90 -200 -7 -200 c 0
 -8 -199 -10 -194 -10 -189 c 0
 -10 -184 -8 -179 -4 -176 c 0
 38 -176 82 -131 93 -55 c 0
 95 -40 108 108 110 123 c 0
 120 197 166 234 235 261 c 1
 235 265 l 1
 199 275 146 294 146 360 c 0xf0
EndSplineSet
Validated: 1
Substitution2: "'smcp' Lowercase to Small Capitals in Latin lookup 1 subtable" braceright.smcp
EndChar

StartChar: asciitilde
Encoding: 126 126 96
Width: 405
GlyphClass: 2
Flags: W
HStem: 161 61<237.345 330.583> 228 61<94.7021 191.976>
LayerCount: 2
Fore
SplineSet
17 159 m 1
 40 224 94 289 155 289 c 0
 210 289 236 222 286 222 c 0
 314 222 354 239 383 289 c 1
 391 289 401 287 403 283 c 0
 357 176 298 161 274 161 c 0
 219 161 195 228 141 228 c 0
 106 228 67 199 37 155 c 1
 31 155 22 156 17 159 c 1
EndSplineSet
Validated: 1
EndChar

StartChar: exclamdown
Encoding: 161 161 98
Width: 228
GlyphClass: 2
Flags: W
HStem: 304 106<132.875 211.649>
VStem: 39 112<-233.89 -101.854> 119 108<318.984 396.25> 133 30<116.064 209.822>
LayerCount: 2
Fore
SplineSet
163 197 m 0x90
 162 171 151 40 151 -35 c 0
 151 -65 152 -89 152 -112 c 0
 152 -135 151 -157 147 -185 c 0
 140 -239 108 -260 84 -260 c 0
 51 -260 39 -228 39 -201 c 0xc0
 39 -195 40 -190 41 -185 c 0
 51 -120 71 -78 93 8 c 0
 121 116 129 176 133 190 c 0
 135 201 140 210 150 210 c 0
 160 210 163 203 163 197 c 0x90
179 410 m 0
 206 410 227 389 227 363 c 0
 227 332 198 304 167 304 c 0
 140 304 119 324 119 351 c 0xa0
 119 378 140 410 179 410 c 0
EndSplineSet
Validated: 1
Substitution2: "'smcp' Lowercase to Small Capitals in Latin lookup 1 subtable" exclamdown.smcp
EndChar

StartChar: cent
Encoding: 162 162 99
Width: 456
GlyphClass: 2
Flags: W
HStem: 90 47<210 280.992> 380 130<310.14 359.106> 478 32<191.491 221 262 294.906>
VStem: 18 89<187.061 356.395> 308 89<389.875 469.414>
LayerCount: 2
Fore
SplineSet
167 91 m 1xb8
 123 95 18 119 18 257 c 0
 18 390 120 490 226 507 c 1
 234 568 l 1
 270 568 l 1
 262 510 l 1xb8
 290 509 397 503 397 431 c 0
 397 391 360 380 342 380 c 0xd8
 311 380 310 391 308 426 c 0
 307 451 299 475 258 478 c 1
 210 137 l 1
 253 137 303 159 347 200 c 1
 356 199 363 193 365 185 c 1
 309 115 258 93 202 90 c 1
 194 32 l 1
 158 32 l 1
 167 91 l 1xb8
221 475 m 1
 143 455 107 356 107 277 c 0
 107 256 111 172 174 144 c 1
 221 475 l 1
EndSplineSet
Validated: 1
EndChar

StartChar: sterling
Encoding: 163 163 100
Width: 456
GlyphClass: 2
Flags: W
HStem: -10 55<256.491 376.815> 50 42<144 192.598> 261 39<97.4763 158 248 365.899> 523 47<303.722 431.5>
VStem: 2 77<-4.99023 46.7431> 158 85<200.808 261 300 379.2>
LayerCount: 2
Fore
SplineSet
101 261 m 2
 97 261 96 263 96 268 c 2
 97 279 l 2
 99 287 106 300 124 300 c 2
 163 300 l 1
 173 370 202 570 409 570 c 0
 454 570 490 553 490 525 c 0
 490 506 475 480 443 480 c 0
 413 480 405 523 357 523 c 0
 280 523 269 443 248 300 c 1
 362 300 l 2
 367 300 369 298 369 294 c 2
 366 274 l 2
 364 266 352 261 341 261 c 2
 243 261 l 1
 235 209 182 124 144 92 c 1
 268 92 250 45 319 45 c 0
 349 45 397 53 428 89 c 1
 436 88 442 85 445 78 c 1
 414 26 358 -10 293 -10 c 0
 203 -10 211 50 123 50 c 0
 88 50 80 36 79 25 c 0
 76 2 56 -10 34 -10 c 0
 17 -10 2 0 2 15 c 0
 2 36 30 53 60 68 c 1
 137 119 150 203 158 261 c 1
 101 261 l 2
EndSplineSet
Validated: 1
EndChar

StartChar: currency
Encoding: 164 164 101
Width: 456
GlyphClass: 2
Flags: W
HStem: 110 45<163.652 299.617> 436 44<201.339 332.677>
VStem: 61 64<195.397 355.182> 374 64<235.116 392.307>
LayerCount: 2
Fore
SplineSet
125 271 m 0
 125 259 127 155 229 155 c 0
 313 155 374 238 374 318 c 0
 374 386 331 436 272 436 c 0
 191 436 125 358 125 271 c 0
413 409 m 1
 422 395 438 366 438 322 c 0
 438 287 428 235 381 182 c 1
 429 136 l 1
 386 96 l 1
 346 149 l 1
 307 123 266 110 223 110 c 0
 181 110 145 123 115 148 c 1
 62 92 l 1
 24 135 l 1
 88 180 l 1
 79 193 61 223 61 269 c 0
 61 299 69 358 121 411 c 1
 72 455 l 1
 117 497 l 1
 157 443 l 1
 196 468 234 480 275 480 c 0
 318 480 355 467 385 441 c 1
 442 499 l 1
 478 456 l 1
 413 409 l 1
EndSplineSet
Validated: 1
EndChar

StartChar: yen
Encoding: 165 165 102
Width: 456
GlyphClass: 2
Flags: W
HStem: 0 32<48.3167 116.442 210.971 271.595> 115 36<13.9398 135 217 333.259> 208 37<26.9928 149 232 346.402> 528 32<-15.6833 32.7921 120.44 171.595 318.405 355.995 415.416 472.447>
LayerCount: 2
Fore
SplineSet
120 508 m 0
 120 487 208 307 210 307 c 0
 213 307 250 355 342 485 c 0
 351 498 356 507 356 513 c 0
 356 522 349 525 323 528 c 0
 320 528 318 533 318 539 c 0
 318 548 322 560 327 560 c 0
 355 560 380 557 400 557 c 0
 420 557 443 560 467 560 c 0
 471 560 473 556 473 550 c 0
 473 541 469 529 463 528 c 0
 427 523 422 527 385 476 c 0
 320 386 318 389 256 299 c 0
 242 280 237 265 232 245 c 1
 341 245 l 2
 345 245 347 242 347 239 c 0
 347 217 344 208 322 208 c 2
 225 208 l 1
 222 188 220 170 217 151 c 1
 327 151 l 2
 331 151 334 148 334 145 c 0
 334 124 330 115 309 115 c 2
 213 115 l 1
 213 114 209 83 209 66 c 0
 209 39 210 38 267 32 c 0
 270 32 272 27 272 21 c 0
 272 12 268 0 263 0 c 0
 223 0 189 3 159 3 c 0
 126 3 91 0 53 0 c 0
 50 0 48 5 48 11 c 0
 48 20 51 31 57 32 c 0
 120 37 124 38 135 115 c 1
 18 115 l 2
 15 115 13 118 13 122 c 0
 13 140 18 151 37 151 c 2
 141 151 l 1
 144 173 147 193 149 208 c 1
 31 208 l 2
 28 208 26 211 26 215 c 0
 26 233 31 245 51 245 c 2
 151 245 l 1
 146 284 113 359 55 474 c 0
 28 527 26 524 -11 528 c 0
 -14 528 -16 533 -16 539 c 0
 -16 548 -13 560 -7 560 c 0
 19 560 40 557 74 557 c 0
 108 557 136 560 167 560 c 0
 170 560 172 555 172 549 c 0
 172 540 168 528 163 528 c 0
 132 525 120 523 120 508 c 0
EndSplineSet
Validated: 1
EndChar

StartChar: brokenbar
Encoding: 166 166 103
Width: 228
GlyphClass: 2
Flags: W
VStem: 68 163
LayerCount: 2
Fore
SplineSet
167 161 m 1
 122 -201 l 1
 68 -201 l 1
 113 161 l 1
 167 161 l 1
231 674 m 1
 186 312 l 1
 132 312 l 1
 177 674 l 1
 231 674 l 1
EndSplineSet
Validated: 1
EndChar

StartChar: section
Encoding: 167 167 104
Width: 414
GlyphClass: 2
Flags: W
HStem: -172 32<107.867 198.889> 628 32<201.443 297.257>
VStem: 19 61<223.058 330.134> 89 73<474.503 585.643> 244 72<-91.4693 17.1982> 326 63<157.188 263.074>
LayerCount: 2
Fore
SplineSet
244 -42 m 0
 244 85 19 70 19 239 c 0
 19 282 32 356 119 418 c 1
 101 441 89 466 89 506 c 0
 89 588 146 660 260 660 c 0
 343 660 392 614 392 567 c 0
 392 547 385 521 352 521 c 0
 289 521 343 628 258 628 c 0
 206 628 162 596 162 539 c 0
 162 520 168 467 236 427 c 0
 333 371 389 338 389 246 c 0
 389 203 375 130 289 69 c 1
 308 45 316 23 316 -11 c 0
 316 -107 241 -172 140 -172 c 0
 51 -172 14 -120 14 -80 c 0
 14 -60 23 -33 57 -33 c 0
 118 -33 62 -140 146 -140 c 0
 198 -140 244 -99 244 -42 c 0
267 96 m 1
 300 120 326 144 326 195 c 0
 326 266 278 298 205 345 c 0
 179 362 160 377 143 393 c 1
 111 368 80 345 80 291 c 0
 80 220 129 188 201 141 c 0
 228 124 250 111 267 96 c 1
EndSplineSet
Validated: 1
Substitution2: "'sups' Superscript in Latin lookup 11 subtable" section.sups
EndChar

StartChar: dieresis
Encoding: 168 168 105
Width: 260
GlyphClass: 2
Flags: W
HStem: 517 96<-11.3411 63.9197 138.659 213.92>
VStem: -22 98<529.08 602.371> 128 98<529.08 602.371>
LayerCount: 2
Fore
SplineSet
32 613 m 0
 55 613 76 595 76 571 c 0
 76 543 50 517 22 517 c 0
 -1 517 -22 535 -22 559 c 0
 -22 584 -3 613 32 613 c 0
182 613 m 0
 205 613 226 595 226 571 c 0
 226 543 200 517 172 517 c 0
 149 517 128 535 128 559 c 0
 128 584 147 613 182 613 c 0
EndSplineSet
Validated: 1
Substitution2: "'case' Case-Sensitive Forms in Latin lookup 7 subtable" dieresis.cap
EndChar

StartChar: copyright
Encoding: 169 169 106
Width: 608
GlyphClass: 2
Flags: W
HStem: 40 37<213.14 394.461> 160 35<268.802 373.682> 441 29<258.939 356.241> 563 37<213.333 394.461>
VStem: 17 44<218.625 418.381> 150 69<242.408 393.995> 397 26<363.743 391.944> 547 44<221.619 418.381>
LayerCount: 2
Fore
SplineSet
304 40 m 0
 147 40 17 166 17 320 c 0
 17 475 148 600 304 600 c 0
 460 600 591 475 591 320 c 0
 591 165 460 40 304 40 c 0
304 563 m 0
 167 563 61 455 61 320 c 0
 61 185 167 77 304 77 c 0
 440 77 547 185 547 320 c 0
 547 455 440 563 304 563 c 0
428 224 m 1
 408 193 363 160 308 160 c 0
 214 160 150 236 150 314 c 0
 150 413 231 470 310 470 c 0
 380 470 397 451 417 449 c 1
 423 366 l 1
 418 363 405 362 397 362 c 1
 380 408 363 441 306 441 c 0
 266 441 219 417 219 321 c 0
 219 252 261 195 317 195 c 0
 368 195 396 229 407 245 c 1
 417 242 423 230 428 224 c 1
EndSplineSet
Validated: 1
Substitution2: "'sups' Superscript in Latin lookup 11 subtable" copyright.sups
Substitution2: "'smcp' Lowercase to Small Capitals in Latin lookup 1 subtable" copyright.smcp
EndChar

StartChar: ordfeminine
Encoding: 170 170 107
Width: 304
GlyphClass: 2
Flags: W
HStem: 359 45<75.3512 125.403> 359 37<185.5 244.198> 607 30<126.05 211.527>
VStem: 14 56<405.889 534.757> 169 48<374.204 492.586>
LayerCount: 2
Fore
SplineSet
78 359 m 0xb8
 54 359 14 370 14 450 c 0
 14 544 97 637 161 637 c 0
 200 637 198 632 229 632 c 2
 254 632 l 1
 221 439 l 2
 220 428 217 413 217 406 c 0
 217 398 222 396 224 396 c 0
 230 396 242 406 258 429 c 1
 266 429 269 424 272 419 c 1
 258 384 234 359 196 359 c 0x78
 175 359 169 375 169 389 c 0
 169 396 170 409 173 421 c 2
 180 444 l 1
 179 448 l 1
 145 393 111 359 78 359 c 0xb8
70 463 m 0
 70 443 73 404 98 404 c 0xb8
 116 404 157 451 181 501 c 1
 193 537 196 596 196 596 c 1
 185 602 172 607 160 607 c 0
 111 607 70 522 70 463 c 0
EndSplineSet
Validated: 1
EndChar

StartChar: guillemotleft
Encoding: 171 171 108
Width: 456
GlyphClass: 2
Flags: W
HStem: 1 21G<186.256 223.585 372.255 409.584>
LayerCount: 2
Fore
SplineSet
446.735351562 430 m 1
 442.775390625 372 l 1
 389.234375 306 342.854492188 256 292.002929688 215 c 1
 333.889648438 179 370.510742188 129 412.178710938 59 c 1
 408.21875 1 l 1
 336.291992188 95 268.885742188 160 205.999023438 196 c 1
 209.955078125 235 l 1
 284.38671875 284 363.98046875 349 446.735351562 430 c 1
260.736328125 430 m 1
 256.775390625 372 l 1
 203.234375 306 156.85546875 256 106.00390625 215 c 1
 147.890625 179 184.510742188 129 226.1796875 59 c 1
 222.21875 1 l 1
 150.29296875 95 82.88671875 160 20 196 c 1
 23.9560546875 235 l 1
 98.3876953125 284 177.981445312 349 260.736328125 430 c 1
EndSplineSet
Validated: 1
EndChar

StartChar: logicalnot
Encoding: 172 172 109
Width: 456
GlyphClass: 2
Flags: W
HStem: 357 44<8 401>
LayerCount: 2
Fore
SplineSet
374 133 m 1
 401 357 l 1
 2 357 l 1
 8 401 l 1
 460 401 l 1
 427 133 l 1
 374 133 l 1
EndSplineSet
Validated: 1
EndChar

StartChar: registered
Encoding: 174 174 111
Width: 608
GlyphClass: 2
Flags: W
HStem: 40 37<213.14 394.461> 169 23<179.07 209.75 268.875 299.93 413.011 456.649> 296 24<263 306.79> 436 24<179.001 211.705 272.373 344.18> 563 37<213.333 394.461>
VStem: 17 44<218.625 418.381> 216 47<195.008 296 320 432.515> 367 54<331.02 423.242> 547 44<221.619 418.381>
LayerCount: 2
Fore
SplineSet
304 40 m 0
 147 40 17 166 17 320 c 0
 17 475 148 600 304 600 c 0
 460 600 591 475 591 320 c 0
 591 165 460 40 304 40 c 0
304 563 m 0
 167 563 61 455 61 320 c 0
 61 185 167 77 304 77 c 0
 440 77 547 185 547 320 c 0
 547 455 440 563 304 563 c 0
367 382 m 0
 367 416 337 436 303 436 c 0
 278 436 263 420 263 402 c 2
 263 320 l 1
 312 320 l 2
 342 320 367 336 367 382 c 0
184 460 m 0
 202 460 224 456 240 456 c 0
 256 456 292 460 312 460 c 0
 387 460 421 412 421 382 c 0
 421 343 388 314 357 304 c 1
 412 217 l 2
 422 201 434 192 448 192 c 0
 451 192 452 192 455 193 c 0
 458 189 459 182 459 176 c 1
 447 171 435 169 423 169 c 0
 403 169 379 178 362 207 c 2
 307 292 l 2
 303 295 268 296 263 296 c 1
 263 235 l 2
 263 203 268 197 295 193 c 0
 298 193 300 187 300 182 c 0
 300 177 298 170 295 170 c 0
 277 170 256 174 240 174 c 0
 224 174 202 170 184 170 c 0
 181 170 179 177 179 182 c 0
 179 187 181 193 184 193 c 0
 210 196 216 203 216 235 c 2
 216 395 l 2
 216 427 211 434 184 438 c 0
 181 438 179 443 179 448 c 0
 179 453 181 460 184 460 c 0
EndSplineSet
Validated: 1
Substitution2: "'sups' Superscript in Latin lookup 11 subtable" registered.sups
Substitution2: "'smcp' Lowercase to Small Capitals in Latin lookup 1 subtable" registered.smcp
EndChar

StartChar: macron
Encoding: 175 175 112
Width: 260
GlyphClass: 2
Flags: W
HStem: 543 44<-20.8405 239.391>
VStem: -22 263<544.648 586.289>
LayerCount: 2
Fore
SplineSet
212 543 m 2
 -12 543 l 2
 -15 543 -22 543 -22 559 c 0
 -22 571 -8 587 4 587 c 2
 228 587 l 2
 231 587 241 586 241 572 c 0
 241 560 225 543 212 543 c 2
EndSplineSet
Validated: 1
Substitution2: "'case' Case-Sensitive Forms in Latin lookup 7 subtable" macron.cap
EndChar

StartChar: degree
Encoding: 176 176 113
Width: 304
GlyphClass: 2
Flags: W
HStem: 493 34<78.1415 160.228> 659 33<92.5427 173.354>
VStem: 26 38<539.594 632.032> 188 38<552.466 646.947>
LayerCount: 2
Fore
SplineSet
114 493 m 0
 62 493 26 531 26 580 c 0
 26 637 76 692 139 692 c 0
 189 692 226 655 226 604 c 0
 226 541 169 493 114 493 c 0
64 582 m 0
 64 556 81 527 118 527 c 0
 159 527 188 566 188 601 c 0
 188 602 188 659 135 659 c 0
 87 659 64 611 64 582 c 0
EndSplineSet
Validated: 1
Substitution2: "'smcp' Lowercase to Small Capitals in Latin lookup 1 subtable" degree.smcp
EndChar

StartChar: plusminus
Encoding: 177 177 114
Width: 456
GlyphClass: 2
Flags: W
HStem: 37 50<30.2797 196 246 403.72> 196 50<56.2797 213 272 428.513> 390 20G<274 283>
LayerCount: 2
Fore
SplineSet
39 37 m 2
 35 37 26 38 26 49 c 0
 26 64 41 87 55 87 c 2
 196 87 l 1
 213 196 l 1
 63 196 l 2
 58 196 52 197 52 208 c 0
 52 223 67 246 81 246 c 2
 222 246 l 1
 244 384 l 2
 246 397 269 410 279 410 c 0
 287 410 293 406 296 396 c 1
 272 246 l 1
 423 246 l 2
 427 246 434 245 434 235 c 0
 434 220 416 196 402 196 c 2
 263 196 l 1
 246 87 l 1
 397 87 l 2
 402 87 409 85 409 76 c 0
 409 61 392 37 378 37 c 2
 39 37 l 2
EndSplineSet
Validated: 1
EndChar

StartChar: uni00B2
Encoding: 178 178 115
Width: 304
GlyphClass: 2
Flags: W
HStem: 364 42<80 209.086> 658 30<115.195 200.709>
VStem: 210 62<562.268 652.839>
LayerCount: 2
Fore
SplineSet
163 658 m 0
 71 658 127 587 72 587 c 0
 61 587 49 596 49 608 c 0
 49 629 84 688 172 688 c 0
 206 688 272 680 272 616 c 0
 272 513 133 531 80 406 c 1
 167 406 l 2
 198 406 220 435 235 463 c 1
 246 463 255 462 259 458 c 1
 246 422 235 391 226 364 c 1
 12 364 l 1
 34 523 210 515 210 614 c 0
 210 633 203 658 163 658 c 0
EndSplineSet
Validated: 1
EndChar

StartChar: uni00B3
Encoding: 179 179 116
Width: 304
GlyphClass: 2
Flags: W
HStem: 358 30<74.6905 164.067> 524 27<114.348 133.673> 658 30<117.682 193.64>
VStem: 57 51<606.061 649.482> 197 60<589.232 656.375> 201 64<421.215 516.486>
LayerCount: 2
Fore
SplineSet
201 476 m 0xf4
 201 520 163 526 134 526 c 0
 127 526 122 525 114 524 c 1
 114 533 114 545 115 551 c 1
 183 560 197 610 197 630 c 0
 197 652 178 658 164 658 c 0
 147 658 117 650 108 634 c 0
 102 623 101 605 78 605 c 0
 58 605 57 621 57 624 c 0
 57 642 94 688 180 688 c 0
 201 688 257 684 257 637 c 0xf8
 257 611 239 583 196 561 c 1
 199 561 265 553 265 487 c 0
 265 424 207 358 109 358 c 0
 84 358 18 368 18 398 c 0
 18 412 32 423 45 423 c 0
 59 423 68 418 73 406 c 0
 78 394 84 388 116 388 c 0
 181 388 201 443 201 476 c 0xf4
EndSplineSet
Validated: 1
EndChar

StartChar: acute
Encoding: 180 180 117
Width: 380
GlyphClass: 2
Flags: W
HStem: 480 170
VStem: 133 169
LayerCount: 2
Fore
SplineSet
243 650 m 1
 260 650 292 640 302 609 c 1
 210 528 150 480 144 480 c 0
 137 480 133 487 133 493 c 0
 133 503 168 554 243 650 c 1
EndSplineSet
Validated: 1
EndChar

StartChar: mu
Encoding: 181 181 118
Width: 547
GlyphClass: 2
Flags: W
HStem: -9 48<142.838 225.463> 390 20G<118 150 394 424>
VStem: 0 91<-251.605 -105.431> 324 75<10.3075 165.32>
LayerCount: 2
Fore
SplineSet
91 -35 m 0
 91 -36 95 -171 95 -180 c 0
 95 -247 64 -260 42 -260 c 0
 28 -260 0 -241 0 -209 c 0
 0 -171 34 -67 46 -7 c 0
 51 24 51 71 60 125 c 2
 96 334 l 2
 102 369 99 410 137 410 c 0
 163 410 181 406 181 384 c 0
 181 372 175 345 172 329 c 2
 138 137 l 2
 135 124 134 113 134 101 c 0
 134 77 138 39 188 39 c 0
 235 39 284 113 350 230 c 1
 372 334 l 2
 379 369 375 410 413 410 c 0
 435 410 457 407 457 384 c 0
 457 372 450 345 448 329 c 2
 406 116 l 2
 402 94 399 78 399 68 c 0
 399 63 399 49 410 49 c 0
 420 49 448 67 473 95 c 1
 487 95 493 85 496 77 c 1
 454 22 410 -9 362 -9 c 0
 328 -9 324 7 324 28 c 0
 324 47 327 79 333 105 c 2
 342 142 l 1
 339 143 l 1
 274 46 229 -9 151 -9 c 0
 133 -9 117 0 108 12 c 1
 99 12 91 12 91 -35 c 0
EndSplineSet
Validated: 1
EndChar

StartChar: paragraph
Encoding: 182 182 119
Width: 539
GlyphClass: 2
Flags: W
HStem: -250 32<177.139 226.561 294.793 349.975 416.439 460.784> 215 445<150.626 282.687> 615 31<397.4 449.086 518.629 593.272>
LayerCount: 2
Fore
SplineSet
420 -144 m 2xa0
 417 -165 415 -180 415 -190 c 0
 415 -213 424 -215 456 -218 c 0
 460 -219 461 -224 461 -230 c 0
 461 -239 458 -250 453 -250 c 0
 412 -250 408 -246 381 -246 c 0
 354 -246 350 -250 316 -250 c 0
 283 -250 280 -246 253 -246 c 0
 226 -246 221 -250 183 -250 c 0
 179 -250 177 -244 177 -237 c 0
 177 -228 180 -219 185 -218 c 0
 228 -212 231 -212 240 -143 c 2
 285 227 l 1
 270 220 239 215 207 215 c 0
 170 215 18 225 18 403 c 0
 18 540 99 660 249 660 c 0xc0
 324 660 378 646 429 646 c 0
 513 646 544 650 589 650 c 0
 592 650 594 645 594 638 c 0
 594 629 591 619 585 618 c 0
 520 613 513 607 507 561 c 2
 420 -144 l 2xa0
361 -145 m 2
 449 561 l 2
 450 572 450 580 450 587 c 0
 450 610 444 614 427 615 c 0xa0
 394 615 389 589 386 558 c 2
 299 -143 l 2
 296 -165 294 -180 294 -191 c 0
 294 -217 303 -218 320 -218 c 0
 346 -218 352 -217 361 -145 c 2
EndSplineSet
Validated: 1
Substitution2: "'sups' Superscript in Latin lookup 11 subtable" paragraph.sups
EndChar

StartChar: periodcentered
Encoding: 183 183 120
Width: 228
GlyphClass: 2
Flags: W
HStem: 167 106<52.875 131.649>
VStem: 39 108<181.984 259.25>
LayerCount: 2
Fore
SplineSet
99 273 m 0
 126 273 147 252 147 226 c 0
 147 195 118 167 87 167 c 0
 60 167 39 187 39 214 c 0
 39 241 60 273 99 273 c 0
EndSplineSet
Validated: 1
EndChar

StartChar: cedilla
Encoding: 184 184 121
Width: 260
GlyphClass: 2
Flags: W
HStem: -260 29<36.4345 119.364>
VStem: 157 61<-199.03 -114.048>
LayerCount: 2
Fore
SplineSet
84 -231 m 0
 122 -231 157 -180 157 -142 c 0
 157 -132 155 -114 137 -114 c 0
 118 -114 108 -115 91 -120 c 1
 85 -114 l 1
 159 7 l 1
 195 7 l 1
 141 -85 l 1
 149 -83 157 -82 166 -82 c 0
 177 -82 218 -86 218 -136 c 0
 218 -190 162 -260 85 -260 c 0
 53 -260 37 -253 14 -239 c 1
 16 -227 21 -220 29 -213 c 1
 54 -226 64 -231 84 -231 c 0
EndSplineSet
Validated: 1
EndChar

StartChar: uni00B9
Encoding: 185 185 122
Width: 304
GlyphClass: 2
Flags: W
HStem: 364 29<29.1159 92.9969 176.998 222.78>
VStem: 29 194<365.137 394.034>
LayerCount: 2
Fore
SplineSet
126 618 m 0
 113 618 94 612 67 603 c 1
 64 609 62 620 61 632 c 1
 110 649 139 661 187 688 c 0
 190 690 192 691 196 691 c 0
 199 691 203 690 205 688 c 2
 170 449 l 2
 169 444 169 439 169 435 c 0
 169 397 195 394 217 393 c 0
 221 393 223 388 223 382 c 0
 223 374 220 364 214 364 c 0
 184 364 163 365 130 365 c 0
 95 365 64 364 34 364 c 0
 31 364 29 370 29 376 c 0
 29 384 32 393 37 393 c 0
 66 395 109 398 116 449 c 2
 134 577 l 2
 135 589 136 598 136 604 c 0
 136 615 134 618 126 618 c 0
EndSplineSet
Validated: 1
EndChar

StartChar: ordmasculine
Encoding: 186 186 123
Width: 304
GlyphClass: 2
Flags: W
HStem: 358 28<93.7009 175.633> 595 26<108.629 187.628>
VStem: 2 58<411.448 553.047> 222 58<429.278 569.746>
LayerCount: 2
Fore
SplineSet
157 621 m 0
 172 621 280 617 280 503 c 0
 280 413 198 358 122 358 c 0
 53 358 2 402 2 480 c 0
 2 570 82 621 157 621 c 0
60 483 m 0
 60 420 92 386 133 386 c 0
 175 386 222 424 222 494 c 0
 222 505 219 595 149 595 c 0
 106 595 60 553 60 483 c 0
EndSplineSet
Validated: 1
EndChar

StartChar: guillemotright
Encoding: 187 187 124
Width: 456
GlyphClass: 2
Flags: W
HStem: 0 21G<33.7103 73.3774 212.71 252.377>
LayerCount: 2
Fore
SplineSet
211 0 m 1
 215.959960938 58 l 1
 267.44921875 125 315.880859375 174 366.732421875 215 c 1
 324.845703125 251 288.225585938 301 245.556640625 371 c 1
 250.516601562 429 l 1
 322.443359375 335 389.797851562 271 451.736328125 234 c 1
 448.780273438 195 l 1
 373.348632812 146 293.754882812 81 211 0 c 1
32 0 m 1
 36.9599609375 58 l 1
 88.44921875 125 136.880859375 174 187.732421875 215 c 1
 145.845703125 251 109.225585938 301 66.556640625 371 c 1
 71.5166015625 429 l 1
 143.443359375 335 210.797851562 271 272.736328125 234 c 1
 269.780273438 195 l 1
 194.348632812 146 114.754882812 81 32 0 c 1
EndSplineSet
Validated: 1
EndChar

StartChar: onequarter
Encoding: 188 188 125
Width: 608
GlyphClass: 2
LigCaretCntFixed: 1
Flags: W
HStem: -8 21G<44 116.684> 0 30<380.344 438.215 496.673 540.859> 99 34<353 449 506 558.419> 364 29<29.1159 92.9969 176.998 222.78> 635 20G<561.377 633.092>
LayerCount: 2
Fore
SplineSet
307 131 m 1x78
 432 227 431 229 481 321 c 1
 530 323 l 1
 535 318 l 1
 482 236 473 217 353 133 c 1
 454 133 l 1
 458 159 l 2
 459 169 479 179 495 179 c 0
 506 179 510 176 511 168 c 2
 506 133 l 1
 552 133 l 2
 556 133 561 130 561 125 c 0
 561 115 549 99 537 99 c 2
 501 99 l 1
 495 57 l 2
 495 33 506 32 537 30 c 0
 539 30 541 24 541 18 c 0
 541 10 538 0 532 0 c 0
 510 0 488 2 461 2 c 0
 429 2 407 0 385 0 c 0
 381 0 380 5 380 11 c 0
 380 19 384 30 390 30 c 0
 416 32 440 34 443 57 c 2
 449 99 l 1
 329 99 l 2
 308 99 307 123 307 131 c 1x78
577.672851562 655 m 1
 633.091796875 647 l 1
 100.418945312 -8 l 1xb8
 44 0 l 1
 577.672851562 655 l 1
126 618 m 0
 113 618 94 612 67 603 c 1
 64 609 62 620 61 632 c 1
 110 649 139 661 187 688 c 0
 190 690 192 691 196 691 c 0
 199 691 203 690 205 688 c 2
 170 449 l 2
 169 444 169 439 169 435 c 0
 169 397 195 394 217 393 c 0
 221 393 223 388 223 382 c 0
 223 374 220 364 214 364 c 0
 184 364 163 365 130 365 c 0
 95 365 64 364 34 364 c 0
 31 364 29 370 29 376 c 0
 29 384 32 393 37 393 c 0
 66 395 109 398 116 449 c 2
 134 577 l 2
 135 589 136 598 136 604 c 0
 136 615 134 618 126 618 c 0
EndSplineSet
Validated: 1
LCarets2: 2 215 424
EndChar

StartChar: onehalf
Encoding: 189 189 126
Width: 608
GlyphClass: 2
LigCaretCntFixed: 1
Flags: W
HStem: -8 21G<29 101.684> 0 42<408 537.086> 294 30<443.195 528.709> 364 29<44.1159 107.997 191.998 237.78> 635 20G<546.377 618.092>
VStem: 538 62<198.268 288.839>
LayerCount: 2
Fore
SplineSet
562.672851562 655 m 1x7c
 618.091796875 647 l 1
 85.4189453125 -8 l 1xbc
 29 0 l 1
 562.672851562 655 l 1x7c
141 618 m 0
 128 618 109 612 82 603 c 1
 79 609 77 620 76 632 c 1
 125 649 154 661 202 688 c 0
 205 690 207 691 211 691 c 0
 214 691 218 690 220 688 c 2
 185 449 l 2
 184 444 184 439 184 435 c 0
 184 397 210 394 232 393 c 0
 236 393 238 388 238 382 c 0
 238 374 235 364 229 364 c 0
 199 364 178 365 145 365 c 0
 110 365 79 364 49 364 c 0
 46 364 44 370 44 376 c 0
 44 384 47 393 52 393 c 0
 81 395 124 398 131 449 c 2
 149 577 l 2
 150 589 151 598 151 604 c 0
 151 615 149 618 141 618 c 0
491 294 m 0
 399 294 455 223 400 223 c 0
 389 223 377 232 377 244 c 0
 377 265 412 324 500 324 c 0
 534 324 600 316 600 252 c 0
 600 149 461 167 408 42 c 1
 495 42 l 2
 526 42 548 71 563 99 c 1
 574 99 583 98 587 94 c 1
 574 58 563 27 554 0 c 1
 340 0 l 1x7c
 362 159 538 151 538 250 c 0
 538 269 531 294 491 294 c 0
EndSplineSet
Validated: 1
LCarets2: 2 208 414
EndChar

StartChar: threequarters
Encoding: 190 190 127
Width: 608
GlyphClass: 2
LigCaretCntFixed: 1
Flags: W
HStem: -8 21G<34 106.684> 0 30<380.344 438.215 496.673 540.859> 99 34<353 449 506 558.419> 358 30<74.6905 164.067> 524 27<114.348 133.673> 635 20G<551.377 623.092> 658 30<117.682 193.64>
VStem: 57 51<606.061 649.482> 197 60<589.232 656.375> 201 64<421.215 516.486>
LayerCount: 2
Fore
SplineSet
307 131 m 1x7f
 432 227 431 229 481 321 c 1
 530 323 l 1
 535 318 l 1
 482 236 473 217 353 133 c 1
 454 133 l 1
 458 159 l 2
 459 169 479 179 495 179 c 0
 506 179 510 176 511 168 c 2
 506 133 l 1
 552 133 l 2
 556 133 561 130 561 125 c 0
 561 115 549 99 537 99 c 2
 501 99 l 1
 495 57 l 2
 495 33 506 32 537 30 c 0
 539 30 541 24 541 18 c 0
 541 10 538 0 532 0 c 0
 510 0 488 2 461 2 c 0
 429 2 407 0 385 0 c 0
 381 0 380 5 380 11 c 0
 380 19 384 30 390 30 c 0
 416 32 440 34 443 57 c 2
 449 99 l 1
 329 99 l 2
 308 99 307 123 307 131 c 1x7f
567.672851562 655 m 1
 623.091796875 647 l 1
 90.4189453125 -8 l 1xbf
 34 0 l 1
 567.672851562 655 l 1
201 476 m 0x3f40
 201 520 163 526 134 526 c 0
 127 526 122 525 114 524 c 1
 114 533 114 545 115 551 c 1
 183 560 197 610 197 630 c 0
 197 652 178 658 164 658 c 0
 147 658 117 650 108 634 c 0
 102 623 101 605 78 605 c 0
 58 605 57 621 57 624 c 0
 57 642 94 688 180 688 c 0
 201 688 257 684 257 637 c 0x3f80
 257 611 239 583 196 561 c 1
 199 561 265 553 265 487 c 0
 265 424 207 358 109 358 c 0
 84 358 18 368 18 398 c 0
 18 412 32 423 45 423 c 0
 59 423 68 418 73 406 c 0
 78 394 84 388 116 388 c 0
 181 388 201 443 201 476 c 0x3f40
EndSplineSet
Validated: 1
LCarets2: 2 260 447
EndChar

StartChar: questiondown
Encoding: 191 191 128
Width: 456
GlyphClass: 2
Flags: W
HStem: -260 33<162.242 276.563> 304 106<251.875 330.649>
VStem: 44 84<-198.871 -51.7527> 238 108<318.984 396.25> 313 72<-179.87 -105.161>
LayerCount: 2
Fore
SplineSet
313 -161 m 0xe8
 313 -143 305 -148 305 -132 c 0
 305 -112 318 -87 349 -87 c 0
 358 -87 385 -90 385 -121 c 0
 385 -174 318 -260 193 -260 c 0
 162 -260 44 -252 44 -131 c 0
 44 -38 116 9 177 49 c 0
 232 86 252 103 261 172 c 2
 267 216 l 2
 268 223 277 226 285 226 c 0
 293 226 301 223 300 216 c 2
 293 170 l 2
 287 127 273 68 200 9 c 0
 175 -12 128 -50 128 -125 c 0
 128 -133 130 -227 207 -227 c 0
 208 -227 313 -226 313 -161 c 0xe8
298 410 m 0
 325 410 346 389 346 363 c 0
 346 332 317 304 286 304 c 0
 259 304 238 324 238 351 c 0xf0
 238 378 259 410 298 410 c 0
EndSplineSet
Validated: 1
Substitution2: "'smcp' Lowercase to Small Capitals in Latin lookup 1 subtable" questiondown.smcp
EndChar

StartChar: AE
Encoding: 198 198 135
Width: 837
GlyphClass: 2
Flags: W
HStem: 0 44<483.335 648.633> 0 32<-45.7803 16.3425 103.428 156.857 321.141 394.61> 244 40<219.89 381> 331 39<457 611.444> 608 38<440.121 689.422> 630 20G<721.5 748> 646 20G<379.5 396>
VStem: 618 33<262.007 320.196> 642 33<389.38 437.994> 723 34<503.53 565.178>
LayerCount: 2
Fore
SplineSet
618 267 m 0x3940
 618 317 615 331 543 331 c 0
 516 331 502 330 457 328 c 1
 480 86 l 2
 484 50 490 44 513 44 c 2
 576 44 l 2xb940
 652 44 695 98 725 170 c 1
 740 170 743 170 759 164 c 1
 740 121 704 40 704 17 c 0
 704 3 694 0 694 0 c 1
 649 0 610 4 504 4 c 0
 411 4 370 0 325 0 c 0
 322 0 321 6 321 13 c 0
 321 22 324 32 330 32 c 0
 396 37 398 41 399 72 c 2
 385 244 l 1
 221 244 l 2
 197 244 193 242 185 226 c 2
 120 102 l 2
 108 80 102 65 102 55 c 0
 102 39 118 36 152 32 c 0
 156 32 157 26 157 19 c 0
 157 10 154 0 147 0 c 0
 102 0 100 4 54 4 c 0
 8 4 3 0 -42 0 c 0
 -45 0 -46 5 -46 12 c 0
 -46 21 -43 32 -37 32 c 0
 17 38 24 47 54 102 c 2
 347 642 l 2
 355 658 372 666 387 666 c 0x7340
 405 666 442 646 538 646 c 0x3940
 667 646 699 650 744 650 c 0x3540
 752 650 756 649 756 640 c 0
 756 634 754 614 754 581 c 0
 754 572 754 545 757 506 c 1
 746 501 735 501 723 501 c 1
 710 570 701 608 626 608 c 2
 459 608 l 2
 443 608 441 607 438 594 c 2
 454 372 l 1
 508 370 520 370 548 370 c 0
 620 370 632 381 642 433 c 0
 646 436 651 438 658 438 c 0
 665 438 673 436 675 433 c 0x38c0
 665 381 664 381 651 267 c 0
 647 264 641 262 634 262 c 0
 627 262 618 263 618 267 c 0x3940
381 284 m 1
 359 536 l 2
 358 546 358 549 356 549 c 0
 354 549 351 545 349 542 c 2
 222 298 l 2
 220 294 219 291 219 289 c 0
 219 285 225 284 242 284 c 2
 381 284 l 1
EndSplineSet
Validated: 1
Substitution2: "'c2sc' Capitals to Small Capitals in Latin lookup 2 subtable" AE.c2sc
EndChar

StartChar: Ccedilla
Encoding: 199 199 136
Width: 662
GlyphClass: 2
Flags: W
HStem: -260 29<226.435 309.364> 624 36<330.857 501.044>
VStem: 62 97<171.062 428.313> 347 61<-199.03 -114.048> 611 34<457.59 513.083>
LayerCount: 2
Fore
SplineSet
274 -231 m 0
 312 -231 347 -180 347 -142 c 0
 347 -132 344 -114 326 -114 c 0
 307 -114 298 -115 281 -120 c 1
 274 -114 l 1
 339 -10 l 1
 305 -8 62 14 62 300 c 0
 62 536 237 660 402 660 c 0
 599 660 564 622 643 614 c 1
 642 599 642 584 642 570 c 0
 642 533 644 498 645 460 c 1
 633 455 623 454 611 454 c 1
 597 540 546 624 408 624 c 0
 288 624 159 507 159 292 c 0
 159 252 167 27 352 25 c 0
 424 25 489 54 552 108 c 1
 568 101 572 89 576 71 c 1
 514 20 447 -6 375 -10 c 1
 331 -85 l 1
 339 -83 347 -82 356 -82 c 0
 367 -82 408 -86 408 -136 c 0
 408 -190 352 -260 275 -260 c 0
 243 -260 227 -253 204 -239 c 1
 206 -227 211 -220 219 -213 c 1
 244 -226 254 -231 274 -231 c 0
EndSplineSet
Validated: 1
Substitution2: "'c2sc' Capitals to Small Capitals in Latin lookup 2 subtable" Ccedilla.c2sc
EndChar

StartChar: Eth
Encoding: 208 208 145
Width: 707
GlyphClass: 2
Flags: W
HStem: -10 40<217.359 429.468> 0 32<14.2197 91.2205> 287 39<63 141 230 328> 620 40<286.625 450.176> 620 26<100.055 164.938 293.75 339.42>
VStem: 596 92<226.985 459.667>
LayerCount: 2
Fore
SplineSet
596 339 m 0xb4
 596 482 517 620 359 620 c 0
 297 620 278 611 266 548 c 0
 245 435 230 328 230 326 c 1
 334 326 l 1
 328 287 l 1
 225 287 l 1
 225 285 203 96 203 85 c 0
 203 34 248 30 335 30 c 0
 507 30 596 188 596 339 c 0xb4
362 660 m 0
 585 660 688 508 688 349 c 0
 688 174 565 -10 341 -10 c 0xb4
 269 -10 249 4 144 4 c 0
 98 4 64 0 19 0 c 0
 16 0 14 5 14 12 c 0
 14 21 17 32 23 32 c 0
 94 38 99 39 111 102 c 0
 121 161 131 217 141 287 c 1
 57 287 l 1
 63 326 l 1
 146 326 l 1
 146 329 176 546 176 580 c 0
 176 610 165 613 106 618 c 0
 102 618 100 624 100 631 c 0
 100 640 103 650 110 650 c 0
 155 650 188 646 234 646 c 0x6c
 280 646 317 660 362 660 c 0
EndSplineSet
Validated: 1
Substitution2: "'c2sc' Capitals to Small Capitals in Latin lookup 2 subtable" Eth.c2sc
EndChar

StartChar: Ntilde
Encoding: 209 209 146
Width: 734
GlyphClass: 2
Flags: W
HStem: -16 21G<542.5 560.5> 0 32<8.21973 76.4715 156.955 207.78> 618 32<110.22 150.049 551.22 591.654 676.371 721.781> 722 53<443.396 523.327> 773 55<337.063 420.347>
LayerCount: 2
Fore
SplineSet
492 775 m 0x30
 514 775 522 785 542 827 c 1
 553 827 563 825 568 821 c 1
 547 761 517 722 471 722 c 0x30
 435 722 417 773 370 773 c 0
 344 773 336 758 322 725 c 1
 311 725 300 726 295 730 c 1
 317 789 342 828 385 828 c 0x28
 436 828 439 775 492 775 c 0x30
EndSplineSet
Refer: 48 78 N 1 0 0 1 -10 0 2
Validated: 1
Substitution2: "'c2sc' Capitals to Small Capitals in Latin lookup 2 subtable" Ntilde.c2sc
EndChar

StartChar: multiply
Encoding: 215 215 152
Width: 456
GlyphClass: 2
Flags: W
HStem: 73 315
LayerCount: 2
Fore
SplineSet
256 230 m 1
 362 108 l 1
 323 73 l 1
 217 195 l 1
 79 73 l 1
 48 108 l 1
 186 230 l 1
 79 353 l 1
 118 388 l 1
 225 265 l 1
 364 388 l 1
 394 353 l 1
 256 230 l 1
EndSplineSet
Validated: 1
EndChar

StartChar: Oslash
Encoding: 216 216 153
Width: 710
GlyphClass: 2
Flags: W
HStem: -10 36<274.628 427.098> 624 36<329.646 481.174>
VStem: 62 96<169.499 428.313> 600 95<219.333 475.138>
LayerCount: 2
Fore
SplineSet
126 94 m 1
 86 144 62 211 62 300 c 0
 62 536 236 660 401 660 c 0
 466 660 529 641 580 603 c 1
 640 670 l 1
 674 645 l 1
 612 575 l 1
 656 530 695 457 695 344 c 0
 695 112 521 -10 355 -10 c 0
 282 -10 210 14 156 62 c 1
 82 -20 l 1
 47 5 l 1
 126 94 l 1
201 113 m 1
 237 54 293 26 351 26 c 0
 470 26 600 143 600 356 c 0
 600 415 591 473 565 522 c 1
 201 113 l 1
181 154 m 1
 541 559 l 1
 505 603 456 624 406 624 c 0
 287 624 158 507 158 292 c 0
 158 263 160 208 181 154 c 1
EndSplineSet
Validated: 1
Substitution2: "'c2sc' Capitals to Small Capitals in Latin lookup 2 subtable" Oslash.c2sc
EndChar

StartChar: Thorn
Encoding: 222 222 159
Width: 563
GlyphClass: 2
Flags: W
HStem: 0 32<14.0044 93.3141 212.817 283.996> 150 33<217.669 355.808> 158 30<217 283.28> 484 40<265 345.135> 495 33<265.849 411.194> 618 32<99.0044 170.586 290.373 368.996>
VStem: 456 92<286.682 455.507>
LayerCount: 2
Fore
SplineSet
177 576 m 0xa6
 177 612 162 614 105 618 c 0
 101 618 99 627 99 634 c 3
 99 641 105 650 109 650 c 0
 154 650 200 646 236 646 c 0
 272 646 318 650 363 650 c 0
 367 650 369 641 369 634 c 3
 369 627 363 618 359 618 c 0
 288 610 280 611 269 548 c 0
 268 540 266 532 265 524 c 1xb6
 300 527 333 528 351 528 c 0
 512 528 548 443 548 374 c 0
 548 271 463 150 286 150 c 0xce
 253 150 229 153 214 158 c 1
 210 124 206 91 206 75 c 0
 206 39 220 38 278 32 c 0
 282 32 284 23 284 16 c 3
 284 9 278 0 274 0 c 0
 227 0 183 4 148 4 c 0
 110 4 64 0 20 0 c 0
 16 0 14 9 14 16 c 3
 14 23 20 32 24 32 c 0
 95 39 102 39 114 102 c 0
 115 107 177 485 177 576 c 0xa6
217 188 m 1
 231 185 248 183 285 183 c 0
 316 183 456 194 456 381 c 0
 456 472 399 495 346 495 c 0xce
 328 495 281 490 258 484 c 1
 248 427 243 389 238 350 c 0
 233 313 226 255 217 188 c 1
EndSplineSet
Validated: 1
Substitution2: "'c2sc' Capitals to Small Capitals in Latin lookup 2 subtable" Thorn.c2sc
EndChar

StartChar: germandbls
Encoding: 223 223 160
Width: 536
GlyphClass: 2
Flags: W
HStem: -10 33<275.817 357.884> 0 32<2.00364 64.5195 157.813 194.996> 361 39<61.0743 119> 626 34<285.884 395.998>
VStem: 227 47<25.4289 107.062> 414 87<103.521 256.541 496.384 613.313>
LayerCount: 2
Fore
SplineSet
186 317 m 0xbc
 182 289 156 92 156 63 c 0
 156 35 167 34 189 32 c 0
 194 31 195 23 195 16 c 3
 195 9 190 0 185 0 c 0
 164 0 142 4 107 4 c 0
 69 4 46 0 8 0 c 0
 3 0 2 9 2 16 c 3
 2 23 7 31 12 32 c 0x7c
 56 37 69 37 77 80 c 0
 84 117 102 246 113 324 c 2
 119 361 l 1
 66 361 l 2
 62 361 59 362 59 367 c 3
 59 380 64 400 87 400 c 2
 124 400 l 1
 136 479 160 660 362 660 c 0
 458 660 500 614 500 561 c 0
 500 481 415 428 350 391 c 1
 349 389 l 1
 416 342 501 279 501 192 c 0
 501 114 439 -10 319 -10 c 0
 246 -10 227 29 227 68 c 0
 227 120 263 121 264 121 c 0
 281 121 288 114 288 99 c 0
 288 75 274 66 274 48 c 0
 274 23 301 23 323 23 c 0
 371 23 414 110 414 176 c 0
 414 251 357 317 288 376 c 1
 289 389 l 1
 353 426 416 472 416 555 c 0
 416 598 395 626 349 626 c 0
 231 626 214 521 186 317 c 0xbc
EndSplineSet
Validated: 1
Substitution2: "'ss03' Style Set 3 in Latin lookup 8 subtable" germandbls.ss03
Substitution2: "'smcp' Lowercase to Small Capitals in Latin lookup 1 subtable" germandbls.smcp
EndChar

StartChar: ae
Encoding: 230 230 167
Width: 684
GlyphClass: 2
Flags: W
HStem: -10 56<408.875 513.097> -9 41<101.273 234.297> 189 32<176.425 293 374 478.75> 379 30<166.509 280.207 464.705 539.869>
VStem: 14 74<46.037 138.131> 65 77<276.382 351.806> 558 63<271.53 367.445>
LayerCount: 2
Fore
SplineSet
293 189 m 1x7a
 240 188 88 178 88 88 c 0
 88 65 99 32 167 32 c 0
 264 32 280 115 293 189 c 1x7a
306 301 m 0
 306 311 304 379 235 379 c 0
 203 379 142 370 142 328 c 0
 142 318 145 318 145 310 c 0
 145 288 124 272 99 272 c 0
 91 272 65 274 65 304 c 0
 65 362 155 409 244 409 c 0
 267 409 342 402 371 346 c 1
 415 387 470 410 518 410 c 0
 586 410 621 360 621 316 c 0
 621 253 547 187 372 187 c 1
 378 67 424 46 462 46 c 0
 520 46 570 99 585 119 c 1
 597 119 603 111 608 101 c 1
 557 30 501 -10 432 -10 c 0xb6
 383 -10 340 15 315 62 c 1
 272 15 210 -9 157 -9 c 0
 100 -9 14 5 14 85 c 0
 14 203 185 219 299 221 c 1
 304 251 306 281 306 301 c 0
374 219 m 1
 499 219 558 273 558 318 c 0
 558 331 553 376 508 376 c 0
 473 376 392 346 374 219 c 1
EndSplineSet
Validated: 1
Substitution2: "'smcp' Lowercase to Small Capitals in Latin lookup 1 subtable" ae.smcp
EndChar

StartChar: ccedilla
Encoding: 231 231 168
Width: 435
GlyphClass: 2
Flags: W
HStem: -260 29<24.5711 106.197> 376 34<175.617 265.968>
VStem: 15 78<90.3368 266.711> 145 61<-199.03 -114.048> 271 70<294.594 371.778>
LayerCount: 2
Fore
SplineSet
93 187 m 0
 93 164 97 46 184 46 c 0
 220 46 264 69 307 119 c 1
 316 119 326 110 329 101 c 1
 283 34 227 -2 174 -9 c 1
 129 -85 l 1
 137 -83 145 -82 154 -82 c 0
 165 -82 206 -86 206 -136 c 0
 206 -190 151 -260 74 -260 c 0
 42 -260 25 -253 2 -239 c 1
 4 -227 9 -220 17 -213 c 1
 42 -226 52 -231 72 -231 c 0
 110 -231 145 -180 145 -142 c 0
 145 -132 143 -114 125 -114 c 0
 106 -114 96 -115 79 -120 c 1
 73 -114 l 1
 137 -9 l 1
 84 -3 15 39 15 158 c 0
 15 322 140 410 236 410 c 0
 314 410 341 353 341 313 c 0
 341 291 319 274 293 274 c 0
 273 274 263 292 263 308 c 0
 263 322 271 325 271 340 c 0
 271 349 268 376 228 376 c 0
 175 376 93 317 93 187 c 0
EndSplineSet
Validated: 1
Substitution2: "'smcp' Lowercase to Small Capitals in Latin lookup 1 subtable" ccedilla.smcp
EndChar

StartChar: eth
Encoding: 240 240 177
Width: 486
GlyphClass: 2
Flags: W
HStem: -10 38<139.456 257.311> 375 35<190.706 320.767>
VStem: 14 79<76.3211 254.412> 351 83<167.955 392.274>
LayerCount: 2
Fore
SplineSet
14 153 m 0
 14 298 134 410 263 410 c 0
 289 410 322 404 344 395 c 1
 338 444 323 511 293 554 c 1
 172 486 l 1
 155 516 l 1
 272 581 l 1
 259 597 l 2
 241 618 221 635 201 651 c 1
 220 670 l 1
 252 652 286 631 315 605 c 1
 433 671 l 1
 449 642 l 1
 341 580 l 1
 357 562 l 2
 425 483 434 355 434 292 c 0
 434 121 326 -10 169 -10 c 0
 59 -10 14 70 14 153 c 0
93 159 m 0
 93 157 95 28 194 28 c 0
 302 28 351 160 351 285 c 0
 351 315 350 326 348 331 c 0
 331 358 297 375 255 375 c 0
 130 375 93 231 93 159 c 0
EndSplineSet
Validated: 1
Substitution2: "'smcp' Lowercase to Small Capitals in Latin lookup 1 subtable" eth.smcp
EndChar

StartChar: divide
Encoding: 247 247 184
Width: 456
GlyphClass: 2
Flags: W
HStem: 34 98<156.584 228.001> 219 49<30 416> 359 99<210.942 282.976>
VStem: 142 100<48.2754 117.31> 197 100<373.626 443.813>
LayerCount: 2
Fore
SplineSet
142 74 m 0xf0
 142 103 169 132 201 132 c 0
 224 132 242 116 242 91 c 0
 242 58 211 34 183 34 c 0
 159 34 142 51 142 74 c 0xf0
197 400 m 0xe8
 197 430 224 458 256 458 c 0
 279 458 297 440 297 416 c 0
 297 384 266 359 238 359 c 0
 213 359 197 377 197 400 c 0xe8
425 268 m 1
 416 219 l 1
 20 219 l 1
 30 268 l 1
 425 268 l 1
EndSplineSet
Validated: 1
EndChar

StartChar: oslash
Encoding: 248 248 185
Width: 461
GlyphClass: 2
Flags: W
HStem: -10 34<153.488 244.881> 376 34<167.088 259.852>
VStem: 15 83<105.713 292.388> 318 83<117.227 281.872>
LayerCount: 2
Fore
SplineSet
65 44 m 1
 21 92 15 151 15 186 c 0
 15 340 120 410 218 410 c 0
 256 410 297 394 328 374 c 1
 370 425 l 1
 404 402 l 1
 359 348 l 1
 401 301 401 245 401 219 c 0
 401 73 291 -10 192 -10 c 0
 159 -10 126 -1 97 17 c 1
 48 -45 l 1
 13 -20 l 1
 65 44 l 1
309 283 m 1
 134 62 l 1
 152 36 176 24 199 24 c 0
 255 24 318 94 318 206 c 0
 318 225 318 252 309 283 c 1
290 325 m 1
 272 354 247 376 216 376 c 0
 161 376 98 312 98 198 c 0
 98 180 100 143 113 104 c 1
 290 325 l 1
EndSplineSet
Validated: 1
Substitution2: "'smcp' Lowercase to Small Capitals in Latin lookup 1 subtable" oslash.smcp
EndChar

StartChar: thorn
Encoding: 254 254 191
Width: 500
GlyphClass: 2
Flags: W
HStem: -250 32<-21.9804 23.3964 101.164 150.946> -10 34<160.321 279.05> 365 45<203.352 323.57> 611 55<63.9912 105.416>
VStem: 108 74<383.146 644.872> 373 77<138.499 309.17>
LayerCount: 2
Fore
SplineSet
294 410 m 0
 326 410 450 400 450 239 c 0
 450 93 327 -10 223 -10 c 0
 187 -10 151 4 127 25 c 1
 111 -80 97 -170 97 -185 c 0
 97 -213 118 -215 145 -218 c 0
 149 -219 151 -225 151 -232 c 3
 151 -241 148 -250 144 -250 c 0
 103 -250 93 -246 64 -246 c 0
 32 -246 23 -250 -15 -250 c 0
 -19 -250 -22 -243 -22 -235 c 3
 -22 -227 -20 -219 -15 -218 c 0
 19 -213 27 -211 32 -169 c 2
 84 288 l 1
 59 268 37 243 18 215 c 1
 -2 229 l 1
 15 264 48 300 90 330 c 1
 103 435 108 514 108 560 c 0
 108 599 107 608 41 611 c 0
 36 611 33 620 33 628 c 3
 33 633 35 638 39 639 c 0
 78 645 129 666 161 666 c 0
 182 666 182 646 182 628 c 3
 182 579 176 451 171 374 c 1
 214 394 258 410 294 410 c 0
373 213 m 0
 373 231 369 365 261 365 c 0
 241 365 206 356 166 338 c 1
 160 279 134 67 133 64 c 0
 154 39 186 24 219 24 c 0
 292 24 373 96 373 213 c 0
EndSplineSet
Validated: 1
Substitution2: "'smcp' Lowercase to Small Capitals in Latin lookup 1 subtable" thorn.smcp
EndChar

StartChar: dotlessi
Encoding: 305 305 193
Width: 276
GlyphClass: 2
Flags: W
HStem: -10 58<75 147.345> 361 55<39 160>
VStem: 47 79<8.31573 175.444> 96 83<251.829 401.85>
LayerCount: 2
Fore
SplineSet
89 -10 m 0xe0
 61 -10 47 -5 47 25 c 0xe0
 47 82 96 309 96 339 c 0
 96 358 80 359 39 361 c 0
 35 361 31 370 31 377 c 0
 31 383 33 388 37 389 c 0
 77 395 128 416 160 416 c 0
 172 416 179 416 179 395 c 0xd0
 179 367 126 69 126 66 c 0
 126 53 129 48 137 48 c 0
 147 48 175 66 200 94 c 1
 214 94 220 84 223 76 c 1
 183 21 137 -10 89 -10 c 0xe0
EndSplineSet
Validated: 1
EndChar

StartChar: OE
Encoding: 338 338 194
Width: 826
GlyphClass: 2
Flags: W
HStem: -10 36<232.844 322.201> 4 40<429.828 655.785> 331 39<463 621.06> 608 38<506.127 698.783> 624 36<285.646 393.882> 630 20G<732.5 757>
VStem: 18 96<170.762 428.313> 628 33<262.039 320.196> 651 33<389.38 437.994> 733 34<503.53 565.178>
LayerCount: 2
Fore
SplineSet
307 26 m 0xaa40
 320 26 325 39 336 102 c 0
 337 107 399 495 399 575 c 0
 399 612 388 624 362 624 c 0
 243 624 114 507 114 292 c 0
 114 256 122 26 307 26 c 0xaa40
628 267 m 0x3340
 628 313 626 331 553 331 c 0
 526 331 508 330 457 328 c 1
 436 170 428 89 428 71 c 0
 428 46 441 44 473 44 c 2
 586 44 l 2
 662 44 704 98 734 170 c 1
 749 170 752 170 768 164 c 1
 748 120 713 26 713 16 c 0
 713 6 707 0 704 0 c 0
 659 0 620 4 490 4 c 0x7340
 389 4 385 -10 311 -10 c 0
 174 -10 18 77 18 300 c 0
 18 536 192 660 357 660 c 0xab40
 434 660 436 646 547 646 c 0x3340
 676 646 710 650 755 650 c 0x2740
 759 650 765 640 765 633 c 0
 765 628 763 598 763 567 c 0
 763 556 764 521 767 506 c 1
 756 501 745 501 733 501 c 1
 720 570 710 608 635 608 c 2
 562 608 l 2
 512 608 502 604 492 548 c 0
 481 490 473 438 463 372 c 1
 514 370 531 370 558 370 c 0
 630 370 641 381 651 433 c 0
 655 436 661 438 668 438 c 0
 675 438 682 436 684 433 c 0x32c0
 674 381 674 381 661 267 c 0
 657 264 650 262 643 262 c 0
 636 262 628 263 628 267 c 0x3340
EndSplineSet
Validated: 1
Substitution2: "'c2sc' Capitals to Small Capitals in Latin lookup 2 subtable" OE.c2sc
EndChar

StartChar: oe
Encoding: 339 339 195
Width: 706
GlyphClass: 2
Flags: W
HStem: -10 56<430.251 535.097> -10 34<153.968 243.9> 187 32<396 494.627> 376 34<166.942 260.933 477.571 566.617>
VStem: 14 83<91.4074 293.269> 317 77<104.759 187 219 287.774> 580 63<271.53 367.445>
LayerCount: 2
Fore
SplineSet
191 -10 m 0x7e
 106 -10 14 52 14 191 c 0
 14 337 120 410 218 410 c 0
 279 410 341 382 374 327 c 1
 420 381 485 410 540 410 c 0
 608 410 643 360 643 316 c 0
 643 253 569 187 394 187 c 1
 400 67 446 46 484 46 c 0
 542 46 592 99 607 119 c 1
 619 119 625 111 630 101 c 1
 579 30 523 -10 454 -10 c 0xbe
 407 -10 365 13 340 57 c 1
 299 13 244 -10 191 -10 c 0x7e
396 219 m 1
 521 219 580 273 580 318 c 0
 580 331 575 376 530 376 c 0
 495 376 414 346 396 219 c 1
317 210 m 0
 317 315 270 376 216 376 c 0
 161 376 97 311 97 203 c 0
 97 109 135 24 197 24 c 0x7e
 253 24 317 96 317 210 c 0
EndSplineSet
Validated: 1
Substitution2: "'smcp' Lowercase to Small Capitals in Latin lookup 1 subtable" oe.smcp
EndChar

StartChar: florin
Encoding: 402 402 201
Width: 456
GlyphClass: 2
Flags: W
HStem: -260 38<48.9133 96.6588> 361 39<78.0149 173.53 259 374> 626 34<303.807 353.511>
VStem: -22 67<-221.954 -169.945>
LayerCount: 2
Fore
SplineSet
174 361 m 1
 85 361 l 2
 81 361 78 363 78 368 c 2
 78 380 l 2
 78 388 83 400 101 400 c 2
 133 400 l 2
 169 400 186.080078125 415.990234375 190 445 c 0
 210 593 273 660 331 660 c 0
 411 660 434 621 434 592 c 0
 434 572 422 555 402 555 c 0
 342 555 376 626 330 626 c 0
 312 626 287.379882812 608.809570312 273 503 c 2
 259 400 l 1
 366 400 l 2
 371 400 374 397 374 393 c 2
 374 374 l 2
 374 365 360 361 351 361 c 2
 253 361 l 1
 251 345 l 2
 204 -34 173 -260 64 -260 c 0
 8 -260 -22 -224 -22 -203 c 0
 -22 -188 -10 -168 10 -168 c 0
 28 -168 39 -176 45 -190 c 0
 52 -202 45 -222 67 -222 c 0
 147 -222 146 92 166 278 c 2
 174 361 l 1
EndSplineSet
Validated: 1
EndChar

StartChar: uni0237
Encoding: 567 567 202
Width: 276
GlyphClass: 2
Flags: W
HStem: 361 55<37 158>
VStem: 94 83<252.714 401.85>
LayerCount: 2
Fore
SplineSet
-11 -260 m 0
 -25 -260 -46 -257 -46 -243 c 0
 -46 -236 -11 -250 11 -165 c 0
 25 -110 94 333 94 340 c 0
 94 358 76 359 37 361 c 0
 33 361 30 370 30 377 c 0
 30 383 32 388 36 389 c 0
 76 395 126 416 158 416 c 0
 170 416 177 416 177 395 c 0
 177 379 172 351 164 299 c 0
 114 -6 72 -260 -11 -260 c 0
EndSplineSet
Validated: 1
EndChar

StartChar: circumflex
Encoding: 710 710 203
Width: 276
GlyphClass: 2
Flags: W
LayerCount: 2
Fore
SplineSet
174 630 m 1
 237 546 252 524 252 515 c 0
 252 506 243 500 237 500 c 0
 232 500 199 521 142 561 c 1
 71 519 36 500 31 500 c 0
 24 500 20 507 20 513 c 0
 20 523 37 539 130 630 c 1
 174 630 l 1
EndSplineSet
Validated: 1
Substitution2: "'case' Case-Sensitive Forms in Latin lookup 7 subtable" circumflex.cap
EndChar

StartChar: caron
Encoding: 711 711 204
Width: 276
GlyphClass: 2
Flags: W
LayerCount: 2
Fore
SplineSet
98 500 m 1
 35 585 20 606 20 615 c 0
 20 624 29 630 35 630 c 0
 40 630 62 616 130 569 c 1
 207 614 236 630 241 630 c 0
 248 630 252 623 252 617 c 0
 252 607 233 588 142 500 c 1
 98 500 l 1
EndSplineSet
Validated: 1
Substitution2: "'case' Case-Sensitive Forms in Latin lookup 7 subtable" caron.cap
EndChar

StartChar: uni02CA
Encoding: 714 714 205
Width: 276
GlyphClass: 2
Flags: W
LayerCount: 2
Fore
SplineSet
169 650 m 1
 186 650 218 640 228 609 c 1
 136 528 76 480 70 480 c 0
 63 480 59 487 59 493 c 0
 59 503 94 554 169 650 c 1
EndSplineSet
Validated: 1
Substitution2: "'case' Case-Sensitive Forms in Latin lookup 7 subtable" uni02CA.cap
EndChar

StartChar: uni02CB
Encoding: 715 715 206
Width: 276
GlyphClass: 2
Flags: W
LayerCount: 2
Fore
SplineSet
138 650 m 1
 187 561 216 504 216 495 c 0
 216 486 207 480 201 480 c 0
 195 480 145 528 67 609 c 1
 85 640 121 650 138 650 c 1
EndSplineSet
Validated: 1
Substitution2: "'case' Case-Sensitive Forms in Latin lookup 7 subtable" uni02CB.cap
EndChar

StartChar: dotaccent
Encoding: 729 729 207
Width: 276
GlyphClass: 2
Flags: W
LayerCount: 2
Fore
SplineSet
145 613 m 0
 168 613 189 595 189 571 c 0
 189 543 163 517 135 517 c 0
 112 517 91 535 91 559 c 0
 91 584 110 613 145 613 c 0
EndSplineSet
Validated: 1
Substitution2: "'case' Case-Sensitive Forms in Latin lookup 7 subtable" dotaccent.cap
EndChar

StartChar: ring
Encoding: 730 730 208
Width: 276
GlyphClass: 2
Flags: W
LayerCount: 2
Fore
SplineSet
145 612 m 0
 112 612 96 581 96 556 c 0
 96 552 97 518 132 518 c 0
 164 518 181 547 181 574 c 0
 181 583 178 612 145 612 c 0
150 640 m 0
 187 640 216 612 216 575 c 0
 216 531 174 490 128 490 c 0
 91 490 61 519 61 555 c 0
 61 599 106 640 150 640 c 0
EndSplineSet
Validated: 1
Substitution2: "'case' Case-Sensitive Forms in Latin lookup 7 subtable" ring.cap
EndChar

StartChar: tilde
Encoding: 732 732 209
Width: 276
GlyphClass: 2
Flags: W
LayerCount: 2
Fore
SplineSet
198 564 m 0
 220 564 228 574 248 616 c 1
 259 616 269 614 274 610 c 1
 253 550 223 511 177 511 c 0
 141 511 123 562 76 562 c 0
 50 562 42 547 28 514 c 1
 17 514 6 515 1 519 c 1
 23 578 48 617 91 617 c 0
 142 617 145 564 198 564 c 0
EndSplineSet
Validated: 1
Substitution2: "'case' Case-Sensitive Forms in Latin lookup 7 subtable" tilde.cap
EndChar

StartChar: uni1E9E
Encoding: 7838 7838 210
Width: 731
GlyphClass: 2
Flags: W
HStem: -10 39<372.664 494.036> 0 32<-8.78027 68.2205 185.088 253.857> 325 31<485.999 552> 624 36<386.842 542.155>
VStem: 305 30<82.3945 152.093> 562 91<119.426 264.859>
LayerCount: 2
Fore
SplineSet
562 193 m 0xbc
 562 221 552 325 399 325 c 0
 393 325 388 325 381 324 c 1
 379 348 l 2
 381 350 554 566 554 594 c 0
 554 608 507 624 466 624 c 0
 347 624 237 529 207 320 c 0
 207 318 180 108 180 73 c 0
 180 38 190 37 248 32 c 0
 252 32 254 26 254 19 c 0
 254 10 251 0 244 0 c 0
 199 0 167 4 121 4 c 0
 75 4 41 0 -4 0 c 0
 -7 0 -9 5 -9 12 c 0
 -9 21 -6 32 0 32 c 0x7c
 71 38 76 39 88 102 c 0
 107 204 113 243 120 295 c 0
 148 496 227 660 489 660 c 0
 551 660 614 649 669 629 c 1
 666 605 l 1
 486 369 l 2
 483 366 482 364 482 362 c 0
 481 358 483 356 487 356 c 0
 580 356 653 288 653 202 c 0
 653 107 566 -10 416 -10 c 0
 352 -10 339 9 296 18 c 1
 300 45 302 75 305 150 c 1
 315 154 326 154 335 154 c 1
 342 74 364 29 431 29 c 0
 533 29 562 143 562 193 c 0xbc
EndSplineSet
Validated: 1
Substitution2: "'c2sc' Capitals to Small Capitals in Latin lookup 2 subtable" uni1E9E.c2sc
EndChar

StartChar: uni2010
Encoding: 8208 8208 218
Width: 304
GlyphClass: 2
Flags: W
LayerCount: 2
Fore
SplineSet
269 196 m 2
 53 196 l 2
 46 196 40 200 40 213 c 0
 40 230 59 246 71 246 c 2
 290 246 l 2
 294 246 302 246 302 228 c 0
 302 216 282 196 269 196 c 2
EndSplineSet
Validated: 1
EndChar

StartChar: uni2011
Encoding: 8209 8209 219
Width: 304
GlyphClass: 2
Flags: W
LayerCount: 2
Fore
SplineSet
269 196 m 2
 53 196 l 2
 46 196 40 200 40 213 c 0
 40 230 59 246 71 246 c 2
 290 246 l 2
 294 246 302 246 302 228 c 0
 302 216 282 196 269 196 c 2
EndSplineSet
Validated: 1
EndChar

StartChar: figuredash
Encoding: 8210 8210 220
Width: 456
GlyphClass: 2
Flags: MW
HStem: 238 49<44.5 406 62 394>
LayerCount: 2
Fore
SplineSet
50 238 m 2
 39 238 36 247 36 255 c 0
 36 267 50 287 62 287 c 2
 406 287 l 2
 417 287 420 279 420 270 c 0
 420 258 407 238 394 238 c 2
 50 238 l 2
EndSplineSet
Validated: 1
EndChar

StartChar: endash
Encoding: 8211 8211 221
Width: 456
GlyphClass: 2
Flags: MW
HStem: 238 49<44.5 406 62 394>
LayerCount: 2
Fore
SplineSet
50 238 m 2
 39 238 36 247 36 255 c 0
 36 267 50 287 62 287 c 2
 406 287 l 2
 417 287 420 279 420 270 c 0
 420 258 407 238 394 238 c 2
 50 238 l 2
EndSplineSet
Validated: 1
Substitution2: "'case' Case-Sensitive Forms in Latin lookup 7 subtable" endash.cap
EndChar

StartChar: emdash
Encoding: 8212 8212 222
Width: 836
GlyphClass: 2
Flags: W
LayerCount: 2
Fore
SplineSet
50 238 m 2
 39 238 36 247 36 255 c 0
 36 267 50 287 62 287 c 2
 786 287 l 2
 797 287 800 279 800 270 c 0
 800 258 787 238 774 238 c 2
 50 238 l 2
EndSplineSet
Validated: 1
Substitution2: "'case' Case-Sensitive Forms in Latin lookup 7 subtable" emdash.cap
EndChar

StartChar: uni2015
Encoding: 8213 8213 223
Width: 608
GlyphClass: 2
Flags: W
LayerCount: 2
Fore
SplineSet
50 238 m 2
 39 238 36 247 36 255 c 0
 36 267 50 287 62 287 c 2
 558 287 l 2
 569 287 572 279 572 270 c 0
 572 258 559 238 546 238 c 2
 50 238 l 2
EndSplineSet
Validated: 1
Ligature2: "'liga' Standard Ligatures in Latin lookup 3 subtable" emdash emdash
EndChar

StartChar: uni2016
Encoding: 8214 8214 224
Width: 290
GlyphClass: 2
Flags: W
HStem: 632 20G<96.5141 147 208.514 259>
VStem: -11 270
LayerCount: 2
Fore
SplineSet
149 -233 m 1
 101 -233 l 1
 211 652 l 1
 259 652 l 1
 149 -233 l 1
37 -233 m 1
 -11 -233 l 1
 99 652 l 1
 147 652 l 1
 37 -233 l 1
EndSplineSet
Validated: 1
Substitution2: "'sups' Superscript in Latin lookup 11 subtable" uni2016.sups
EndChar

StartChar: quoteleft
Encoding: 8216 8216 225
Width: 116
GlyphClass: 2
Flags: W
HStem: 703 24<59.115 86.4835>
VStem: -56 45<538.5 647.616>
LayerCount: 2
Fore
SplineSet
-11 617 m 0
 -11 578 59 607 59 555 c 0
 59 524 33 499 -1 499 c 0
 -13 499 -56 504 -56 573 c 0
 -56 653 9 713 83 727 c 1
 88 720 88 713 88 703 c 1
 35 690 -11 644 -11 617 c 0
EndSplineSet
Validated: 1
EndChar

StartChar: quoteright
Encoding: 8217 8217 226
Width: 189
GlyphClass: 2
Flags: W
HStem: 471 24<70.5165 97.885>
VStem: 168 45<550.384 659.5>
LayerCount: 2
Fore
SplineSet
168 581 m 0
 168 620 98 591 98 643 c 0
 98 674 124 699 158 699 c 0
 170 699 213 694 213 625 c 0
 213 545 148 485 74 471 c 1
 69 478 69 485 69 495 c 1
 122 508 168 554 168 581 c 0
EndSplineSet
Validated: 1
EndChar

StartChar: quotesinglbase
Encoding: 8218 8218 227
Width: 268
GlyphClass: 2
Flags: W
HStem: -133 24<46.5165 73.885>
VStem: 144 45<-53.6161 55.5>
LayerCount: 2
Fore
SplineSet
144 -23 m 0
 144 16 74 -13 74 39 c 0
 74 70 100 95 134 95 c 0
 146 95 189 90 189 21 c 0
 189 -59 124 -119 50 -133 c 1
 45 -126 45 -119 45 -109 c 1
 98 -96 144 -50 144 -23 c 0
EndSplineSet
Validated: 1
EndChar

StartChar: quotedblleft
Encoding: 8220 8220 228
Width: 290
GlyphClass: 2
Flags: W
HStem: 703 24<59.115 86.4835 233.115 260.484>
VStem: -56 45<538.5 647.616> 118 45<538.5 647.616>
LayerCount: 2
Fore
SplineSet
163 617 m 0
 163 578 233 607 233 555 c 0
 233 524 207 499 173 499 c 0
 161 499 118 504 118 573 c 0
 118 653 183 713 257 727 c 1
 262 720 262 713 262 703 c 1
 209 690 163 644 163 617 c 0
-11 617 m 0
 -11 578 59 607 59 555 c 0
 59 524 33 499 -1 499 c 0
 -13 499 -56 504 -56 573 c 0
 -56 653 9 713 83 727 c 1
 88 720 88 713 88 703 c 1
 35 690 -11 644 -11 617 c 0
EndSplineSet
Validated: 1
EndChar

StartChar: quotedblright
Encoding: 8221 8221 229
Width: 363
GlyphClass: 2
Flags: W
HStem: 471 24<70.5165 97.885 245.516 272.885>
VStem: 168 45<550.384 659.5> 343 45<550.384 659.5>
LayerCount: 2
Fore
SplineSet
343 581 m 0
 343 620 273 591 273 643 c 0
 273 674 299 699 333 699 c 0
 345 699 388 694 388 625 c 0
 388 545 323 485 249 471 c 1
 244 478 244 485 244 495 c 1
 297 508 343 554 343 581 c 0
168 581 m 0
 168 620 98 591 98 643 c 0
 98 674 124 699 158 699 c 0
 170 699 213 694 213 625 c 0
 213 545 148 485 74 471 c 1
 69 478 69 485 69 495 c 1
 122 508 168 554 168 581 c 0
EndSplineSet
Validated: 1
EndChar

StartChar: quotedblbase
Encoding: 8222 8222 230
Width: 375
GlyphClass: 2
Flags: W
HStem: -133 24<19.5165 46.885 186.516 213.885>
VStem: 117 45<-53.6161 55.5> 284 45<-53.6161 55.5>
LayerCount: 2
Fore
SplineSet
284 -23 m 0
 284 16 214 -13 214 39 c 0
 214 70 240 95 274 95 c 0
 286 95 329 90 329 21 c 0
 329 -59 264 -119 190 -133 c 1
 185 -126 185 -119 185 -109 c 1
 238 -96 284 -50 284 -23 c 0
117 -23 m 0
 117 16 47 -13 47 39 c 0
 47 70 73 95 107 95 c 0
 119 95 162 90 162 21 c 0
 162 -59 97 -119 23 -133 c 1
 18 -126 18 -119 18 -109 c 1
 71 -96 117 -50 117 -23 c 0
EndSplineSet
Validated: 1
EndChar

StartChar: dagger
Encoding: 8224 8224 231
Width: 570
GlyphClass: 2
Flags: W
HStem: 387 86<78.3158 236.681 314.815 474.88> 640 20G<300 326.5>
VStem: 258 94<522.503 626.558>
LayerCount: 2
Fore
SplineSet
275 334 m 0
 275 301 282 273 297 251 c 1
 261 228 204 -33 190 -109 c 1
 166 -109 l 1
 198 77 209 156 209 196 c 0
 209 224 204 232 194 251 c 1
 227 282 247 337 262 419 c 1
 232 404 173 387 128 387 c 0
 93 387 68 396 68 423 c 0
 68 460 103 473 145 473 c 0
 189 473 240 458 267 441 c 1
 261 460 258 487 258 513 c 0
 258 582 278 660 322 660 c 0
 331 660 352 657 352 616 c 0
 352 565 319 484 290 441 c 1
 322 457 384 475 429 475 c 0
 459 475 487 467 487 438 c 0
 487 402 450 389 406 389 c 0
 363 389 314 401 286 419 c 1
 281 393 275 364 275 334 c 0
EndSplineSet
Validated: 1
Substitution2: "'sups' Superscript in Latin lookup 11 subtable" dagger.sups
EndChar

StartChar: daggerdbl
Encoding: 8225 8225 232
Width: 570
GlyphClass: 2
Flags: W
HStem: 28 85<34.905 195.29 271.078 432.689> 387 86<100.063 258.681 336.692 497.102> 640 20G<322 348.5>
VStem: 160 95<-121.91 -22.1154> 280 94<522.503 626.558>
LayerCount: 2
Fore
SplineSet
297 334 m 0
 297 301 304 273 319 251 c 1
 284 214 264 159 250 83 c 1
 281 97 342 114 387 114 c 0
 438 114 444 93 444 79 c 0
 444 43 409 29 366 29 c 0
 324 29 275 43 246 61 c 1
 250 50 255 26 255 -10 c 0
 255 -80 233 -158 191 -158 c 0
 179 -158 160 -154 160 -115 c 0
 160 -65 193 16 222 61 c 1
 192 45 132 28 86 28 c 0
 50 28 26 37 26 64 c 0
 26 100 59 113 100 113 c 0
 148 113 205 96 226 83 c 1
 231 116 237 146 237 174 c 0
 237 214 226 237 216 251 c 1
 249 282 269 337 284 419 c 1
 254 404 195 387 150 387 c 0
 115 387 90 396 90 423 c 0
 90 460 124 473 166 473 c 0
 210 473 262 458 289 441 c 1
 283 460 280 487 280 513 c 0
 280 582 300 660 344 660 c 0
 353 660 374 657 374 616 c 0
 374 565 341 484 312 441 c 1
 344 457 405 475 450 475 c 0
 480 475 509 467 509 438 c 0
 509 402 472 389 428 389 c 0
 385 389 336 401 308 419 c 1
 303 393 297 364 297 334 c 0
EndSplineSet
Validated: 1
Substitution2: "'sups' Superscript in Latin lookup 11 subtable" daggerdbl.sups
EndChar

StartChar: bullet
Encoding: 8226 8226 233
Width: 351
GlyphClass: 2
Flags: W
HStem: 105 254<69.3474 206.345>
VStem: 11 253<161.543 300.569>
LayerCount: 2
Fore
SplineSet
11 234 m 0
 11 303 72 359 137 359 c 0
 204 359 264 303 264 231 c 0
 264 169 215 105 137 105 c 0
 68 105 11 162 11 234 c 0
EndSplineSet
Validated: 1
EndChar

StartChar: ellipsis
Encoding: 8230 8230 234
Width: 684
GlyphClass: 2
Flags: W
HStem: -10 106<39.875 118.649 267.875 346.649 495.875 574.649>
VStem: 26 108<4.98447 82.25> 254 108<4.98447 82.25> 482 108<4.98447 82.25>
CounterMasks: 1 70
LayerCount: 2
Fore
SplineSet
86 96 m 0
 113 96 134 75 134 49 c 0
 134 18 105 -10 74 -10 c 0
 47 -10 26 10 26 37 c 0
 26 64 47 96 86 96 c 0
314 96 m 0
 341 96 362 75 362 49 c 0
 362 18 333 -10 302 -10 c 0
 275 -10 254 10 254 37 c 0
 254 64 275 96 314 96 c 0
542 96 m 0
 569 96 590 75 590 49 c 0
 590 18 561 -10 530 -10 c 0
 503 -10 482 10 482 37 c 0
 482 64 503 96 542 96 c 0
EndSplineSet
Validated: 1
EndChar

StartChar: perthousand
Encoding: 8240 8240 235
Width: 774
GlyphClass: 2
Flags: W
HStem: -19 29<369.157 434.488 601.157 666.488> 218 32<399.282 466.76 631.282 698.76> 297 29<93.9888 160.227> 478 37<240.165 416.93> 533 32<126.214 193.826>
VStem: 25 52<339.1 482.081> 209 31<390.203 498.175> 298 52<22.8957 166.807> 482 30<74.7227 201.139> 530 52<22.8957 166.807> 714 30<74.7227 201.139>
LayerCount: 2
Fore
SplineSet
582 83 m 0
 582 34 607 10 631 10 c 0
 685 10 714 95 714 150 c 0
 714 158 713 218 666 218 c 0
 619 218 582 140 582 83 c 0
626 -19 m 0
 563 -19 530 42 530 99 c 0
 530 173 583 250 654 250 c 0
 682 250 744 240 744 150 c 0
 744 82 705 -19 626 -19 c 0
350 83 m 0
 350 34 375 10 399 10 c 0
 453 10 482 95 482 150 c 0
 482 158 481 218 434 218 c 0
 387 218 350 140 350 83 c 0
394 -19 m 0
 331 -19 298 42 298 99 c 0
 298 173 351 250 422 250 c 0
 450 250 512 240 512 150 c 0
 512 82 473 -19 394 -19 c 0
122 297 m 0
 57 297 25 359 25 414 c 0
 25 488 79 565 149 565 c 0
 177 565 205 552 216 540 c 1
 271 515 306 515 324 515 c 0
 366 515 433 525 472 569 c 1
 516 548 l 1
 65 -14 l 1
 18 -5 l 1
 419 497 l 1
 381 481 346 478 317 478 c 0
 293 478 255 488 235 499 c 1
 238 488 240 478 240 466 c 0
 240 400 202 297 122 297 c 0
77 399 m 0
 77 393 77 326 126 326 c 0
 178 326 209 407 209 465 c 0
 209 481 205 533 160 533 c 0
 114 533 77 456 77 399 c 0
EndSplineSet
Validated: 1
EndChar

StartChar: minute
Encoding: 8242 8242 236
Width: 249
GlyphClass: 2
Flags: W
HStem: 516 183
VStem: 54 147
LayerCount: 2
Fore
SplineSet
162 699 m 0
 183 699 201 682 201 665 c 0
 201 659 199 652 193 646 c 2
 84 524 l 2
 80 520 76 516 72 516 c 0
 66 516 54 518 54 528 c 0
 54 531 56 535 58 539 c 2
 130 682 l 2
 135 692 151 699 162 699 c 0
EndSplineSet
Validated: 1
Substitution2: "'smcp' Lowercase to Small Capitals in Latin lookup 1 subtable" minute.smcp
EndChar

StartChar: second
Encoding: 8243 8243 237
Width: 325
GlyphClass: 2
Flags: W
HStem: 516 183
VStem: -3 280
LayerCount: 2
Fore
SplineSet
238 699 m 0
 259 699 277 682 277 665 c 0
 277 659 275 652 269 646 c 2
 160 524 l 2
 156 520 152 516 148 516 c 0
 142 516 130 518 130 528 c 0
 130 531 132 535 134 539 c 2
 206 682 l 2
 211 692 227 699 238 699 c 0
105 699 m 0
 126 699 144 682 144 665 c 0
 144 659 142 652 136 646 c 2
 27 524 l 2
 23 520 19 516 15 516 c 0
 9 516 -3 518 -3 528 c 0
 -3 531 -1 535 1 539 c 2
 73 682 l 2
 78 692 94 699 105 699 c 0
EndSplineSet
Validated: 1
Substitution2: "'smcp' Lowercase to Small Capitals in Latin lookup 1 subtable" second.smcp
EndChar

StartChar: guilsinglleft
Encoding: 8249 8249 238
Width: 355
GlyphClass: 2
Flags: W
HStem: 1 21G<183.5 219.414>
VStem: 25 253
LayerCount: 2
Fore
SplineSet
278 430 m 1
 271 372 l 1
 214 306 165 256 112 215 c 1
 152 179 186 129 224 59 c 1
 217 1 l 1
 150 95 86 160 25 196 c 1
 31 235 l 1
 108 284 191 349 278 430 c 1
EndSplineSet
Validated: 1
EndChar

StartChar: guilsinglright
Encoding: 8250 8250 239
Width: 355
GlyphClass: 2
Flags: W
HStem: 0 21G<19.7586 60.5>
VStem: 17 253
LayerCount: 2
Fore
SplineSet
17 0 m 1
 25 58 l 1
 80 125 131 174 184 215 c 1
 144 251 110 301 71 371 c 1
 79 429 l 1
 146 335 210 271 270 234 c 1
 265 195 l 1
 187 146 104 81 17 0 c 1
EndSplineSet
Validated: 1
EndChar

StartChar: uni2042
Encoding: 8258 8258 240
Width: 604
GlyphClass: 2
Flags: W
HStem: -10 21G<48.5 70.5 161 185 373.5 395.5 486 510> 95 59<12.308 87.4012 181.576 253.466 337.308 412.401 506.576 578.466> 450 59<192.254 267.04 361.476 432.466>
VStem: 111 57<127.71 222.684> 128 80<14.8697 53.68> 291 57<482.71 577.684> 307 80<371.532 409.653> 436 57<127.71 222.684> 453 80<14.8697 53.68>
LayerCount: 2
Fore
SplineSet
123 110 m 1xe8
 120 158 111 160 111 184 c 0
 111 205 125 225 143 225 c 0
 150 225 168 222 168 198 c 0xf0
 168 172 148 142 141 109 c 1
 183 127 201 154 231 154 c 0
 238 154 257 151 257 130 c 0
 257 116 247 95 193 95 c 0
 175 95 160 95 144 92 c 1
 167 61 208 50 208 20 c 0
 208 1 192 -10 178 -10 c 0
 144 -10 146 47 128 81 c 1
 101 41 87 -10 54 -10 c 0
 43 -10 31 -2 31 13 c 0
 31 49 83 62 115 92 c 1
 104 95 91 95 78 95 c 0
 33 95 11 103 11 125 c 0
 11 146 29 154 44 154 c 0
 74 154 86 126 123 110 c 1xe8
448 110 m 1
 445 158 436 160 436 184 c 0
 436 205 450 225 468 225 c 0
 475 225 493 222 493 198 c 0xe1
 493 172 473 142 466 109 c 1
 508 127 526 154 556 154 c 0
 563 154 582 151 582 130 c 0
 582 116 572 95 518 95 c 0
 500 95 485 95 469 92 c 1
 492 61 533 50 533 20 c 0
 533 1 517 -10 503 -10 c 0
 469 -10 471 47 453 81 c 1xe080
 426 41 412 -10 379 -10 c 0
 368 -10 356 -2 356 13 c 0
 356 49 408 62 440 92 c 1
 429 95 416 95 403 95 c 0
 358 95 336 103 336 125 c 0
 336 146 354 154 369 154 c 0
 399 154 411 126 448 110 c 1
303 465 m 1
 300 513 291 515 291 539 c 0
 291 560 305 580 323 580 c 0
 330 580 348 577 348 553 c 0xe4
 348 527 328 497 321 464 c 1
 363 482 380 509 410 509 c 0
 417 509 436 506 436 485 c 0
 436 471 426 450 372 450 c 0
 354 450 340 450 324 447 c 1
 347 416 387 405 387 375 c 0
 387 356 372 345 358 345 c 0
 324 345 325 402 307 436 c 1xe3
 280 396 267 345 234 345 c 0
 223 345 211 353 211 368 c 0
 211 404 263 417 295 447 c 1
 284 450 270 450 257 450 c 0
 212 450 191 458 191 480 c 0
 191 501 208 509 223 509 c 0
 253 509 266 481 303 465 c 1
EndSplineSet
Validated: 1
EndChar

StartChar: fraction
Encoding: 8260 8260 241
Width: 56
GlyphClass: 2
Flags: W
HStem: -8 21G<-268 -194.687> 635 20G<282.656 355>
LayerCount: 2
Fore
SplineSet
300 655 m 1
 355 647 l 1
 -212 -8 l 1
 -268 0 l 1
 300 655 l 1
EndSplineSet
Validated: 1
EndChar

StartChar: uni204E
Encoding: 8270 8270 242
Width: 433
GlyphClass: 2
Flags: W
HStem: 47 57<63.8219 136.609> 126 54<242.884 316.129> 151 57<79.618 138.694>
VStem: 148 56<-19.0833 71.1567> 175 56<149.234 247.029>
LayerCount: 2
Fore
SplineSet
203 248 m 0xa8
 207 248 231 247 231 218 c 0xa8
 231 191 210 157 201 125 c 1
 230 143 246 166 268 175 c 0
 276 178 284 180 290 180 c 0
 307 180 317 170 317 154 c 0
 317 146 313 134 293 126 c 0
 272 118 237 117 210 111 c 1
 235 98 267 88 285 74 c 0
 296 65 302 56 302 47 c 0
 302 38 294 21 277 21 c 0
 272 21 261 23 248 33 c 0
 229 48 220 75 197 100 c 1
 197 76 204 46 204 23 c 0xd0
 204 16 204 -20 175 -20 c 0xc8
 165 -20 148 -16 148 12 c 0xd0
 148 43 170 63 182 101 c 1
 157 86 130 60 107 51 c 0
 100 48 94 47 89 47 c 0
 66 47 62 72 62 74 c 0
 62 84 70 96 90 104 c 0
 113 113 143 106 179 115 c 1
 147 134 117 136 97 151 c 0
 85 160 78 171 78 182 c 0
 78 194 90 208 104 208 c 0
 107 208 115 207 128 197 c 0
 147 182 166 150 186 129 c 1
 185 159 175 183 175 204 c 0
 175 222 183 248 203 248 c 0xa8
EndSplineSet
Validated: 1
EndChar

StartChar: uni2070
Encoding: 8304 8304 243
Width: 314
GlyphClass: 2
Flags: W
HStem: 359 26<84.8748 150.74> 662 26<121.397 187.118>
VStem: 6 59<401.478 584.739> 208 58<458.758 650.419>
LayerCount: 2
Fore
SplineSet
157 662 m 0
 68 662 65 478 65 457 c 0
 65 445 67 385 115 385 c 0
 204 385 208 559 208 582 c 0
 208 589 207 662 157 662 c 0
160 688 m 0
 206 688 266 669 266 568 c 0
 266 482 226 359 111 359 c 0
 89 359 6 367 6 486 c 0
 6 592 75 688 160 688 c 0
EndSplineSet
Validated: 1
EndChar

StartChar: uni2074
Encoding: 8308 8308 244
Width: 314
GlyphClass: 2
Flags: W
HStem: 364 30<78.3443 136.215 194.673 238.859> 463 34<51 147 204 256.419>
VStem: 5 254<463.182 495>
LayerCount: 2
Fore
SplineSet
5 495 m 1
 130 591 129 593 179 685 c 1
 228 687 l 1
 233 682 l 1
 180 600 171 581 51 497 c 1
 152 497 l 1
 156 523 l 2
 157 533 177 543 193 543 c 0
 204 543 208 540 209 532 c 2
 204 497 l 1
 250 497 l 2
 254 497 259 494 259 489 c 0
 259 479 247 463 235 463 c 2
 199 463 l 1
 193 421 l 2
 193 397 204 396 235 394 c 0
 237 394 239 388 239 382 c 0
 239 374 236 364 230 364 c 0
 208 364 186 366 159 366 c 0
 127 366 105 364 83 364 c 0
 79 364 78 369 78 375 c 0
 78 383 82 394 88 394 c 0
 114 396 138 398 141 421 c 2
 147 463 l 1
 27 463 l 2
 6 463 5 487 5 495 c 1
EndSplineSet
Validated: 1
EndChar

StartChar: uni2075
Encoding: 8309 8309 245
Width: 314
GlyphClass: 2
Flags: W
HStem: 359 29<65.338 147.959> 549 29<87.7114 161.566> 646 37<110 249.501>
VStem: 182 58<420.974 535.75>
LayerCount: 2
Fore
SplineSet
182 483 m 0
 182 509 175 549 115 549 c 0
 93 549 66 542 51 535 c 1
 46 538 l 1
 90 683 l 1
 259 683 l 1
 256 671 250 658 248 646 c 1
 110 646 l 1
 87 567 l 1
 97 573 122 578 136 578 c 0
 206 578 240 536 240 487 c 0
 240 419 175 359 101 359 c 0
 68 359 10 372 10 395 c 0
 10 407 23 420 35 420 c 0
 64 420 58 388 104 388 c 0
 163 388 182 442 182 483 c 0
EndSplineSet
Validated: 1
EndChar

StartChar: uni2076
Encoding: 8310 8310 246
Width: 314
GlyphClass: 2
Flags: W
HStem: 359 26<95.3314 169.093> 529 27<109.674 180.024> 667 21<221.016 260>
VStem: 17 56<398.165 528.749> 196 57<411.846 519.924>
LayerCount: 2
Fore
SplineSet
196 469 m 0
 196 497 186 529 142 529 c 0
 128 529 102 524 78 507 c 1
 74 481 73 472 73 460 c 0
 73 447 75 385 131 385 c 0
 191 385 196 449 196 469 c 0
128 359 m 0
 86 359 17 379 17 465 c 0
 17 560 100 675 263 688 c 1
 260 667 l 1
 148 648 102 583 82 525 c 1
 99 539 131 556 156 556 c 0
 248 556 253 486 253 471 c 0
 253 424 206 359 128 359 c 0
EndSplineSet
Validated: 1
EndChar

StartChar: uni2077
Encoding: 8311 8311 247
Width: 314
GlyphClass: 2
Flags: W
HStem: 645 38<61.2361 202>
VStem: 21 247
LayerCount: 2
Fore
SplineSet
99 645 m 2
 71 645 63 639 45 591 c 1
 21 594 l 1
 30 622 44 661 49 687 c 1
 60 687 70 683 87 683 c 2
 268 683 l 1
 199 592 127 470 84 365 c 1
 40 365 l 1
 82 476 150 595 202 645 c 1
 99 645 l 2
EndSplineSet
Validated: 1
EndChar

StartChar: uni2078
Encoding: 8312 8312 248
Width: 314
GlyphClass: 2
Flags: W
HStem: 359 28<78.4747 170.436> 660 28<117.396 196.014>
VStem: 15 50<394.395 480.076> 55 50<572.159 652.385> 192 59<405.17 502.5> 204 46<580.262 655.334>
LayerCount: 2
Fore
SplineSet
159 660 m 0xd4
 133 660 105 650 105 613 c 0
 105 582 124 572 155 555 c 1
 177 567 204 600 204 627 c 0
 204 651 180 660 159 660 c 0xd4
176 542 m 1
 229 511 251 498 251 462 c 0
 251 411 201 359 117 359 c 0
 104 359 15 361 15 428 c 0xe8
 15 480 79 518 111 534 c 1
 83 549 55 566 55 603 c 0
 55 657 113 688 167 688 c 0
 208 688 250 666 250 628 c 0
 250 603 232 572 176 542 c 1
134 523 m 0
 133 522 65 481 65 431 c 0
 65 419 70 387 121 387 c 0
 140 387 192 387 192 457 c 0
 192 491 182 499 134 523 c 0
EndSplineSet
Validated: 1
EndChar

StartChar: uni2079
Encoding: 8313 8313 249
Width: 314
GlyphClass: 2
Flags: W
HStem: 359 21<11 49.9414> 491 27<90.7441 160.286> 662 26<102.394 175.669>
VStem: 18 56<528.312 634.808> 198 56<518.251 648.835>
LayerCount: 2
Fore
SplineSet
198 587 m 0
 198 600 196 662 140 662 c 0
 79 662 74 596 74 577 c 0
 74 557 81 518 129 518 c 0
 143 518 169 523 193 540 c 1
 197 566 198 575 198 587 c 0
143 688 m 0
 185 688 254 668 254 582 c 0
 254 487 171 372 8 359 c 1
 11 380 l 1
 123 399 168 464 188 522 c 1
 171 508 139 491 114 491 c 0
 95 491 18 496 18 576 c 0
 18 623 65 688 143 688 c 0
EndSplineSet
Validated: 1
EndChar

StartChar: uni2080
Encoding: 8320 8320 250
Width: 304
GlyphClass: 2
Flags: W
HStem: -131 26<84.8748 150.74> 172 26<121.397 187.118>
VStem: 6 59<-88.522 94.7386> 208 58<-31.2416 160.419>
LayerCount: 2
Fore
SplineSet
157 172 m 0
 68 172 65 -12 65 -33 c 0
 65 -45 67 -105 115 -105 c 0
 204 -105 208 69 208 92 c 0
 208 99 207 172 157 172 c 0
160 198 m 0
 206 198 266 179 266 78 c 0
 266 -8 226 -131 111 -131 c 0
 89 -131 6 -123 6 -4 c 0
 6 102 75 198 160 198 c 0
EndSplineSet
Validated: 1
EndChar

StartChar: uni2081
Encoding: 8321 8321 251
Width: 304
GlyphClass: 2
Flags: W
HStem: -126 29<29.1159 92.9969 176.998 222.78>
VStem: 29 194<-124.863 -95.9662>
LayerCount: 2
Fore
SplineSet
126 128 m 0
 113 128 94 122 67 113 c 1
 64 119 62 130 61 142 c 1
 110 159 139 171 187 198 c 0
 190 200 192 201 196 201 c 0
 199 201 203 200 205 198 c 2
 170 -41 l 2
 169 -46 169 -51 169 -55 c 0
 169 -93 195 -96 217 -97 c 0
 221 -97 223 -102 223 -108 c 0
 223 -116 220 -126 214 -126 c 0
 184 -126 163 -125 130 -125 c 0
 95 -125 64 -126 34 -126 c 0
 31 -126 29 -120 29 -114 c 0
 29 -106 32 -97 37 -97 c 0
 66 -95 109 -92 116 -41 c 2
 134 87 l 2
 135 99 136 108 136 114 c 0
 136 125 134 128 126 128 c 0
EndSplineSet
Validated: 1
EndChar

StartChar: uni2082
Encoding: 8322 8322 252
Width: 304
GlyphClass: 2
Flags: W
HStem: -126 42<80 209.086> 168 30<115.195 200.709>
VStem: 210 62<72.2682 162.839>
LayerCount: 2
Fore
SplineSet
163 168 m 0
 71 168 127 97 72 97 c 0
 61 97 49 106 49 118 c 0
 49 139 84 198 172 198 c 0
 206 198 272 190 272 126 c 0
 272 23 133 41 80 -84 c 1
 167 -84 l 2
 198 -84 220 -55 235 -27 c 1
 246 -27 255 -28 259 -32 c 1
 246 -68 235 -99 226 -126 c 1
 12 -126 l 1
 34 33 210 25 210 124 c 0
 210 143 203 168 163 168 c 0
EndSplineSet
Validated: 1
EndChar

StartChar: uni2083
Encoding: 8323 8323 253
Width: 304
GlyphClass: 2
Flags: W
HStem: -132 30<74.6905 164.067> 34 27<114.348 133.673> 168 30<117.682 193.64>
VStem: 57 51<116.061 159.482> 197 60<99.2317 166.375> 201 64<-68.7846 26.4862>
LayerCount: 2
Fore
SplineSet
201 -14 m 0xf4
 201 30 163 36 134 36 c 0
 127 36 122 35 114 34 c 1
 114 43 114 55 115 61 c 1
 183 70 197 120 197 140 c 0
 197 162 178 168 164 168 c 0
 147 168 117 160 108 144 c 0
 102 133 101 115 78 115 c 0
 58 115 57 131 57 134 c 0
 57 152 94 198 180 198 c 0
 201 198 257 194 257 147 c 0xf8
 257 121 239 93 196 71 c 1
 199 71 265 63 265 -3 c 0
 265 -66 207 -132 109 -132 c 0
 84 -132 18 -122 18 -92 c 0
 18 -78 32 -67 45 -67 c 0
 59 -67 68 -72 73 -84 c 0
 78 -96 84 -102 116 -102 c 0
 181 -102 201 -47 201 -14 c 0xf4
EndSplineSet
Validated: 1
EndChar

StartChar: uni2084
Encoding: 8324 8324 254
Width: 304
GlyphClass: 2
Flags: W
HStem: -126 30<78.3443 136.215 194.673 238.859> -27 34<51 147 204 256.419>
VStem: 5 254<-26.8179 5>
LayerCount: 2
Fore
SplineSet
5 5 m 1
 130 101 129 103 179 195 c 1
 228 197 l 1
 233 192 l 1
 180 110 171 91 51 7 c 1
 152 7 l 1
 156 33 l 2
 157 43 177 53 193 53 c 0
 204 53 208 50 209 42 c 2
 204 7 l 1
 250 7 l 2
 254 7 259 4 259 -1 c 0
 259 -11 247 -27 235 -27 c 2
 199 -27 l 1
 193 -69 l 2
 193 -93 204 -94 235 -96 c 0
 237 -96 239 -102 239 -108 c 0
 239 -116 236 -126 230 -126 c 0
 208 -126 186 -124 159 -124 c 0
 127 -124 105 -126 83 -126 c 0
 79 -126 78 -121 78 -115 c 0
 78 -107 82 -96 88 -96 c 0
 114 -94 138 -92 141 -69 c 2
 147 -27 l 1
 27 -27 l 2
 6 -27 5 -3 5 5 c 1
EndSplineSet
Validated: 1
EndChar

StartChar: uni2085
Encoding: 8325 8325 255
Width: 304
GlyphClass: 2
Flags: W
HStem: -131 29<65.338 147.959> 59 29<87.7114 161.566> 156 37<110 249.501>
VStem: 182 58<-69.0259 45.7499>
LayerCount: 2
Fore
SplineSet
182 -7 m 0
 182 19 175 59 115 59 c 0
 93 59 66 52 51 45 c 1
 46 48 l 1
 90 193 l 1
 259 193 l 1
 256 181 250 168 248 156 c 1
 110 156 l 1
 87 77 l 1
 97 83 122 88 136 88 c 0
 206 88 240 46 240 -3 c 0
 240 -71 175 -131 101 -131 c 0
 68 -131 10 -118 10 -95 c 0
 10 -83 23 -70 35 -70 c 0
 64 -70 58 -102 104 -102 c 0
 163 -102 182 -48 182 -7 c 0
EndSplineSet
Validated: 1
EndChar

StartChar: uni2086
Encoding: 8326 8326 256
Width: 304
GlyphClass: 2
Flags: W
HStem: -131 26<95.3314 169.093> 39 27<109.674 180.024> 177 21<221.016 260>
VStem: 17 56<-91.8354 38.7495> 196 57<-78.154 29.9243>
LayerCount: 2
Fore
SplineSet
196 -21 m 0
 196 7 186 39 142 39 c 0
 128 39 102 34 78 17 c 1
 74 -9 73 -18 73 -30 c 0
 73 -43 75 -105 131 -105 c 0
 191 -105 196 -41 196 -21 c 0
128 -131 m 0
 86 -131 17 -111 17 -25 c 0
 17 70 100 185 263 198 c 1
 260 177 l 1
 148 158 102 93 82 35 c 1
 99 49 131 66 156 66 c 0
 248 66 253 -4 253 -19 c 0
 253 -66 206 -131 128 -131 c 0
EndSplineSet
Validated: 1
EndChar

StartChar: uni2087
Encoding: 8327 8327 257
Width: 304
GlyphClass: 2
Flags: W
HStem: 155 38<61.2361 202>
VStem: 21 247
LayerCount: 2
Fore
SplineSet
99 155 m 2
 71 155 63 149 45 101 c 1
 21 104 l 1
 30 132 44 171 49 197 c 1
 60 197 70 193 87 193 c 2
 268 193 l 1
 199 102 127 -20 84 -125 c 1
 40 -125 l 1
 82 -14 150 105 202 155 c 1
 99 155 l 2
EndSplineSet
Validated: 1
EndChar

StartChar: uni2088
Encoding: 8328 8328 258
Width: 304
GlyphClass: 2
Flags: W
HStem: -131 28<78.4747 170.436> 170 28<117.396 196.014>
VStem: 15 50<-95.6051 -9.92388> 55 50<82.1589 162.385> 192 59<-84.8302 12.4995> 204 46<90.2624 165.334>
LayerCount: 2
Fore
SplineSet
159 170 m 0xd4
 133 170 105 160 105 123 c 0
 105 92 124 82 155 65 c 1
 177 77 204 110 204 137 c 0
 204 161 180 170 159 170 c 0xd4
176 52 m 1
 229 21 251 8 251 -28 c 0
 251 -79 201 -131 117 -131 c 0
 104 -131 15 -129 15 -62 c 0xe8
 15 -10 79 28 111 44 c 1
 83 59 55 76 55 113 c 0
 55 167 113 198 167 198 c 0
 208 198 250 176 250 138 c 0
 250 113 232 82 176 52 c 1
134 33 m 0
 133 32 65 -9 65 -59 c 0
 65 -71 70 -103 121 -103 c 0
 140 -103 192 -103 192 -33 c 0
 192 1 182 9 134 33 c 0
EndSplineSet
Validated: 1
EndChar

StartChar: uni2089
Encoding: 8329 8329 259
Width: 304
GlyphClass: 2
Flags: W
HStem: -131 21<11 49.9414> 1 27<90.7441 160.286> 172 26<102.394 175.669>
VStem: 18 56<38.3123 144.808> 198 56<28.2505 158.835>
LayerCount: 2
Fore
SplineSet
198 97 m 0
 198 110 196 172 140 172 c 0
 79 172 74 106 74 87 c 0
 74 67 81 28 129 28 c 0
 143 28 169 33 193 50 c 1
 197 76 198 85 198 97 c 0
143 198 m 0
 185 198 254 178 254 92 c 0
 254 -3 171 -118 8 -131 c 1
 11 -110 l 1
 123 -91 168 -26 188 32 c 1
 171 18 139 1 114 1 c 0
 95 1 18 6 18 86 c 0
 18 133 65 198 143 198 c 0
EndSplineSet
Validated: 1
EndChar

StartChar: Euro
Encoding: 8364 8364 260
Width: 569
GlyphClass: 2
Flags: W
HStem: -10 36<221.98 357.419> 215 43<5 71.3243 159 299> 307 42<37 82 176 352> 534 36<290.306 422.847>
VStem: 70 89<106.52 215> 479 29<406.384 456.375>
LayerCount: 2
Fore
SplineSet
10 307 m 1
 37 349 l 1
 92 349 l 1
 147 491 241 570 350 570 c 0
 436 570 471 554 508 548 c 1
 508 525 507 499 507 474 c 0
 507 452 507 430 508 409 c 1
 497 404 489 404 479 404 c 1
 465 480 439 534 355 534 c 0
 293 534 226 492 176 349 c 1
 377 349 l 1
 352 307 l 1
 167 307 l 1
 159 258 l 1
 325 258 l 1
 299 215 l 1
 159 215 l 1
 166 106 195 26 278 26 c 0
 375 26 409 82 439 144 c 1
 452 144 462 140 467 136 c 1
 447 87 431 44 414 3 c 1
 386 -1 328 -10 280 -10 c 0
 135 -10 77 77 70 215 c 1
 -22 215 l 1
 5 258 l 1
 73 258 l 1
 82 307 l 1
 10 307 l 1
EndSplineSet
Validated: 1
Substitution2: "'smcp' Lowercase to Small Capitals in Latin lookup 1 subtable" Euro.smcp
EndChar

StartChar: uni2120
Encoding: 8480 8480 261
Width: 790
GlyphClass: 2
Flags: W
HStem: 314 24<47.6902 146.942 268 304.246 345.21 379.896 580 619.75 688.362 721.896> 635 25<102.448 184.916 341 375.081 710.461 750.525>
VStem: -3 24<370.462 419.943> 25 54<543.512 615.992> 168 60<356.734 444.079> 214 20<562.053 600.54>
LayerCount: 2
Fore
SplineSet
243 644 m 1xf8
 243 637 l 2
 243 617 238 577 234 566 c 0
 232 565 228 562 223 562 c 0
 220 562 217 563 214 565 c 0xf4
 210 612 181 635 145 635 c 0
 88 635 79 594 79 579 c 0
 79 519 228 508 228 421 c 0
 228 377 192 308 105 308 c 0
 49 308 30 320 16 320 c 0
 7 320 0 317 -9 314 c 1
 -9 326 l 2
 -9 347 -7 376 -3 418 c 0
 0 419 6 420 11 420 c 0
 15 420 18 420 21 419 c 0
 26 355 56 332 97 332 c 0
 163 332 168 386 168 402 c 0
 168 479 25 472 25 559 c 0
 25 616 82 660 147 660 c 0
 206 660 225 644 243 644 c 1xf8
720 338 m 0
 721 336 722 332 722 328 c 0
 722 324 721 319 716 314 c 1
 696 315 675 315 653 315 c 0
 633 315 606 315 580 314 c 1
 580 314 577 318 577 324 c 0
 577 328 579 333 584 338 c 1
 624 342 624 342 630 405 c 2
 648 596 l 1
 642 596 l 1
 482 312 l 2
 479 308 475 306 472 306 c 0
 468 306 466 309 465 312 c 2
 401 590 l 1
 399 590 l 1
 351 404 l 2
 346 384 343 370 343 360 c 0
 343 344 353 340 378 338 c 0
 379 336 380 332 380 328 c 0
 380 324 379 319 374 314 c 1
 359 315 332 315 317 315 c 0
 305 315 283 315 268 314 c 1
 268 314 265 317 265 323 c 0
 265 327 267 333 272 338 c 1
 300 340 310 343 326 404 c 2
 378 610 l 1
 377 625 377 628 341 630 c 1
 341 630 338 634 338 640 c 0
 338 644 339 649 344 654 c 1
 446 652 l 1
 502 390 l 1
 649 652 l 1
 748 654 l 2
 749 652 751 648 751 644 c 0
 751 639 749 634 745 630 c 0
 708 627 708 627 699 595 c 1
 687 405 l 2
 686 390 685 378 685 369 c 0
 685 344 692 341 720 338 c 0
EndSplineSet
Validated: 1
EndChar

StartChar: trademark
Encoding: 8482 8482 262
Width: 869
GlyphClass: 2
Flags: W
HStem: 314 24<54.625 107.309 179.406 224.915 336 372.246 413.21 447.896 648 687.75 756.362 789.896> 625 25<58.0133 144.081 215.468 302.66 409 445.815 772.437 817.198> 637 20G<20.5 32.5 335.5 347.5>
VStem: 322 20<557.848 598.307>
LayerCount: 2
Fore
SplineSet
788 338 m 0x90
 789 336 790 332 790 328 c 0
 790 324 789 319 784 314 c 1
 764 315 743 315 721 315 c 0
 701 315 674 315 648 314 c 1
 648 314 645 318 645 324 c 0
 645 328 647 333 652 338 c 1
 692 342 692 342 698 405 c 2
 716 596 l 1
 710 596 l 1
 550 312 l 2
 547 308 543 306 540 306 c 0
 536 306 534 309 533 312 c 2
 469 590 l 1
 467 590 l 1
 419 404 l 2
 414 384 411 370 411 360 c 0
 411 344 421 340 446 338 c 0
 447 336 448 332 448 328 c 0
 448 324 447 319 442 314 c 1
 427 315 400 315 385 315 c 0
 373 315 351 315 336 314 c 1
 336 314 333 317 333 323 c 0
 333 327 335 333 340 338 c 1
 368 340 378 343 394 404 c 2
 446 610 l 1
 445 625 445 628 409 630 c 1
 409 630 406 634 406 640 c 0
 406 644 407 649 412 654 c 1
 514 652 l 1
 570 390 l 1
 717 652 l 1
 816 654 l 2
 817 652 818 648 818 644 c 0
 818 639 817 634 813 630 c 0
 776 627 776 627 767 595 c 1
 755 405 l 2
 754 390 753 378 753 369 c 0
 753 344 760 341 788 338 c 0x90
223 334 m 0
 224 332 225 328 225 324 c 0
 225 320 224 315 219 310 c 1
 192 311 163 312 138 312 c 0
 113 312 83 311 56 310 c 0
 54 312 53 315 53 319 c 0
 53 323 55 329 60 334 c 1
 106 338 112 340 121 401 c 2
 147 587 l 2
 147 615 143 625 121 625 c 2
 104 625 l 2xd0
 56 625 46 609 24 557 c 1
 17 557 11 557 5 560 c 1
 14 594 18 623 23 657 c 1xb0
 42 653 84 650 156 650 c 2
 214 650 l 2xd0
 276 650 322 654 349 657 c 1xb0
 346 622 343 595 342 560 c 1
 335 557 330 557 322 557 c 1
 314 609 306 625 260 625 c 2
 242 625 l 2xd0
 219 625 211 613 207 586 c 2
 180 401 l 2
 178 386 177 375 177 366 c 0
 177 338 189 336 223 334 c 0
EndSplineSet
Validated: 1
EndChar

StartChar: minus
Encoding: 8722 8722 263
Width: 456
GlyphClass: 2
Flags: HMW
HStem: 238 49<34.5 372 52 360>
LayerCount: 2
Fore
SplineSet
40 238 m 2
 29 238 26 247 26 255 c 0
 26 267 40 287 52 287 c 2
 372 287 l 2
 383 287 386 279 386 270 c 0
 386 258 373 238 360 238 c 2
 40 238 l 2
EndSplineSet
Validated: 1
EndChar

StartChar: openbullet
Encoding: 9702 9702 264
Width: 351
GlyphClass: 2
Flags: W
HStem: 105 38<84.8222 192.883> 322 37<84.7392 188.801>
VStem: 11 37<179.911 285.054> 227 37<179.149 284.12>
LayerCount: 2
Fore
SplineSet
11 234 m 0
 11 303 72 359 137 359 c 0
 204 359 264 303 264 231 c 0
 264 169 215 105 137 105 c 0
 68 105 11 162 11 234 c 0
48 234 m 0
 48 183 89 143 137 143 c 0
 192 143 227 187 227 231 c 0
 227 282 184 322 137 322 c 0
 91 322 48 282 48 234 c 0
EndSplineSet
Validated: 1
EndChar

StartChar: uni267E
Encoding: 9854 9854 265
Width: 610
GlyphClass: 2
Flags: W
HStem: 40 37<210.14 391.461> 187 45<153.511 225.726 384.459 456.493> 399 53<153.642 241.411 369.299 456.305> 563 37<210.333 391.461>
VStem: 14 44<218.625 418.381> 105 33<252.339 377.49> 472 31<254.45 376.825> 544 44<221.619 418.381>
LayerCount: 2
Fore
SplineSet
279 325 m 1
 256 366 231 399 190 399 c 0
 155 399 138 356 138 320 c 0
 138 280 153 232 185 232 c 0
 219 232 248 277 279 325 c 1
304 278 m 1
 278 230 249 187 200 187 c 0
 145 187 105 244 105 320 c 0
 105 405 143 452 192 452 c 0
 236 452 271 410 303 363 c 1
 335 410 372 452 416 452 c 0
 465 452 503 405 503 320 c 0
 503 244 463 187 408 187 c 0
 359 187 330 230 304 278 c 1
332 325 m 1
 363 277 391 232 425 232 c 0
 457 232 472 280 472 320 c 0
 472 356 455 399 420 399 c 0
 379 399 355 366 332 325 c 1
301 40 m 0
 144 40 14 166 14 320 c 0
 14 475 145 600 301 600 c 0
 457 600 588 475 588 320 c 0
 588 165 457 40 301 40 c 0
301 563 m 0
 164 563 58 455 58 320 c 0
 58 185 164 77 301 77 c 0
 437 77 544 185 544 320 c 0
 544 455 437 563 301 563 c 0
EndSplineSet
Validated: 1
Substitution2: "'smcp' Lowercase to Small Capitals in Latin lookup 1 subtable" uni267E.smcp
EndChar

StartChar: uni2758
Encoding: 10072 10072 266
Width: 40
GlyphClass: 2
Flags: HMW
VStem: -90 176
LayerCount: 2
Fore
SplineSet
-50 -198 m 1
 -90 -193 l 1
 46 798 l 1
 86 793 l 1
 -50 -198 l 1
EndSplineSet
Validated: 1
EndChar

StartChar: uni2E3A
Encoding: 11834 11834 267
Width: 1672
GlyphClass: 2
Flags: MW
HStem: 238 49<44.5 1622 62 1610>
LayerCount: 2
Fore
SplineSet
50 238 m 2
 39 238 36 247 36 255 c 0
 36 267 50 287 62 287 c 2
 1622 287 l 2
 1633 287 1636 279 1636 270 c 0
 1636 258 1623 238 1610 238 c 2
 50 238 l 2
EndSplineSet
Validated: 1
EndChar

StartChar: uni2E3B
Encoding: 11835 11835 268
Width: 2508
GlyphClass: 2
Flags: MW
HStem: 238 49<44.5 2458 62 2446>
LayerCount: 2
Fore
SplineSet
50 238 m 2
 39 238 36 247 36 255 c 0
 36 267 50 287 62 287 c 2
 2458 287 l 2
 2469 287 2472 279 2472 270 c 0
 2472 258 2459 238 2446 238 c 2
 50 238 l 2
EndSplineSet
Validated: 1
EndChar

StartChar: uniFFFD
Encoding: 65533 65533 269
Width: 600
GlyphClass: 2
Flags: W
LayerCount: 2
Fore
SplineSet
265 445 m 0
 265 461 258 458 258 473 c 0
 258 517 315 536 356 536 c 0
 397 536 431 498 431 438 c 0
 431 414 423 370 355 315 c 0
 287 261 278 207 271 167 c 2
 265 125 l 2
 265 119 269 114 275 114 c 0
 282 114 289 119 290 125 c 2
 296 165 l 2
 307 231 350 259 372 272 c 0
 449 316 503 375 503 451 c 0
 503 525 450 566 369 566 c 0
 251 566 186 485 186 437 c 0
 186 411 207 403 220 403 c 0
 241 403 265 418 265 445 c 0
302 2 m 0
 302 23 286 39 263 39 c 0
 236 39 209 15 209 -12 c 0
 209 -34 225 -50 248 -50 c 0
 276 -50 302 -24 302 2 c 0
246 -128 m 0
 121 -128 36 7 36 196 c 0
 36 462 206 730 384 730 c 0
 509 730 594 595 594 406 c 0
 594 140 424 -128 246 -128 c 0
EndSplineSet
Validated: 1
EndChar

StartChar: numbersign.smcp
Encoding: 65537 -1 270
Width: 384
GlyphClass: 2
Flags: W
HStem: 0 21G<20 64.3235 138 182.471> 136 47<20 63 117 182 234 279> 259 45<59 102 155 221 273 318>
VStem: 3 332
LayerCount: 2
Fore
SplineSet
42 259 m 1
 59 304 l 1
 117 304 l 1
 160 440 l 1
 199 440 l 1
 155 304 l 1
 235 304 l 1
 279 440 l 1
 317 440 l 1
 273 304 l 1
 335 304 l 1
 318 259 l 1
 259 259 l 1
 234 183 l 1
 296 183 l 1
 279 136 l 1
 220 136 l 1
 176 0 l 1
 138 0 l 1
 182 136 l 1
 101 136 l 1
 58 0 l 1
 20 0 l 1
 63 136 l 1
 3 136 l 1
 20 183 l 1
 78 183 l 1
 102 259 l 1
 42 259 l 1
117 183 m 1
 196 183 l 1
 221 259 l 1
 140 259 l 1
 117 183 l 1
EndSplineSet
Validated: 1
EndChar

StartChar: dollar.smcp
Encoding: 65538 -1 271
Width: 357
GlyphClass: 2
Flags: W
HStem: -8 32<68.8357 99 146 188.608> 418 32<143.455 193>
VStem: -1 32<68.9277 132.577> 40 67<298.246 382.176> 229 71<64.748 165.638> 286 28<326.98 374.506>
LayerCount: 2
Fore
SplineSet
147 208 m 1xf8
 83 243 40 266 40 319 c 0
 40 386 109 449 199 450 c 1
 213 512 l 1
 226 518 241 518 254 518 c 1
 238 448 l 1
 286 443 305 428 325 428 c 1
 319 392 314 362 314 330 c 1
 306 325 296 325 286 325 c 1xf4
 283 371 261 400 231 412 c 1
 196 253 l 1
 249 225 300 194 300 138 c 0
 300 85 256 -10 139 -10 c 1
 125 -73 l 1
 113 -78 99 -78 85 -78 c 1
 99 -8 l 1
 55 -4 36 7 21 7 c 0
 9 7 2 2 -10 -2 c 1
 -5 41 -3 74 -1 130 c 1
 11 135 18 136 31 136 c 1
 35 64 63 31 106 24 c 1
 147 208 l 1xf8
146 23 m 1
 225 33 229 103 229 117 c 0xf8
 229 154 197 177 182 188 c 1
 146 23 l 1
193 418 m 1
 126 415 107 368 107 342 c 0
 107 313 131 293 161 274 c 1
 193 418 l 1
EndSplineSet
Validated: 1
EndChar

StartChar: percent.smcp
Encoding: 65539 -1 272
Width: 460
GlyphClass: 2
Flags: W
HStem: -10 35<247.11 305.831> 172 33<294.502 349.371> 235 35<81.2572 140.844> 377 30<228.351 340.043> 418 32<130.69 184.107>
VStem: 34 46<270.807 366.377> 186 34<331.859 396.906> 197 48<25.9402 120.718> 351 33<84.9044 170.565>
LayerCount: 2
Fore
SplineSet
351 143 m 0xfd80
 351 150 350 172 328 172 c 0
 289 172 245 100 245 55 c 0
 245 46 246 25 271 25 c 0
 312 25 351 102 351 143 c 0xfd80
259 -10 m 0
 217 -10 197 24 197 61 c 0
 197 126 259 205 327 205 c 0
 356 205 384 193 384 151 c 0
 384 93 330 -10 259 -10 c 0
93 235 m 0
 79 235 34 239 34 304 c 0
 34 369 93 450 162 450 c 0
 184 450 205 440 212 430 c 1
 242 413 271 407 294 407 c 0
 347 407 382 434 396 450 c 1
 431 437 l 1
 29 -10 l 1
 -10 2 l 1
 341 392 l 1
 316 380 298 377 277 377 c 0
 257 377 239 384 220 397 c 1xfe80
 220 350 174 235 93 235 c 0
186 388 m 0
 186 398 185 418 164 418 c 0
 125 418 80 344 80 299 c 0
 80 283 85 270 105 270 c 0
 147 270 186 345 186 388 c 0
EndSplineSet
Validated: 1
EndChar

StartChar: ampersand.smcp
Encoding: 65540 -1 273
Width: 550
GlyphClass: 2
Flags: W
HStem: -10 40<348.312 413.954> -10 33<98.153 194.072> 288 28<375.798 392.907 453.652 525.765> 422 28<225.001 289.161>
VStem: 2 74<39.1007 148.924> 144 54<285.613 404.865> 301 56<337.919 415.452>
LayerCount: 2
Fore
SplineSet
259 422 m 0x3e
 258 422 198 418 198 348 c 0
 198 329 203 310 212 285 c 1
 237 300 301 341 301 382 c 0
 301 407 276 422 259 422 c 0x3e
174 231 m 1
 108 193 76 139 76 93 c 0
 76 52 102 23 141 23 c 0x7e
 170 23 208 41 252 82 c 1
 221 126 194 181 174 231 c 1
162 264 m 1
 154 285 144 316 144 346 c 0
 144 381 157 450 267 450 c 0
 309 450 357 425 357 385 c 0
 357 349 318 303 223 253 c 1
 242 210 268 164 294 123 c 1
 342 177 393 242 393 272 c 0
 393 276 392 287 378 288 c 0
 376 288 375 291 375 295 c 0
 375 303 379 316 383 316 c 0
 413 316 418 313 452 313 c 0
 487 313 494 316 522 316 c 0
 524 316 526 311 526 305 c 0
 526 297 522 289 515 288 c 0
 475 285 467 285 453 275 c 0
 431 259 376 163 316 91 c 1
 344 51 363 30 378 30 c 0
 401 30 415 45 434 71 c 1
 441 71 447 65 450 61 c 1
 427 10 393 -10 369 -10 c 0xbe
 337 -10 310 9 279 50 c 1
 232 4 175 -10 128 -10 c 0
 57 -10 2 30 2 86 c 0
 2 121 24 189 162 264 c 1
EndSplineSet
Validated: 1
EndChar

StartChar: parenleft.smcp
Encoding: 65541 -1 274
Width: 298
GlyphClass: 3
Flags: W
VStem: 53 64<69.7276 306.612>
LayerCount: 2
Fore
SplineSet
159 -78 m 1
 129 -41 53 60 53 195 c 0
 53 325 125 443 254 518 c 1
 263 517 272 514 273 507 c 1
 186 440 117 317 117 172 c 0
 117 108 131 25 181 -68 c 1
 178 -73 167 -76 159 -78 c 1
EndSplineSet
Validated: 1
EndChar

StartChar: parenright.smcp
Encoding: 65542 -1 275
Width: 298
GlyphClass: 2
Flags: W
VStem: 192 66<133.736 370.684>
LayerCount: 2
Fore
SplineSet
152 518 m 1
 182 481 258 380 258 245 c 0
 258 115 186 -3 57 -78 c 1
 48 -77 38 -73 37 -66 c 1
 124 1 192 124 192 268 c 0
 192 326 181 413 129 509 c 1
 132 514 144 516 152 518 c 1
EndSplineSet
Validated: 1
EndChar

StartChar: at.smcp
Encoding: 65543 -1 276
Width: 639
GlyphClass: 2
Flags: W
HStem: -117 31<185.932 353.375> 18 26<338.363 436.498> 20 38<221.7 289.504> 272 32<300.958 388.152> 419 31<260.196 419.589>
VStem: 3 64<20.932 223.801> 156 56<65.0933 172.292> 326 54<40 100.737> 533 63<147.907 324.785>
LayerCount: 2
Fore
SplineSet
354 272 m 0xbf80
 274 272 212 174 212 111 c 0
 212 96 217 58 262 58 c 0
 305 58 393 175 393 236 c 0
 393 253 386 272 354 272 c 0xbf80
233 20 m 0
 171 20 156 65 156 98 c 0
 156 186 263 304 360 304 c 0
 384 304 408 291 413 271 c 1
 420 289 l 1
 460 298 l 1
 472 294 l 1
 397 102 l 2
 387 79 380 60 380 51 c 0
 380 48 380 44 386 44 c 0
 523 44 533 196 533 239 c 0
 533 363 426 419 345 419 c 0
 191 419 67 295 67 128 c 0
 67 64 87 -86 274 -86 c 0
 337 -86 384 -67 429 -36 c 1
 437 -57 l 1
 388 -91 338 -117 255 -117 c 0
 99 -117 3 -19 3 117 c 0
 3 301 179 450 357 450 c 0
 360 450 596 449 596 244 c 0
 596 139 523 18 349 18 c 0
 326 18 326 36 326 44 c 0xdf80
 326 52 328 56 344 89 c 1
 341 89 l 1
 302 34 258 20 233 20 c 0
EndSplineSet
Validated: 1
EndChar

StartChar: A.c2sc
Encoding: 65544 -1 277
Width: 511
GlyphClass: 2
Flags: W
HStem: 0 31<-45.7765 9.24808 78.238 121.656 279.116 334.927 428.253 479.656> 148 33<153.003 309> 372 84<246.358 295.5>
LayerCount: 2
Fore
SplineSet
52 103 m 2
 242 431 l 2
 252 448 270 456 287 456 c 0
 304 456 319 448 324 430 c 2
 407 102 l 2
 423 36 432 36 475 31 c 0
 478 31 480 26 480 20 c 0
 480 11 476 0 470 0 c 0
 443 0 415 4 387 4 c 0
 357 4 317 0 284 0 c 0
 281 0 279 6 279 13 c 0
 279 21 282 31 289 31 c 0
 323 35 337 37 337 57 c 0
 337 66 334 78 330 96 c 2
 318 148 l 1
 139 148 l 2
 129 148 127 145 122 137 c 2
 99 96 l 2
 82 67 78 55 78 49 c 0
 78 36 91 34 117 31 c 0
 120 31 122 26 122 20 c 0
 122 11 118 0 112 0 c 0
 83 0 55 4 30 4 c 0
 6 4 -23 0 -41 0 c 0
 -44 0 -46 6 -46 12 c 0
 -46 20 -43 29 -36 31 c 0
 0 36 13 37 52 103 c 2
309 181 m 1
 263 369 l 2
 263 371 260 372 259 372 c 0
 258 372 258 371 257 369 c 2
 162 207 l 2
 156 198 153 192 153 188 c 0
 153 183 157 181 167 181 c 2
 309 181 l 1
EndSplineSet
Validated: 1
EndChar

StartChar: B.c2sc
Encoding: 65545 -1 278
Width: 463
GlyphClass: 2
Flags: W
HStem: -10 32<138.75 263.044> 0 31<-34.7234 35.9268> 222 31<158 277.047> 409 31<31.1925 92.0115> 418 32<198.392 301.673>
VStem: 320 79<64.2577 187.185> 334 71<282.68 393.159>
LayerCount: 2
Fore
SplineSet
320 125 m 0xa4
 320 174 284 222 226 222 c 2
 153 222 l 1
 134 108 130 77 130 63 c 0
 130 37 146 22 190 22 c 0
 281 22 320 74 320 125 c 0xa4
158 253 m 1
 231 253 l 2
 302 253 334 295 334 337 c 0
 334 377 305 418 256 418 c 0x2a
 190 418 180 384 175 352 c 0
 167 309 163 278 158 253 c 1
323 239 m 1
 369 216 399 166 399 117 c 0
 399 53 347 -10 210 -10 c 0xac
 156 -10 108 4 80 4 c 0
 40 4 6 0 -30 0 c 0
 -33 0 -35 5 -35 11 c 0
 -35 20 -32 31 -25 31 c 0
 27 36 45 36 54 88 c 0
 55 95 99 353 99 373 c 0
 99 403 74 405 35 409 c 0
 32 409 31 414 31 420 c 0
 31 429 33 440 40 440 c 0x74
 74 440 112 436 149 436 c 0
 176 436 211 450 262 450 c 0
 282 450 405 445 405 340 c 0
 405 292 373 246 323 239 c 1
EndSplineSet
Validated: 1
EndChar

StartChar: C.c2sc
Encoding: 65546 -1 279
Width: 481
GlyphClass: 2
Flags: W
HStem: -10 35<167.017 284.142> 309 125<384.201 415.14> 419 31<211.453 331.503>
VStem: 14 83<104.569 303.425> 386 29<311.384 361.438>
LayerCount: 2
Fore
SplineSet
204 -10 m 0xb8
 90 -10 14 89 14 195 c 0
 14 253 38 450 276 450 c 0xb8
 353 450 390 434 423 434 c 1
 420 391 418 353 415 314 c 1
 404 309 396 309 386 309 c 1xd8
 380 382 331 419 274 419 c 0
 193 419 97 347 97 211 c 0
 97 209 98 25 225 25 c 0
 266 25 313 48 364 98 c 1
 372 96 379 85 380 78 c 1
 323 16 262 -10 204 -10 c 0xb8
EndSplineSet
Validated: 1
EndChar

StartChar: D.c2sc
Encoding: 65547 -1 280
Width: 530
GlyphClass: 2
Flags: W
HStem: -10 32<147.901 270.809> 0 31<-33.3666 36.9268> 409 31<32.3713 93.2129> 419 31<206.358 304.673>
VStem: 395 77<134.439 333.212>
LayerCount: 2
Fore
SplineSet
395 234 m 0x98
 395 360 312 419 253 419 c 0
 216 419 184 396 176 352 c 0
 175 349 133 98 133 72 c 0
 133 51 144 22 204 22 c 0
 288 22 395 91 395 234 c 0x98
272 450 m 0
 448 450 472 285 472 233 c 0
 472 181 456 -10 216 -10 c 0x98
 170 -10 82 4 81 4 c 0
 41 4 7 0 -29 0 c 0
 -32 0 -34 4 -34 9 c 0
 -34 18 -30 30 -24 31 c 0
 28 36 46 36 55 88 c 0
 55 89 100 351 100 374 c 0
 100 403 76 405 36 409 c 0x68
 33 409 32 414 32 419 c 0x18
 32 428 35 440 41 440 c 0x28
 75 440 113 436 150 436 c 0
 184 436 221 450 272 450 c 0
EndSplineSet
Validated: 1
EndChar

StartChar: E.c2sc
Encoding: 65548 -1 281
Width: 450
GlyphClass: 2
Flags: W
HStem: 0 39<133.673 293.201> 0 31<-33.3666 36.9268> 215 31<159 263> 323 117<358.065 384.945> 401 35<186.872 339.142> 409 31<32.3713 94.4213>
VStem: 263 27<158.006 188.67> 286 26<262.852 302.977> 362 26<325.376 370.316>
LayerCount: 2
Fore
SplineSet
378 128 m 1xaa80
 323 8 337 0 326 0 c 0
 292 0 263 4 164 4 c 0
 37 4 7 0 -29 0 c 0
 -32 0 -34 4 -34 9 c 0
 -34 18 -30 30 -24 31 c 0
 28 36 46 36 55 88 c 0
 56 91 100 351 100 375 c 0
 100 403 79 405 36 409 c 0
 33 409 32 414 32 419 c 0
 32 428 35 440 41 440 c 0x6680
 75 440 105 436 217 436 c 0x2a80
 316 436 345 440 381 440 c 0
 383 440 386 438 386 421 c 0
 386 411 385 400 385 386 c 0
 385 380 386 349 388 329 c 1
 379 323 372 323 362 323 c 1x3280
 353 378 345 401 267 401 c 2
 213 401 l 2
 194 401 182 384 176 352 c 0
 167 305 164 272 159 246 c 1
 213 246 l 2
 273 246 275 256 286 299 c 0
 288 301 294 303 300 303 c 0
 306 303 310 301 312 299 c 0x2980
 301 247 301 247 290 162 c 0
 288 160 282 158 276 158 c 0
 270 158 265 160 263 162 c 0
 263 173 265 182 265 189 c 0
 264 211 253 215 207 215 c 2
 153 215 l 1
 132 82 132 82 132 70 c 0
 132 50 143 39 174 39 c 2
 215 39 l 2
 294 39 327 78 351 135 c 1
 362 135 370 135 378 128 c 1xaa80
EndSplineSet
Validated: 1
EndChar

StartChar: F.c2sc
Encoding: 65549 -1 282
Width: 450
GlyphClass: 2
Flags: W
HStem: 0 31<-33.3666 36.9268 137.367 199.656> 215 31<159 263> 323 117<358.065 384.945> 401 35<186.872 339.142> 409 31<32.3713 94.4213>
VStem: 263 27<158.006 188.67> 286 26<262.852 302.977> 362 26<325.376 370.316>
LayerCount: 2
Fore
SplineSet
385 386 m 0xe5
 385 380 386 349 388 329 c 1
 379 323 372 323 362 323 c 1xe5
 353 378 345 401 267 401 c 2
 213 401 l 2
 194 401 182 384 176 352 c 0
 167 305 164 272 159 246 c 1
 213 246 l 2
 273 246 275 256 286 299 c 0
 288 301 294 303 300 303 c 0
 306 303 310 301 312 299 c 0xd3
 301 247 301 247 290 162 c 0
 288 160 282 158 276 158 c 0
 270 158 265 160 263 162 c 0
 263 173 265 182 265 189 c 0
 264 211 253 215 207 215 c 2
 153 215 l 1
 132 82 132 82 132 65 c 0
 132 37 152 35 195 31 c 0
 198 31 200 26 200 20 c 0
 200 11 196 0 190 0 c 0
 156 0 118 4 81 4 c 0
 41 4 7 0 -29 0 c 0
 -32 0 -34 4 -34 9 c 0
 -34 18 -30 30 -24 31 c 0
 28 36 46 36 55 88 c 0
 56 91 100 351 100 375 c 0
 100 403 79 405 36 409 c 0
 33 409 32 414 32 419 c 0
 32 428 35 440 41 440 c 0xcd
 75 440 105 436 217 436 c 0xd5
 316 436 345 440 381 440 c 0
 383 440 386 438 386 421 c 0
 386 411 385 400 385 386 c 0xe5
EndSplineSet
Validated: 1
EndChar

StartChar: G.c2sc
Encoding: 65550 -1 283
Width: 510
GlyphClass: 2
Flags: W
HStem: -10 35<165.055 329.799> 174 31<287.478 341.236 426.798 464.342> 419 31<224.074 350.74>
VStem: 14 84<92.4896 296.623> 346 56<43.6875 152.933> 407 30<311.244 361.438>
LayerCount: 2
Fore
SplineSet
98 196 m 0
 98 126 118 25 237 25 c 0
 271 25 301 30 332 43 c 1
 340 87 l 2
 344 110 346 126 346 138 c 0
 346 167 333 170 291 174 c 0
 288 174 287 179 287 184 c 0
 287 193 291 205 297 205 c 0
 324 205 356 201 384 201 c 0
 413 201 443 205 461 205 c 0
 464 205 465 201 465 196 c 0
 465 187 461 176 455 174 c 0
 429 167 420 166 407 87 c 0
 402 52 402 52 402 51 c 0
 402 46 403 40 408 34 c 1
 353 8 290 -10 227 -10 c 0
 159 -10 14 11 14 191 c 0
 14 230 26 450 293 450 c 0
 352 450 416 434 444 434 c 1
 441 391 439 353 437 314 c 1
 427 309 419 309 407 309 c 1
 401 382 351 419 291 419 c 0
 203 419 98 342 98 196 c 0
EndSplineSet
Validated: 1
EndChar

StartChar: H.c2sc
Encoding: 65551 -1 284
Width: 610
GlyphClass: 2
Flags: W
HStem: 0 31<-33.3666 36.9268 135.681 185.629 272.633 331.212 431.757 491.813> 209 32<157 369> 409 31<32.3713 93.0115 192.788 251.367 338.371 387.214 487.457 557.53>
LayerCount: 2
Fore
SplineSet
469 352 m 0
 468 349 425 88 425 67 c 0
 425 37 449 35 488 31 c 0
 491 31 492 26 492 20 c 0
 492 11 490 0 484 0 c 0
 450 0 411 4 374 4 c 0
 334 4 313 0 277 0 c 0
 274 0 272 4 272 9 c 0
 272 18 276 30 282 31 c 0
 322 36 339 36 348 88 c 0
 357 134 361 159 369 209 c 1
 152 209 l 1
 131 82 131 71 131 64 c 0
 131 38 149 35 182 31 c 0
 185 31 186 26 186 21 c 0
 186 12 183 0 177 0 c 0
 143 0 118 4 81 4 c 0
 41 4 7 0 -29 0 c 0
 -32 0 -34 4 -34 9 c 0
 -34 18 -30 30 -24 31 c 0
 28 36 46 36 55 88 c 0
 56 95 100 353 100 373 c 0
 100 403 75 405 36 409 c 0
 33 409 32 414 32 419 c 0
 32 428 35 440 41 440 c 0
 75 440 113 436 150 436 c 0
 190 436 211 440 247 440 c 0
 250 440 252 436 252 431 c 0
 252 422 248 410 242 409 c 0
 202 404 185 404 176 352 c 0
 167 302 162 268 157 241 c 1
 374 241 l 1
 376 254 393 358 393 374 c 0
 393 402 372 405 342 409 c 0
 339 409 338 414 338 419 c 0
 338 428 341 440 347 440 c 0
 381 440 407 436 444 436 c 0
 484 436 517 440 553 440 c 0
 556 440 558 435 558 430 c 0
 558 421 554 410 549 409 c 0
 497 404 478 403 469 352 c 0
EndSplineSet
Validated: 1
EndChar

StartChar: I.c2sc
Encoding: 65552 -1 285
Width: 310
GlyphClass: 2
Flags: W
HStem: 0 31<-33.7234 36.9268 137.367 198.734> 409 31<32.178 94.4213 194.073 264.723>
VStem: -34 299
LayerCount: 2
Fore
SplineSet
176 352 m 0
 175 349 132 94 132 65 c 0
 132 37 152 35 195 31 c 0
 198 31 199 26 199 20 c 0
 199 11 196 0 190 0 c 0
 156 0 118 4 81 4 c 0
 41 4 7 0 -29 0 c 0
 -32 0 -34 5 -34 11 c 0
 -34 20 -31 31 -24 31 c 0
 28 36 46 36 55 88 c 0
 56 91 100 351 100 375 c 0
 100 403 79 405 36 409 c 0
 33 409 32 415 32 421 c 0
 32 430 35 440 41 440 c 0
 75 440 113 436 150 436 c 0
 190 436 224 440 260 440 c 0
 263 440 265 435 265 429 c 0
 265 420 262 409 255 409 c 0
 203 404 185 404 176 352 c 0
EndSplineSet
Validated: 1
EndChar

StartChar: J.c2sc
Encoding: 65553 -1 286
Width: 310
GlyphClass: 2
Flags: W
HStem: -166 40<-16.5 72.6943> 409 31<78.4784 157.752 258.334 311.367>
LayerCount: 2
Fore
SplineSet
-17 -86 m 0
 32 -86 11 -126 42 -126 c 0
 71 -126 94 -101 122 71 c 2
 146 220 l 2
 168 349 168 360 168 372 c 0
 168 403 130 405 83 409 c 0
 80 409 78 414 78 419 c 0
 78 428 82 440 88 440 c 0
 122 440 171 436 208 436 c 0
 248 436 271 440 307 440 c 0
 310 440 312 436 312 431 c 0
 312 422 308 410 302 409 c 0
 262 404 254 403 245 352 c 0
 234 292 230 265 222 220 c 2
 201 92 l 2
 191 30 155 -166 -7 -166 c 0
 -26 -166 -58 -151 -58 -124 c 0
 -58 -98 -30 -86 -17 -86 c 0
EndSplineSet
Validated: 1
Substitution2: "'salt' Stylistic Alternatives in Latin lookup 5 subtable" J.c2sc.salt
EndChar

StartChar: K.c2sc
Encoding: 65554 -1 287
Width: 547
GlyphClass: 2
Flags: W
HStem: 0 31<-33.3666 36.9268 132.598 178.813 391.895 439.629> 205 34<157 201.383> 409 31<32.3713 91.8171 192.955 244.53 315.371 345.993 422.398 500.367>
LayerCount: 2
Fore
SplineSet
152 205 m 1
 131 85 130 68 130 59 c 0
 130 36 146 34 175 31 c 0
 178 31 179 26 179 20 c 0
 179 11 177 0 171 0 c 0
 137 0 118 4 81 4 c 0
 41 4 7 0 -29 0 c 0
 -32 0 -34 4 -34 9 c 0
 -34 18 -30 30 -24 31 c 0
 28 37 46 37 55 88 c 0
 56 95 100 353 100 373 c 0
 100 401 76 404 36 409 c 0
 33 409 32 414 32 419 c 0
 32 428 35 440 41 440 c 0
 75 440 113 436 150 436 c 0
 190 436 204 440 240 440 c 0
 243 440 245 435 245 430 c 0
 245 421 241 410 236 409 c 0
 204 404 185 403 176 352 c 0
 167 301 162 266 157 239 c 1
 187 240 218 255 265 299 c 0
 322 354 346 381 346 394 c 0
 346 403 336 407 319 409 c 0
 316 409 315 414 315 419 c 0
 315 428 318 440 324 440 c 0
 351 440 384 436 411 436 c 0
 435 436 468 440 496 440 c 0
 499 440 501 436 501 431 c 0
 501 422 497 410 491 409 c 0
 458 404 420 403 387 370 c 2
 291 276 l 2
 266 252 257 243 257 236 c 0
 257 232 259 230 263 224 c 2
 378 58 l 2
 389 43 414 36 436 31 c 0
 439 30 440 26 440 21 c 0
 440 12 437 0 431 0 c 0
 414 0 381 3 356 4 c 0
 332 4 321 0 304 0 c 1
 307 19 307 19 307 22 c 0
 307 29 305 39 297 50 c 2
 206 182 l 2
 195 201 173 205 152 205 c 1
EndSplineSet
Validated: 1
EndChar

StartChar: L.c2sc
Encoding: 65555 -1 288
Width: 400
GlyphClass: 2
Flags: W
HStem: 0 39<134.804 260.909> 0 31<-33.3666 35.926> 409 31<32.3713 93.4143 194.073 264.367>
LayerCount: 2
Fore
SplineSet
346 131 m 1xa0
 303 39 305 0 295 0 c 0
 261 0 231 4 147 4 c 0
 37 4 7 0 -29 0 c 0
 -32 0 -34 4 -34 9 c 0
 -34 18 -30 30 -24 31 c 0x60
 28 37 46 38 55 88 c 0
 55 89 100 351 100 374 c 0
 100 402 77 404 36 409 c 0
 33 409 32 414 32 419 c 0
 32 428 35 440 41 440 c 0
 75 440 113 436 150 436 c 0
 190 436 224 440 260 440 c 0
 263 440 265 436 265 431 c 0
 265 422 261 410 255 409 c 0
 203 404 185 403 176 352 c 0
 176 349 132 98 132 76 c 0
 132 44 148 39 193 39 c 2
 199 39 l 2
 257 39 297 81 321 136 c 1
 332 136 338 135 346 131 c 1xa0
EndSplineSet
Validated: 1
EndChar

StartChar: M.c2sc
Encoding: 65556 -1 289
Width: 684
GlyphClass: 2
Flags: W
HStem: -16 21G<246.5 255.5> 0 31<-41.7341 24.9946 93.4398 150.513 369.487 439.33 534.863 595.513> 409 31<58.5938 111.647 555.995 625.513>
VStem: 472 52<134.238 291.894>
LayerCount: 2
Fore
SplineSet
511 436 m 2x70
 551 436 584 440 620 440 c 0
 624 440 626 436 626 430 c 0
 626 421 622 409 615 409 c 0
 551 402 550 398 543 352 c 0
 543 349 524 102 524 76 c 0
 524 38 552 35 590 31 c 0
 594 31 596 27 596 21 c 0
 596 12 592 0 585 0 c 0
 551 0 516 4 479 4 c 0
 439 4 411 0 375 0 c 0
 370 0 369 4 369 10 c 0
 369 19 373 31 380 31 c 0
 442 39 446 38 451 88 c 0
 456 135 468 274 472 352 c 0
 472 353 470 359 468 359 c 0
 467 359 466 356 462 350 c 2
 273 0 l 2x70
 268 -11 260 -16 251 -16 c 0xb0
 242 -16 234 -11 231 0 c 2
 160 336 l 2
 160 339 157 342 156 342 c 0
 155 342 89 91 89 64 c 0
 89 38 105 36 145 31 c 0
 149 31 151 27 151 21 c 0
 151 12 147 0 140 0 c 0
 106 0 108 4 71 4 c 0
 31 4 -2 0 -38 0 c 0
 -41 0 -42 5 -42 11 c 0
 -42 20 -39 31 -33 31 c 0
 20 37 32 38 45 88 c 0
 89 247 115 356 115 381 c 0
 115 398 104 405 65 409 c 0
 60 409 58 413 58 419 c 0
 58 428 63 440 70 440 c 0
 104 440 140 436 177 436 c 2
 210 436 l 1
 279 112 l 2
 280 107 283 105 284 105 c 0
 286 105 288 109 291 114 c 2
 464 436 l 1
 511 436 l 2x70
EndSplineSet
Validated: 1
EndChar

StartChar: N.c2sc
Encoding: 65557 -1 290
Width: 598
GlyphClass: 2
Flags: W
HStem: -16 21G<381.5 395> 0 31<-32.5056 36.9268 108.552 170.522> 409 31<32.4784 90.4619 354.478 415.646 487.457 557.53>
LayerCount: 2
Fore
SplineSet
381 115 m 0x60
 384 115 422 348 422 374 c 0
 422 402 400 404 359 409 c 0
 356 409 354 414 354 419 c 0
 354 428 358 440 364 440 c 0
 398 440 419 436 456 436 c 0
 496 436 517 440 553 440 c 0
 556 440 558 435 558 430 c 0
 558 421 554 410 549 409 c 0
 497 404 478 403 469 352 c 0
 467 342 444 220 416 15 c 0
 413 -5 401 -16 389 -16 c 0xa0
 374 -16 359 -7 349 10 c 2
 154 351 l 2
 152 354 151 355 150 355 c 0
 149 355 148 354 148 352 c 0
 147 349 103 92 103 65 c 0
 103 37 124 35 166 31 c 0
 169 31 171 26 171 21 c 0
 171 12 167 0 161 0 c 0
 127 0 104 4 67 4 c 0
 27 4 7 0 -29 0 c 0
 -32 0 -33 4 -33 9 c 0
 -33 18 -30 30 -24 31 c 0
 28 36 46 36 55 88 c 0
 56 91 100 346 100 371 c 0
 100 402 70 405 37 409 c 0
 34 409 32 414 32 419 c 0
 32 428 36 440 42 440 c 0
 76 440 99 436 136 436 c 2
 195 437 l 1
 370 129 l 2
 375 120 379 115 381 115 c 0x60
EndSplineSet
Validated: 1
EndChar

StartChar: O.c2sc
Encoding: 65558 -1 291
Width: 549
GlyphClass: 2
Flags: W
HStem: -10 33<163.978 291.271> 418 32<220.243 340.285>
VStem: 14 84<108.487 285.665> 406 85<149.034 329.536>
LayerCount: 2
Fore
SplineSet
98 179 m 0
 98 96 138 23 223 23 c 0
 342 23 406 148 406 256 c 0
 406 272 403 418 283 418 c 0
 167 418 98 288 98 179 c 0
237 -10 m 0
 86 -10 14 97 14 206 c 0
 14 325 100 450 267 450 c 0
 418 450 491 341 491 231 c 0
 491 113 406 -10 237 -10 c 0
EndSplineSet
Validated: 1
EndChar

StartChar: P.c2sc
Encoding: 65559 -1 292
Width: 458
GlyphClass: 2
Flags: W
HStem: 0 31<-34.7655 36.9268 139.541 199.656> 176 31<153.713 263.678> 409 31<32.2709 94.4213> 418 32<197.907 284.829>
VStem: 315 76<254.282 394.331>
LayerCount: 2
Fore
SplineSet
315 327 m 0xd8
 315 373 292 418 241 418 c 0
 195 418 182 386 176 352 c 0
 155 225 155 225 153 218 c 1
 171 211 193 207 212 207 c 0
 279 207 315 270 315 327 c 0xd8
251 450 m 0
 346 450 391 391 391 328 c 0
 391 255 329 176 206 176 c 0
 184 176 165 181 149 188 c 1
 135 97 132 82 132 72 c 0
 132 39 148 37 195 31 c 0
 198 31 200 26 200 20 c 0
 200 11 196 0 190 0 c 0
 156 0 119 4 82 4 c 0
 42 4 7 0 -29 0 c 0
 -33 0 -35 6 -35 12 c 0
 -35 21 -31 31 -24 31 c 0
 28 36 46 36 55 88 c 0
 56 91 100 351 100 375 c 0
 100 403 79 405 36 409 c 0
 33 409 32 414 32 420 c 0
 32 429 35 440 42 440 c 0xe8
 76 440 113 436 150 436 c 0
 175 436 216 450 251 450 c 0
EndSplineSet
Validated: 1
EndChar

StartChar: Q.c2sc
Encoding: 65560 -1 293
Width: 549
GlyphClass: 2
Flags: W
HStem: -156 45<303.447 414.787> -82 33<170 191.832> -10 33<213.185 288.801> 418 32<220.412 340.285>
VStem: 14 85<109.401 288.36> 406 85<147.794 329.758>
LayerCount: 2
Fore
SplineSet
190 -6 m 1
 73 15 14 108 14 206 c 0
 14 325 101 450 267 450 c 0
 418 450 491 342 491 231 c 0
 491 117 412 -2 253 -10 c 1
 230 -19 201 -30 170 -49 c 1
 272 -49 305 -111 377 -111 c 0
 399 -111 427 -105 447 -84 c 1
 460 -94 l 1
 424 -137 386 -156 337 -156 c 0
 238 -156 207 -82 137 -82 c 0
 132 -82 124 -84 113 -89 c 0
 99 -101 86 -113 73 -128 c 1
 45 -112 l 1
 73 -78 129 -32 190 -6 c 1
99 179 m 0
 99 96 138 23 223 23 c 0
 342 23 406 148 406 256 c 0
 406 272 403 418 283 418 c 0
 167 418 99 288 99 179 c 0
EndSplineSet
Validated: 1
Substitution2: "'salt' Stylistic Alternatives in Latin lookup 5 subtable" Q.c2sc.salt
EndChar

StartChar: R.c2sc
Encoding: 65561 -1 294
Width: 443
GlyphClass: 2
Flags: W
HStem: -10 26<370.643 406.881> 0 31<-34.7726 36.9268 138.152 199.723> 200 28<156 187.215> 409 31<31.1808 94.4213> 418 32<191.991 278.657>
VStem: 306 77<265.725 396.864>
LayerCount: 2
Fore
SplineSet
257 450 m 0x2c
 337 450 383 394 383 334 c 0
 383 277 343 217 250 201 c 1
 311 173 336 16 401 16 c 0
 404 16 407 10 407 5 c 0
 407 1 406 -2 402 -3 c 0
 389 -8 378 -10 367 -10 c 0xac
 242 -10 242 200 150 200 c 1
 133 98 132 78 132 66 c 0
 132 38 153 36 195 31 c 0
 198 31 200 26 200 20 c 0
 200 11 197 0 190 0 c 0
 156 0 118 4 81 4 c 0
 41 4 7 0 -29 0 c 0
 -33 0 -35 6 -35 12 c 0
 -35 20 -32 30 -24 31 c 0
 28 36 46 36 55 88 c 0
 56 91 100 351 100 375 c 0
 100 403 79 405 36 409 c 0
 32 409 31 415 31 421 c 0
 31 430 34 440 41 440 c 0x74
 75 440 113 436 150 436 c 0
 178 436 234 450 257 450 c 0x2c
306 329 m 0
 306 375 280 418 246 418 c 0
 192 418 184 403 176 352 c 0
 165 293 160 257 156 228 c 1
 197 228 l 2
 276 228 306 279 306 329 c 0
EndSplineSet
Validated: 1
EndChar

StartChar: S.c2sc
Encoding: 65562 -1 295
Width: 376
GlyphClass: 2
Flags: W
HStem: -10 32<81.0191 193.294> -2 21G<1 5> 418 32<152.388 256.785>
VStem: 8 32<67.9868 132.577> 49 71<301.4 383.042> 230 80<66.9863 164.332> 295 27<326.857 374.043>
LayerCount: 2
Fore
SplineSet
230 115 m 0xbc
 230 215 49 206 49 317 c 0
 49 391 124 450 210 450 c 0
 287 450 311 428 334 428 c 1
 329 392 322 362 322 330 c 1
 314 325 305 325 295 325 c 1xba
 290 387 254 418 207 418 c 0
 134 418 120 362 120 341 c 0
 120 264 310 251 310 140 c 0
 310 83 263 -10 147 -10 c 0xbc
 74 -10 49 7 30 7 c 0
 18 7 11 2 -1 -2 c 1x7c
 3 41 5 74 8 130 c 1
 20 135 27 136 40 136 c 1
 44 53 82 22 136 22 c 0
 224 22 230 94 230 115 c 0xbc
EndSplineSet
Validated: 1
EndChar

StartChar: T.c2sc
Encoding: 65563 -1 296
Width: 449
GlyphClass: 2
Flags: W
HStem: 0 31<20.6334 89.926 192.469 252.629> 324 116<-8.38366 3.78026 376.059 406> 403 37<29.429 150.993 240.727 361.988>
VStem: 380 26<321.584 375.916>
LayerCount: 2
Fore
SplineSet
-34 324 m 1xd0
 -13 387 -15 440 -2 440 c 0xd0
 32 440 167 436 204 436 c 0
 244 436 375 440 411 440 c 0xb0
 414 440 415 436 415 431 c 0
 415 425 408 383 406 324 c 1xd0
 397 320 390 320 380 320 c 1
 371 388 362 403 301 403 c 2
 277 403 l 2
 247 403 236 387 230 352 c 0
 229 349 185 90 185 67 c 0
 185 38 209 36 249 31 c 0
 252 31 253 26 253 21 c 0
 253 12 250 0 244 0 c 0
 210 0 171 4 134 4 c 0
 94 4 61 0 25 0 c 0
 22 0 20 4 20 9 c 0
 20 18 24 30 30 31 c 0
 82 37 100 38 109 88 c 0
 119 139 153 357 153 372 c 0
 153 403 128 403 119 403 c 2
 97 403 l 2xb0
 34 403 22 388 -8 320 c 1
 -17 320 -26 320 -34 324 c 1xd0
EndSplineSet
Validated: 1
EndChar

StartChar: U.c2sc
Encoding: 65564 -1 297
Width: 588
GlyphClass: 2
Flags: W
HStem: -10 39<174.399 317.591> 409 31<37.4784 96.2704 192.771 258.53 355.478 410.812 479.04 545.367>
VStem: 67 78<54.5913 284.558>
LayerCount: 2
Fore
SplineSet
145 129 m 0
 145 67 168 29 237 29 c 0
 361 29 376 117 393 220 c 0
 393 222 414 355 414 379 c 0
 414 403 400 405 360 409 c 0
 357 409 355 414 355 419 c 0
 355 428 359 440 365 440 c 0
 399 440 413 436 450 436 c 0
 490 436 505 440 541 440 c 0
 544 440 546 436 546 431 c 0
 546 422 542 410 536 409 c 0
 484 403 471 402 462 352 c 0
 450 288 445 250 440 220 c 0
 420 93 379 -10 216 -10 c 0
 100 -10 67 39 67 115 c 0
 67 147 73 183 79 220 c 0
 79 222 100 356 100 378 c 0
 100 404 83 405 42 409 c 0
 39 409 37 414 37 419 c 0
 37 428 41 440 47 440 c 0
 81 440 114 436 151 436 c 0
 191 436 218 440 254 440 c 0
 257 440 259 435 259 430 c 0
 259 421 255 410 250 409 c 0
 198 404 186 403 177 352 c 0
 170 314 145 173 145 129 c 0
EndSplineSet
Validated: 1
EndChar

StartChar: V.c2sc
Encoding: 65565 -1 298
Width: 500
GlyphClass: 2
Flags: W
HStem: -16 21G<152.5 162.5> 409 31<-11.5216 25.2999 117.4 180.591 315.478 356.78 419.402 463.367>
LayerCount: 2
Fore
SplineSet
121 345 m 2
 183 110 l 2
 184 104 188 100 190 100 c 0
 192 100 194 103 198 110 c 2
 336 345 l 2
 350 368 357 382 357 391 c 0
 357 403 345 405 320 409 c 0
 317 409 315 414 315 419 c 0
 315 428 319 440 325 440 c 0
 350 440 364 436 399 436 c 0
 423 436 437 440 459 440 c 0
 462 440 464 436 464 431 c 0
 464 422 460 410 454 409 c 0
 423 404 421 402 383 339 c 2
 195 27 l 2
 179 2 168 -16 157 -16 c 0
 148 -16 140 -3 131 28 c 2
 44 339 l 2
 26 403 26 404 -7 409 c 0
 -10 409 -12 414 -12 419 c 0
 -12 428 -8 440 -2 440 c 0
 22 440 49 436 79 436 c 0
 118 436 146 439 175 439 c 0
 179 439 181 434 181 429 c 0
 181 421 177 410 171 409 c 0
 129 403 114 402 114 381 c 0
 114 373 116 363 121 345 c 2
EndSplineSet
Validated: 1
EndChar

StartChar: W.c2sc
Encoding: 65566 -1 299
Width: 740
GlyphClass: 2
Flags: W
HStem: -16 116<143 182 403 441> 409 31<-8.52164 29.4905 121.293 183.367 251.266 288.944 380.089 442.53 560.266 601.859 657.061 701.506>
LayerCount: 2
Fore
SplineSet
383 345 m 2
 434 110 l 2
 435 104 438 100 440 100 c 0
 442 100 445 104 449 110 c 2
 580 345 l 2
 594 370 602 384 602 392 c 0
 602 403 590 405 565 409 c 0
 562 409 560 414 560 420 c 0
 560 429 563 440 569 440 c 0
 594 440 603 436 638 436 c 0
 662 436 676 440 698 440 c 0
 700 440 702 436 702 431 c 0
 702 422 699 410 693 409 c 0
 662 404 657 402 621 339 c 2
 446 27 l 2
 431 3 420 -16 408 -16 c 0
 398 -16 389 -4 381 28 c 2
 323 270 l 1
 187 27 l 2
 172 3 160 -16 148 -16 c 0
 138 -16 130 -4 122 28 c 2
 47 339 l 2
 32 403 29 404 -4 409 c 0
 -7 409 -9 414 -9 419 c 0
 -9 428 -5 440 1 440 c 0
 25 440 52 436 82 436 c 0
 121 436 150 440 179 440 c 0
 182 440 184 436 184 431 c 0
 184 422 180 410 174 409 c 0
 130 404 118 400 118 381 c 0
 118 375 118 375 124 345 c 2
 175 110 l 2
 176 104 179 100 181 100 c 0
 183 100 185 104 189 110 c 2
 309 325 l 1
 306 339 l 2
 291 403 289 404 256 409 c 0
 253 409 251 414 251 420 c 0
 251 429 254 440 260 440 c 0
 284 440 312 436 342 436 c 0
 381 436 409 440 438 440 c 0
 441 440 443 435 443 430 c 0
 443 421 439 410 434 409 c 0
 390 404 377 401 377 381 c 0
 377 375 377 375 383 345 c 2
EndSplineSet
Validated: 1
EndChar

StartChar: X.c2sc
Encoding: 65567 -1 300
Width: 524
GlyphClass: 2
Flags: W
HStem: 0 31<-33.5056 31.9619 87.0073 125.629 225.47 271.965 367.998 424.506> 409 31<26.363 73.8116 169.422 226.367 317.344 350.993 409.544 483.53>
LayerCount: 2
Fore
SplineSet
349 72 m 2
 370 37 378 35 421 31 c 0
 424 31 425 27 425 22 c 0
 425 13 422 0 416 0 c 0
 393 0 360 4 323 4 c 0
 288 4 259 0 230 0 c 0
 227 0 225 5 225 10 c 0
 225 19 229 30 234 31 c 0
 260 36 272 38 272 47 c 0
 272 52 269 59 263 69 c 2
 208 163 l 2
 207 165 205 168 202 168 c 0
 200 168 196 166 193 163 c 2
 102 65 l 2
 92 55 87 49 87 44 c 0
 87 38 97 35 122 31 c 0
 125 31 126 26 126 21 c 0
 126 12 123 0 117 0 c 0
 92 0 68 4 39 4 c 0
 10 4 -10 0 -30 0 c 0
 -32 0 -34 4 -34 9 c 0
 -34 18 -31 30 -25 31 c 0
 19 35 25 37 52 65 c 2
 173 195 l 2
 176 198 184 208 179 213 c 2
 96 360 l 2
 72 403 68 404 30 409 c 0
 27 409 26 413 26 419 c 0
 26 428 29 440 34 440 c 0
 59 440 97 436 126 436 c 0
 155 436 196 440 222 440 c 0
 225 440 227 436 227 431 c 0
 227 422 223 410 217 409 c 0
 185 405 169 402 169 391 c 0
 169 389 170 385 173 378 c 2
 231 276 l 2
 233 272 236 271 238 271 c 0
 241 271 244 274 245 275 c 2
 335 373 l 2
 346 384 351 391 351 396 c 0
 351 402 341 405 322 409 c 0
 319 410 317 415 317 420 c 0
 317 429 321 440 327 440 c 0
 352 440 379 436 408 436 c 0
 437 436 459 440 479 440 c 0
 482 440 484 435 484 430 c 0
 484 421 480 410 475 409 c 0
 419 404 413 403 374 361 c 2
 265 243 l 2
 264 242 258 236 258 231 c 0
 258 230 260 229 260 228 c 2
 349 72 l 2
EndSplineSet
Validated: 1
EndChar

StartChar: Y.c2sc
Encoding: 65568 -1 301
Width: 475
GlyphClass: 2
Flags: W
HStem: 0 31<35.6334 104.649 207.545 267.629> 409 31<-7.62866 38.3612 130.842 185.367 263.371 313.054 373.745 429.367>
VStem: 139 62<64.5065 196.207>
LayerCount: 2
Fore
SplineSet
229 206 m 2
 222 197 217 185 215 171 c 0
 203 97 201 84 201 73 c 0
 201 40 211 38 264 31 c 0
 267 31 268 26 268 21 c 0
 268 12 265 0 259 0 c 0
 225 0 186 4 149 4 c 0
 109 4 76 0 40 0 c 0
 37 0 35 4 35 9 c 0
 35 18 39 30 45 31 c 0
 118 39 120 40 138 171 c 0
 139 176 139 180 139 183 c 0
 139 190 136 195 131 205 c 2
 69 340 l 2
 41 403 32 404 -4 409 c 0
 -7 409 -8 414 -8 419 c 0
 -8 428 -5 440 1 440 c 0
 28 440 60 436 87 436 c 0
 122 436 149 440 181 440 c 0
 184 440 186 436 186 431 c 0
 186 422 182 410 176 409 c 0
 144 405 130 403 130 388 c 0
 130 378 136 363 144 346 c 2
 196 234 l 2
 196 233 199 229 201 229 c 0
 202 229 203 230 205 233 c 2
 290 349 l 2
 306 369 314 382 314 390 c 0
 314 400 298 404 267 409 c 0
 264 409 263 414 263 419 c 0
 263 428 266 440 272 440 c 0
 296 440 322 436 357 436 c 0
 381 436 403 440 425 440 c 0
 428 440 430 436 430 431 c 0
 430 422 426 410 420 409 c 0
 381 403 373 402 327 339 c 2
 229 206 l 2
EndSplineSet
Validated: 1
EndChar

StartChar: Z.c2sc
Encoding: 65569 -1 302
Width: 443
GlyphClass: 2
Flags: W
HStem: 0 39<97.0044 292.174> 401 39<117.901 309.997>
LayerCount: 2
Fore
SplineSet
48 322 m 1
 78 398 77 440 87 440 c 0
 121 440 152 436 251 436 c 0
 343 436 372 440 408 440 c 0
 409 440 413 436 413 429 c 0
 413 422 410 413 400 403 c 2
 104 56 l 2
 99 51 97 45 97 42 c 0
 97 37 103 35 118 35 c 2
 233 39 l 2
 293 39 319 79 354 137 c 1
 364 137 372 135 379 130 c 1
 325 24 333 0 324 0 c 0
 290 0 258 4 166 4 c 0
 61 4 29 0 -7 0 c 0
 -8 0 -12 4 -12 11 c 0
 -12 16 -10 22 -4 31 c 2
 300 387 l 2
 307 395 310 399 310 402 c 0
 310 405 306 405 301 405 c 2
 167 401 l 2
 140 401 103 386 72 318 c 1
 63 318 56 319 48 322 c 1
EndSplineSet
Validated: 1
EndChar

StartChar: bracketleft.smcp
Encoding: 65570 -1 303
Width: 356
GlyphClass: 2
Flags: W
HStem: -78 25<170.732 241.102> 493 25<246.906 332.993>
VStem: 28 302
LayerCount: 2
Fore
SplineSet
28 -78 m 1
 123 518 l 1
 330 518 l 2
 332 515 333 509 333 505 c 0
 333 499 331 494 327 493 c 0
 208 479 182 472 170 399 c 2
 116 63 l 2
 114 48 111 34 111 22 c 0
 111 -18 139 -43 239 -53 c 0
 241 -53 242 -56 242 -59 c 0
 242 -65 239 -74 235 -78 c 1
 28 -78 l 1
EndSplineSet
Validated: 1
EndChar

StartChar: bracketright.smcp
Encoding: 65571 -1 304
Width: 356
GlyphClass: 2
Flags: W
HStem: -78 25<10.0066 96.0945> 493 25<103.947 172.075>
VStem: 13 302
LayerCount: 2
Fore
SplineSet
315 518 m 1
 220 -78 l 1
 13 -78 l 2
 11 -75 10 -71 10 -66 c 0
 10 -60 12 -54 16 -53 c 0
 135 -39 161 -32 173 41 c 2
 227 378 l 2
 229 393 231 407 231 419 c 0
 231 459 204 483 104 493 c 0
 99 493 102 512 108 518 c 1
 315 518 l 1
EndSplineSet
Validated: 1
EndChar

StartChar: a.smcp
Encoding: 65572 -1 305
Width: 511
GlyphClass: 2
Flags: W
HStem: 0 31<-45.7765 9.24808 78.238 121.656 279.116 334.927 428.253 479.656> 148 33<153.003 309> 372 84<246.358 295.5>
LayerCount: 2
Fore
SplineSet
52 103 m 2
 242 431 l 2
 252 448 270 456 287 456 c 0
 304 456 319 448 324 430 c 2
 407 102 l 2
 423 36 432 36 475 31 c 0
 478 31 480 26 480 20 c 0
 480 11 476 0 470 0 c 0
 443 0 415 4 387 4 c 0
 357 4 317 0 284 0 c 0
 281 0 279 6 279 13 c 0
 279 21 282 31 289 31 c 0
 323 35 337 37 337 57 c 0
 337 66 334 78 330 96 c 2
 318 148 l 1
 139 148 l 2
 129 148 127 145 122 137 c 2
 99 96 l 2
 82 67 78 55 78 49 c 0
 78 36 91 34 117 31 c 0
 120 31 122 26 122 20 c 0
 122 11 118 0 112 0 c 0
 83 0 55 4 30 4 c 0
 6 4 -23 0 -41 0 c 0
 -44 0 -46 6 -46 12 c 0
 -46 20 -43 29 -36 31 c 0
 0 36 13 37 52 103 c 2
309 181 m 1
 263 369 l 2
 263 371 260 372 259 372 c 0
 258 372 258 371 257 369 c 2
 162 207 l 2
 156 198 153 192 153 188 c 0
 153 183 157 181 167 181 c 2
 309 181 l 1
EndSplineSet
Validated: 1
EndChar

StartChar: b.smcp
Encoding: 65573 -1 306
Width: 502
GlyphClass: 2
Flags: W
HStem: -10 32<138.75 263.044> 0 31<-34.7234 35.9268> 222 31<158 277.047> 409 31<31.1925 92.0115> 418 32<198.392 301.673>
VStem: 320 79<64.2577 187.185> 334 71<282.68 393.159>
LayerCount: 2
Fore
SplineSet
320 125 m 0xa4
 320 174 284 222 226 222 c 2
 153 222 l 1
 134 108 130 77 130 63 c 0
 130 37 146 22 190 22 c 0
 281 22 320 74 320 125 c 0xa4
158 253 m 1
 231 253 l 2
 302 253 334 295 334 337 c 0
 334 377 305 418 256 418 c 0x2a
 190 418 180 384 175 352 c 0
 167 309 163 278 158 253 c 1
323 239 m 1
 369 216 399 166 399 117 c 0
 399 53 347 -10 210 -10 c 0xac
 156 -10 108 4 80 4 c 0
 40 4 6 0 -30 0 c 0
 -33 0 -35 5 -35 11 c 0
 -35 20 -32 31 -25 31 c 0
 27 36 45 36 54 88 c 0
 55 95 99 353 99 373 c 0
 99 403 74 405 35 409 c 0
 32 409 31 414 31 420 c 0
 31 429 33 440 40 440 c 0x74
 74 440 112 436 149 436 c 0
 176 436 211 450 262 450 c 0
 282 450 405 445 405 340 c 0
 405 292 373 246 323 239 c 1
EndSplineSet
Validated: 1
EndChar

StartChar: c.smcp
Encoding: 65574 -1 307
Width: 481
GlyphClass: 2
Flags: W
HStem: -10 35<167.017 284.142> 309 125<384.201 415.14> 419 31<211.453 331.503>
VStem: 14 83<104.569 303.425> 386 29<311.384 361.438>
LayerCount: 2
Fore
SplineSet
204 -10 m 0xb8
 90 -10 14 89 14 195 c 0
 14 253 38 450 276 450 c 0xb8
 353 450 390 434 423 434 c 1
 420 391 418 353 415 314 c 1
 404 309 396 309 386 309 c 1xd8
 380 382 331 419 274 419 c 0
 193 419 97 347 97 211 c 0
 97 209 98 25 225 25 c 0
 266 25 313 48 364 98 c 1
 372 96 379 85 380 78 c 1
 323 16 262 -10 204 -10 c 0xb8
EndSplineSet
Validated: 1
EndChar

